P2
104 104
255
62 54 56 63 59 56 64 63 57 52 50 56 53 63 65 59 50 50 54 55 59 55 56 55 61 61 
63 59 52 57 55 32 117 60 51 82 100 78 62 65 49 40 30 20 29 37 38 34 61 95 114 
139 186 157 133 143 143 112 88 105 127 118 130 116 108 121 121 104 99 64 47 46 
49 52 58 74 62 56 61 68 62 64 65 61 61 64 61 66 68 71 61 61 57 47 40 36 30 27 
27 26 28 30 25 19 66 62 51 57 60 59 59 63 62 63 56 55 56 60 64 58 59 61 56 54 
52 56 58 57 58 57 57 57 65 57 42 100 83 42 86 81 63 42 40 34 36 37 35 39 56 61 
61 89 129 130 164 190 113 67 85 87 51 63 97 107 121 125 150 161 135 136 121 
125 147 167 119 78 68 70 70 63 62 59 63 64 53 54 60 63 62 66 60 68 61 60 62 51 
48 38 30 29 26 23 25 24 26 26 22 15 64 64 59 60 63 54 54 62 58 60 68 63 56 58 
57 58 65 69 64 67 67 67 70 58 59 63 56 57 65 54 75 122 63 42 38 48 49 37 42 31 
36 32 26 25 20 30 84 131 97 130 197 142 82 108 96 66 95 129 143 120 108 112 
111 98 131 131 101 88 70 108 178 167 99 61 75 79 63 60 57 62 66 57 50 51 54 53 
62 62 55 47 49 41 35 31 25 25 23 24 22 25 20 19 19 17 62 61 66 68 59 51 51 58 
61 61 67 61 51 55 59 57 63 63 65 63 68 83 67 71 82 61 62 61 61 63 95 85 52 53 
61 53 58 46 52 52 37 51 45 24 29 61 109 79 110 182 186 118 108 104 113 118 172 
178 144 134 145 159 143 160 180 169 142 122 126 83 82 134 159 139 77 57 53 58 
58 46 62 66 55 56 66 59 68 55 50 39 34 31 29 29 25 20 20 21 17 19 14 13 15 15 
60 60 62 67 64 56 52 56 63 60 59 54 57 64 63 62 64 55 60 56 55 56 57 64 83 73 
69 62 56 59 102 85 64 73 67 55 45 50 42 39 32 28 36 52 65 75 67 96 160 199 142 
84 113 89 146 173 158 141 142 128 147 150 135 121 119 108 122 136 140 151 101 
79 96 101 107 67 61 54 51 46 56 63 54 57 60 62 60 55 45 38 29 28 27 25 24 18 
16 16 12 13 13 14 12 13 65 62 63 64 60 65 67 59 62 51 48 62 60 62 64 69 62 59 
64 60 59 67 78 78 92 74 68 67 60 69 106 83 70 79 63 60 54 50 64 58 60 62 51 62 
101 93 69 112 170 183 133 92 102 150 182 165 160 133 99 116 139 116 90 88 128 
105 72 100 77 95 130 61 70 82 96 125 57 66 65 48 50 65 66 55 48 49 52 50 44 39 
31 29 24 20 18 15 12 11 13 13 13 15 12 14 72 70 66 62 61 67 78 66 63 60 66 69 
66 62 62 70 75 76 71 69 73 82 71 70 94 83 78 68 62 69 95 99 87 62 88 80 58 51 
79 94 74 64 58 70 109 109 118 130 169 140 161 154 145 188 164 145 155 129 126 
157 119 104 144 170 195 204 186 161 154 123 132 110 70 91 80 92 128 60 58 54 
42 45 57 52 45 45 42 38 35 30 30 28 23 17 14 12 10 9 12 12 18 16 14 14 83 71 
67 67 65 66 69 71 69 66 68 64 65 65 69 71 60 61 74 76 74 71 76 62 83 103 88 89 
83 81 95 113 126 83 84 97 100 92 103 98 81 91 82 99 132 102 132 151 174 132 
157 178 180 173 139 147 166 161 173 163 175 207 215 220 210 191 187 196 198 
191 158 145 68 76 89 70 116 92 66 46 46 44 56 45 46 36 34 30 31 29 29 26 16 12 
9 12 10 12 12 12 15 16 18 17 74 72 69 68 72 71 62 74 72 67 60 60 64 74 74 70 
66 65 65 85 77 84 85 76 78 92 80 91 93 86 96 86 108 106 90 91 100 100 126 119 
106 113 102 114 133 136 135 152 183 157 151 171 178 159 136 131 170 176 179 
193 215 198 188 159 146 145 144 133 139 132 141 162 174 125 87 68 63 96 79 82 
33 39 48 39 41 37 26 26 27 25 21 19 11 9 8 10 10 10 15 16 16 14 16 18 67 72 70 
66 68 64 71 64 64 61 58 65 69 62 64 71 72 66 67 79 79 76 81 83 77 76 89 86 100 
93 86 99 87 86 78 83 96 89 84 105 123 120 103 123 110 145 147 164 183 169 155 
174 157 140 142 156 179 182 190 194 157 160 175 178 184 185 187 179 166 159 
140 136 162 177 181 104 47 85 87 78 53 35 40 32 29 33 23 25 25 21 13 10 11 10 
7 8 9 7 14 17 14 17 17 18 76 85 74 74 67 65 71 65 72 59 63 65 63 62 70 79 73 
64 74 69 74 77 90 86 75 89 102 96 96 100 93 107 109 94 96 97 119 121 115 108 
121 139 119 145 152 146 166 161 178 159 156 163 127 140 161 167 162 187 177 
155 165 176 183 190 198 193 176 157 165 163 167 149 146 126 129 179 148 78 107 
64 78 55 38 25 23 25 23 20 20 12 10 9 8 9 7 7 9 9 14 16 15 17 17 19 76 77 68 
71 67 76 78 70 69 64 69 59 66 71 69 78 72 71 75 69 74 88 91 93 70 86 88 105 
107 90 107 102 107 108 109 120 148 150 156 168 174 170 159 140 155 167 175 156 
182 155 159 160 140 153 158 154 170 165 152 162 147 150 180 189 195 189 183 
167 161 148 143 151 154 168 132 126 173 149 91 102 79 66 48 31 25 24 21 18 12 
10 9 6 5 7 6 7 8 12 16 13 18 18 18 20 70 74 67 66 69 67 65 67 66 70 63 66 70 
73 75 75 73 65 66 76 80 81 85 93 102 104 105 107 107 96 100 98 95 108 107 125 
145 155 173 181 178 172 163 149 152 170 166 170 163 174 162 161 168 168 174 
166 178 157 157 134 137 148 160 159 164 165 175 170 182 192 183 166 150 151 
161 153 119 142 143 93 68 84 78 47 29 25 17 8 8 7 7 5 5 7 7 9 10 9 14 12 16 17 
19 24 90 90 74 74 77 75 69 67 66 70 72 82 79 65 81 85 82 72 70 72 80 77 97 105 
129 125 96 103 94 99 113 117 98 98 118 127 149 174 190 182 176 178 151 159 150 
162 163 180 170 173 174 168 176 168 172 183 178 171 173 167 160 147 160 154 
162 168 177 184 185 184 175 185 190 167 145 152 144 123 140 116 85 69 88 71 29 
22 19 9 5 8 13 7 4 7 9 9 9 13 17 14 17 15 17 20 89 81 75 74 70 79 73 70 70 73 
70 74 69 74 86 79 70 66 68 83 88 68 84 109 102 123 125 110 111 106 93 113 134 
121 121 148 161 177 183 178 175 171 170 172 172 170 176 175 176 175 174 174 
175 178 175 177 186 178 183 180 170 165 151 153 153 149 160 174 178 179 189 
189 190 188 179 162 163 153 148 173 124 69 62 88 25 14 14 18 9 6 8 5 6 4 6 9 7 
17 23 14 14 16 20 20 92 76 73 72 65 71 73 72 72 71 62 58 70 86 67 58 70 67 73 
87 92 114 102 95 100 98 106 106 118 122 117 102 107 125 144 138 148 172 179 
174 172 172 176 178 182 174 186 183 176 183 181 184 184 182 179 182 180 176 
181 173 173 170 172 165 155 157 156 152 140 144 156 170 174 173 170 154 154 
174 157 155 192 143 76 64 43 6 8 23 13 5 7 6 5 6 5 6 6 15 19 13 13 16 19 24 96 
82 83 79 67 61 66 82 86 76 64 66 76 73 78 81 65 78 77 105 83 81 81 90 83 98 107 
117 122 123 122 128 109 110 130 152 162 176 179 174 168 175 182 176 172 175 
185 181 188 190 191 188 194 196 193 193 189 191 188 184 175 171 174 174 173 
169 161 157 147 133 136 137 133 147 167 170 146 114 153 185 154 176 133 46 67 
44 13 25 11 5 6 4 6 7 4 3 8 12 10 15 14 14 19 21 89 83 85 78 75 68 77 77 78 72 
74 71 63 76 78 66 65 83 78 86 69 79 86 82 92 94 96 96 114 122 120 107 109 127 
154 157 161 168 173 173 178 177 180 183 187 190 192 196 198 197 204 199 203 
198 197 194 190 196 199 199 193 182 172 171 174 170 170 149 158 160 148 154 
157 162 161 173 184 153 95 105 173 135 150 73 2 32 16 13 18 6 3 6 8 5 4 5 7 7 
10 15 18 16 20 22 95 84 89 73 60 69 72 70 77 79 74 68 76 74 64 68 80 68 56 65 
71 78 87 91 81 78 102 116 142 115 91 115 140 154 154 160 162 173 180 180 185 
186 187 184 186 182 193 191 190 194 195 190 191 198 199 202 198 199 193 189 
193 192 186 174 174 170 170 166 153 162 159 150 161 167 174 179 181 189 174 
106 103 185 152 121 34 18 26 4 10 12 17 9 7 6 6 6 7 12 11 14 18 20 19 21 102 
94 88 85 71 61 72 74 85 82 71 84 83 70 78 75 87 60 62 58 62 77 96 72 80 131 
136 175 159 90 119 136 151 162 175 181 186 182 175 176 182 186 180 174 172 177 
187 189 192 192 200 202 202 201 193 194 190 195 202 194 187 186 187 183 180 
187 171 173 169 166 159 160 150 149 168 177 176 179 194 177 96 97 171 128 59 
14 32 12 8 5 8 10 9 6 6 7 6 13 13 15 16 17 18 20 102 96 90 86 82 74 82 82 81 
84 84 81 78 77 87 85 92 69 72 75 68 56 59 90 109 142 181 191 92 112 140 171 
180 182 178 185 190 195 200 213 215 206 201 202 199 199 207 206 207 208 211 
213 209 210 211 208 208 199 190 197 203 201 194 186 180 173 186 177 164 172 
167 164 170 153 159 169 176 174 182 194 170 94 95 157 81 30 27 12 6 7 6 9 7 9 
11 6 9 15 15 14 18 15 16 19 100 101 92 80 75 76 78 85 86 96 81 80 82 84 76 78 
91 87 96 82 75 49 83 117 132 175 200 100 91 152 181 182 181 190 207 211 210 
206 200 202 206 206 205 210 209 212 212 210 207 213 210 214 217 217 218 215 
222 227 218 205 193 192 200 195 201 194 170 182 175 161 175 168 161 165 163 
176 180 175 171 184 191 168 105 146 142 44 34 12 7 8 6 10 8 9 13 6 9 20 17 15 
19 16 19 19 100 94 94 84 68 75 82 83 89 89 80 71 76 71 62 58 69 86 56 60 68 84 
121 151 186 202 122 76 163 175 176 186 197 200 197 192 190 195 200 200 198 193 
194 199 198 199 200 200 203 208 205 209 209 210 212 206 206 202 212 218 219 
214 195 186 183 194 199 166 176 178 161 176 174 165 164 168 167 174 182 176 
178 175 163 155 162 67 31 11 4 9 7 6 5 4 7 7 5 12 14 22 21 19 17 18 102 100 
95 89 82 84 75 84 82 86 88 71 67 66 70 67 89 95 68 72 107 121 144 163 175 145 
61 148 172 168 173 185 200 206 212 213 214 218 220 216 212 211 213 214 219 222 
221 207 209 221 220 220 220 224 226 221 224 217 199 189 188 204 221 213 195 
174 186 191 175 171 176 162 175 169 159 164 173 166 174 185 177 181 140 114 
191 134 59 23 3 7 6 4 6 3 2 6 8 11 13 19 16 17 16 20 104 108 102 96 84 75 74 
72 71 83 78 75 76 73 78 67 78 88 81 115 120 137 163 149 168 75 123 158 140 166 
198 211 210 212 214 216 216 219 218 212 210 214 214 218 219 216 212 211 219 
224 227 227 227 223 224 229 229 227 220 211 200 184 182 204 220 200 175 184 
208 177 177 177 164 169 168 155 165 182 167 178 189 172 190 111 126 169 124 
75 10 2 8 5 3 5 3 4 6 10 18 22 19 18 17 18 110 101 98 102 83 66 75 82 83 82 67 
55 58 56 70 59 72 61 85 105 109 128 127 152 111 80 152 127 169 184 194 197 204 
208 215 222 225 225 214 212 216 216 214 213 217 212 209 210 208 209 213 218 
222 219 215 209 200 205 213 217 216 213 192 179 187 198 191 182 189 201 167 
179 175 172 164 162 161 167 188 176 189 186 174 173 99 134 121 110 72 30 0 6 5 
5 5 2 3 13 20 20 22 18 18 22 103 98 103 106 88 73 76 73 82 77 66 61 46 37 66 
106 96 101 114 121 126 135 125 138 93 116 128 185 163 164 186 203 213 219 223 
222 220 222 220 211 222 218 215 219 224 218 216 216 216 225 232 235 240 237 
240 233 217 203 203 192 194 210 216 206 184 175 186 192 182 187 192 169 182 
175 166 164 168 164 163 189 181 187 186 181 151 139 63 67 107 79 43 9 5 2 7 5 
3 8 21 19 19 17 20 21 102 101 104 101 91 71 78 88 78 60 60 45 60 61 71 115 124 
134 146 141 134 124 109 115 101 108 171 143 159 194 207 210 213 220 223 221 
220 222 216 213 218 217 214 212 222 223 222 218 224 231 234 231 227 228 231 
231 229 227 225 217 200 191 185 205 202 185 180 190 198 179 182 177 164 179 
173 169 162 170 171 178 198 181 199 182 168 148 98 19 63 52 65 50 1 3 3 5 4 5 
14 16 15 20 17 19 109 105 101 101 93 78 76 76 81 96 82 72 79 89 118 143 155 
152 161 166 134 95 110 99 85 150 136 166 210 201 205 215 216 224 228 232 237 
235 228 223 218 215 215 220 222 222 222 215 219 225 226 224 226 227 227 217 
214 211 213 222 229 209 194 182 191 195 196 182 194 190 176 188 172 175 174 
171 168 164 175 187 184 195 183 197 165 163 123 54 42 22 32 79 47 1 4 4 4 7 21 
19 16 21 17 18 103 101 101 97 82 80 75 70 60 65 78 101 77 115 200 165 109 81 
85 88 108 114 111 96 99 126 158 201 173 179 189 204 218 224 222 230 232 228 
226 222 222 208 215 221 217 220 220 224 224 224 225 224 225 222 219 218 217 
224 217 207 200 212 212 195 180 189 198 198 187 205 186 179 196 179 178 171 
174 174 183 202 180 191 189 190 174 145 153 72 31 21 10 36 81 29 2 6 4 7 22 24 
16 16 19 16 111 99 99 94 75 69 58 61 69 50 51 79 116 197 124 100 92 104 104 
95 93 89 126 85 99 136 166 164 191 211 223 249 244 227 226 235 234 230 226 219 
222 210 217 220 221 227 219 219 211 228 228 224 231 227 232 229 218 219 222 
212 209 198 212 212 190 187 195 194 190 187 201 172 195 184 176 173 164 178 
182 207 206 179 198 169 185 151 121 125 24 18 11 13 50 98 18 3 4 4 11 16 10 14 
18 18 109 102 103 101 90 68 61 66 70 55 65 84 200 116 79 105 96 103 121 116 
92 107 159 68 99 150 159 171 190 167 119 126 174 195 206 224 226 223 215 222 
218 213 215 213 216 222 217 210 214 216 200 196 187 193 201 226 239 234 235 
230 204 208 196 208 197 194 188 187 189 186 198 194 183 190 180 171 174 187 
187 189 210 182 171 169 168 178 120 125 92 13 6 11 20 60 68 6 4 4 7 10 12 9 16 
18 90 98 106 96 92 80 71 60 88 66 59 150 121 60 107 85 88 123 116 85 73 142 
167 60 117 133 174 84 37 41 83 113 136 137 184 210 215 216 217 218 214 210 211 
211 221 221 212 195 194 184 150 116 117 100 110 171 183 135 144 172 212 196 
212 196 207 202 195 190 187 190 190 203 184 180 182 172 175 192 192 182 200 
199 178 166 156 173 131 97 101 106 38 20 15 24 50 30 0 4 7 16 15 10 16 15 89 
96 97 95 82 72 72 64 72 75 104 163 65 81 118 105 136 151 138 79 107 164 162 
71 84 144 127 41 48 45 84 164 186 180 169 209 222 216 214 217 214 208 208 214 
219 214 203 191 198 188 161 178 177 145 116 92 113 126 132 112 153 216 200 212 
201 203 198 188 184 189 191 188 182 173 178 178 173 193 203 196 192 190 192 
174 160 151 172 118 75 113 102 60 27 34 49 56 18 0 6 11 14 15 12 16 99 102 87 
91 88 73 65 63 53 54 127 110 49 58 89 121 140 164 110 90 115 153 164 77 60 155 
104 77 104 149 150 166 187 199 195 213 221 220 218 223 212 208 211 219 219 215 
201 205 216 220 208 220 197 173 140 153 178 185 201 209 184 220 215 215 193 
197 200 185 181 189 199 197 184 183 174 176 178 187 207 207 199 190 181 173 
162 154 144 140 90 65 102 61 31 50 58 58 50 0 7 7 11 16 17 14 94 102 92 98 92 
77 69 56 62 93 156 110 51 67 108 124 124 165 103 100 117 156 178 74 68 170 131 
144 185 195 194 181 198 204 213 211 219 225 226 226 214 214 223 225 225 227 
215 224 231 238 238 230 215 203 215 226 222 222 208 208 225 214 220 206 197 
191 194 190 201 194 209 196 189 187 174 173 175 192 212 218 205 193 176 171 
156 152 139 135 115 62 46 83 22 21 26 33 55 37 12 16 9 11 16 17 98 98 96 99 92 
85 79 82 76 90 130 101 85 84 115 146 150 138 92 97 146 191 173 74 84 171 164 
200 203 196 203 202 200 197 211 204 218 225 229 223 224 223 225 224 231 239 
225 225 225 228 224 222 219 232 235 227 225 226 218 213 215 210 220 208 197 
185 192 195 197 199 209 191 189 192 179 177 173 190 209 208 206 182 170 166 
158 155 160 147 146 106 90 59 83 24 5 4 19 41 22 18 15 10 13 19 100 96 92 93 
88 91 89 99 85 97 110 74 72 83 132 147 157 150 100 110 153 186 167 82 93 172 
189 202 214 213 204 207 206 195 197 198 214 224 222 226 227 227 232 232 237 
240 227 221 220 218 213 215 221 233 234 229 228 230 229 223 212 209 208 212 
192 179 191 196 192 194 199 196 191 197 199 190 178 187 192 208 201 180 170 
162 154 139 119 143 148 134 101 85 75 66 9 5 8 17 27 10 9 10 11 14 98 107 93 
89 90 90 98 90 79 68 79 83 63 107 136 156 150 129 96 97 144 175 171 78 103 183 
193 214 214 201 196 191 199 206 194 182 199 212 217 226 229 227 233 235 233 
228 222 211 210 215 214 211 213 218 221 224 222 228 228 230 221 215 211 209 
192 172 186 193 200 192 196 205 198 193 199 197 184 185 203 212 200 185 186 
190 179 180 142 114 138 156 111 121 73 71 39 1 10 7 11 27 12 9 13 12 98 98 89 
83 85 89 99 77 74 54 79 53 37 85 139 148 125 115 84 101 135 174 157 56 133 192 
213 221 205 181 172 158 158 181 192 175 172 186 192 223 229 227 231 233 226 
220 216 209 211 213 210 195 176 171 168 146 151 169 202 219 230 220 221 206 
197 168 182 193 200 208 198 205 200 198 199 202 196 199 205 209 223 213 205 
206 200 175 183 150 111 132 147 146 123 94 106 53 9 5 3 17 28 22 13 10 99 84 
84 80 80 83 82 61 67 60 60 39 55 92 141 123 103 113 102 106 131 168 122 53 154 
190 218 201 192 180 164 177 166 163 179 195 174 155 163 206 222 231 235 229 
223 219 210 208 207 206 207 190 168 169 160 150 158 150 133 175 221 228 215 
208 188 174 168 191 202 208 202 204 206 202 202 193 202 200 208 211 221 228 
211 212 203 180 163 180 136 124 132 159 178 158 92 39 36 16 4 10 14 22 28 21 
92 89 81 69 74 83 72 63 56 51 49 57 60 93 160 104 99 124 101 99 139 166 100 
50 165 189 214 181 178 128 133 148 156 169 170 187 210 170 123 164 215 219 230 
228 212 210 212 210 203 194 193 203 189 155 163 185 192 190 155 135 157 216 
207 212 196 176 167 184 200 201 204 206 202 190 205 190 199 199 201 216 207 
216 215 197 206 210 182 151 172 166 143 142 132 155 160 103 10 11 13 9 10 8 15 
32 78 83 74 69 73 72 71 59 45 33 31 47 39 71 152 108 86 101 77 101 148 165 84 
53 166 195 196 164 105 97 144 173 156 146 169 161 199 209 120 119 198 217 220 
223 205 211 214 190 172 189 191 159 108 88 120 133 169 189 187 165 152 194 207 
197 193 173 169 186 194 202 196 199 196 174 200 204 194 202 201 204 213 208 
196 189 188 200 213 179 143 150 167 146 151 115 97 173 141 39 0 17 13 10 9 12 
89 79 69 69 69 64 66 55 38 34 29 38 34 69 144 100 83 93 90 121 152 163 84 66 
163 188 176 103 102 206 252 174 91 90 143 144 151 201 133 94 194 225 224 211 
202 214 194 160 167 168 157 136 153 208 186 105 87 70 129 167 176 167 211 199 
204 183 171 187 190 195 193 194 200 178 191 199 203 208 208 208 206 212 201 
191 171 162 182 202 174 132 124 155 154 171 111 67 105 117 59 3 14 17 16 15 97 
81 71 64 66 68 67 52 32 24 30 38 35 73 162 78 94 94 92 118 179 167 82 84 170 
191 166 92 163 241 182 23 56 84 114 205 163 180 132 96 192 215 211 203 202 208 
175 184 176 172 156 172 232 207 50 45 37 89 120 115 173 179 198 197 197 201 
180 181 193 197 192 185 179 184 190 195 201 206 206 207 212 213 212 188 191 
172 160 164 180 176 143 163 175 152 163 88 72 61 90 56 3 13 17 17 89 74 70 63 
64 65 67 58 34 27 29 24 42 89 163 72 89 114 90 113 196 142 87 105 176 178 180 
181 161 194 169 38 29 42 136 220 129 190 129 115 196 204 203 206 199 196 186 
222 213 182 181 196 217 184 29 48 26 48 204 137 159 174 186 191 191 210 188 
174 193 213 200 182 175 187 192 193 201 195 206 198 198 198 206 185 170 190 
188 157 153 169 172 168 139 143 149 144 71 44 35 92 44 14 12 14 81 71 62 59 62 
62 66 54 36 35 28 27 76 105 154 86 94 109 82 98 184 126 92 117 164 179 204 149 
159 168 193 131 90 150 200 150 162 179 101 158 189 195 203 200 200 189 177 212 
201 171 159 160 177 186 98 33 38 114 174 167 187 187 191 196 203 200 187 184 
195 197 189 196 190 177 182 194 202 197 198 201 190 175 180 181 177 169 177 
171 155 157 175 154 162 126 127 129 132 51 16 39 79 21 20 17 81 65 58 53 52 53 
61 53 41 39 37 100 90 75 155 70 65 101 91 88 160 111 95 147 163 203 165 115 
127 136 156 178 184 204 183 174 235 156 92 176 191 197 198 198 191 194 177 190 
186 175 162 165 160 147 141 173 176 169 148 158 176 181 189 189 195 206 204 
192 194 191 200 200 180 174 185 193 199 197 201 196 181 169 170 175 173 172 
154 167 169 148 147 178 159 161 93 113 150 102 30 3 56 45 8 23 82 55 46 45 48 
50 55 56 37 50 84 75 25 95 156 54 60 94 79 72 140 92 95 133 150 161 136 173 
146 126 133 148 156 175 179 196 173 91 98 178 199 203 195 190 190 202 197 182 
193 162 162 178 165 151 140 162 145 155 164 149 165 178 168 167 188 206 200 
191 190 194 204 197 188 181 185 194 200 204 200 202 173 162 164 172 181 182 
185 169 171 178 141 127 168 147 141 62 122 114 80 6 12 64 11 16 70 47 38 38 37 
47 54 54 50 52 65 57 26 113 150 60 46 78 73 65 130 76 98 143 157 127 170 191 
173 167 172 190 201 197 194 179 123 70 117 173 200 203 193 191 191 188 195 194 
197 189 180 170 188 206 198 177 179 180 178 188 187 184 172 167 179 197 190 
197 191 198 189 186 189 175 171 192 199 198 186 181 181 170 175 164 153 181 
186 179 180 172 177 125 140 166 157 95 77 130 82 42 0 46 34 8 64 44 36 35 34 
38 61 54 47 36 55 37 48 117 112 71 35 53 72 66 97 66 101 174 170 124 165 194 
178 190 199 196 185 175 181 180 118 70 137 196 201 202 183 183 193 188 185 196 
204 206 202 190 169 174 195 205 204 190 190 191 182 167 188 191 190 205 203 
199 187 189 188 185 183 176 173 186 194 181 174 166 171 184 180 153 124 111 
165 176 170 168 176 170 133 166 168 128 81 126 91 56 20 14 55 17 57 47 37 36 
37 33 63 47 32 34 53 47 82 104 76 86 35 40 66 65 43 42 112 168 163 161 166 177 
195 190 195 200 159 175 204 194 86 85 164 199 187 184 177 176 196 196 196 199 
211 220 213 216 207 190 187 188 196 190 193 201 173 159 187 197 182 196 205 
186 171 187 185 182 173 170 176 173 183 175 167 161 161 166 178 195 147 89 108 
135 178 164 163 176 166 157 180 148 108 77 124 46 49 2 52 30 52 43 32 32 35 29 
56 47 36 39 58 56 118 57 63 84 33 30 52 50 39 38 120 154 190 185 173 211 214 
213 211 203 186 195 227 171 66 126 178 187 199 188 176 172 180 189 194 201 210 
218 227 221 210 202 222 213 215 204 203 190 191 200 178 187 179 189 200 185 
160 182 185 178 175 168 177 175 180 175 172 171 152 150 180 201 184 151 176 
62 123 166 168 170 175 161 176 166 165 97 144 84 37 26 25 40 50 37 27 24 31 25 
54 37 26 46 33 89 78 34 72 73 26 43 67 40 42 35 117 174 206 190 211 202 201 
207 201 205 200 216 219 131 92 170 179 186 190 193 186 172 170 184 193 192 201 
212 224 233 224 213 221 223 215 215 210 215 196 204 215 204 196 190 201 200 
177 185 181 182 186 169 175 168 180 167 174 179 151 153 180 185 175 157 182 
133 91 131 143 179 180 180 178 181 159 147 137 146 48 46 16 40 40 30 20 21 29 
30 39 36 39 43 61 85 38 51 67 51 39 59 90 23 39 30 104 184 198 219 212 207 221 
217 215 208 213 220 177 93 149 197 191 192 191 187 180 170 166 180 193 206 201 
204 215 222 222 227 228 231 224 220 216 216 227 212 220 228 213 205 201 185 
181 173 177 180 172 175 161 149 144 148 187 149 134 195 208 201 166 142 157 
143 93 147 142 162 196 190 186 194 163 160 148 150 69 67 22 37 29 21 17 22 29 
29 40 43 36 53 91 59 39 61 52 21 59 88 85 31 40 27 101 194 207 222 220 211 202 
208 214 213 220 195 134 116 180 194 201 202 202 193 184 176 160 163 187 206 
231 208 204 217 225 225 222 232 232 228 229 223 224 233 224 217 220 212 198 
192 176 180 174 176 172 172 160 142 117 157 161 145 141 207 228 214 178 190 
149 153 170 95 202 162 204 193 182 203 169 161 172 171 92 68 49 39 27 17 14 14 
26 31 35 40 36 81 60 38 45 45 29 32 51 54 72 48 31 32 102 204 215 225 227 224 
203 195 209 215 195 186 115 154 196 200 212 214 219 207 204 196 163 152 174 
174 219 239 222 214 222 227 222 226 230 227 231 228 220 234 230 221 222 221 
200 190 179 168 183 169 176 173 162 130 116 176 146 201 203 204 221 230 187 
211 108 133 213 128 166 188 194 213 196 205 168 145 184 202 131 64 68 35 29 18 
15 10 23 31 30 58 59 52 55 46 44 35 43 34 23 11 72 49 26 32 90 205 219 226 227 
226 209 206 209 201 201 207 98 187 210 216 226 225 218 216 209 197 169 159 165 
159 194 226 240 231 221 228 226 228 224 224 230 230 227 231 230 226 223 221 
204 190 175 170 178 164 173 170 150 131 128 175 167 202 212 203 218 233 200 
203 196 158 216 165 104 193 199 227 209 214 190 160 169 216 174 80 74 29 23 18 
17 9 19 32 35 68 43 68 44 28 25 45 44 30 32 54 63 40 31 35 80 197 225 223 224 
211 207 210 205 201 233 175 86 200 210 221 231 230 232 227 218 201 174 170 174 
167 169 209 223 238 235 227 227 228 225 224 222 231 231 229 228 224 222 217 
201 186 176 159 166 166 172 165 148 131 139 180 178 220 218 207 226 233 201 
192 220 195 221 218 89 164 211 233 225 225 195 172 162 207 190 100 85 15 24 18 
17 11 19 27 43 45 47 28 26 27 23 32 31 45 57 51 36 45 34 40 69 189 216 218 220 
205 204 205 206 219 229 140 81 180 214 225 233 236 238 230 216 200 175 185 199 
187 163 185 213 218 241 234 232 231 228 226 223 220 229 223 223 222 214 212 
202 190 187 159 161 176 169 167 148 144 148 177 185 232 226 219 235 229 189 
213 233 221 225 245 138 128 230 241 228 229 197 179 174 202 196 111 88 10 23 
19 17 13 17 38 42 45 25 24 34 37 28 27 32 32 32 43 26 36 39 38 64 188 213 214 
205 195 204 210 217 229 169 116 101 133 198 209 221 226 222 214 202 194 193 
207 217 205 181 162 205 203 217 239 233 232 234 225 226 219 225 219 222 221 
214 211 210 192 182 155 171 174 169 161 151 151 142 158 181 217 207 218 236 
219 159 183 242 243 216 230 183 143 232 247 225 230 203 145 172 198 197 132 
119 35 15 17 20 14 18 31 49 44 23 31 53 43 35 32 29 34 35 47 24 30 45 33 70 181 
198 202 198 198 213 223 223 228 124 88 105 93 161 196 202 204 200 196 183 173 
170 169 199 217 187 157 205 221 187 223 234 230 232 231 226 230 226 219 218 
218 213 219 209 191 182 161 162 170 173 162 156 156 149 151 171 204 180 222 
221 183 206 157 217 248 219 210 183 156 241 247 224 223 215 156 149 164 204 
121 116 41 16 17 17 11 19 24 42 38 28 39 37 25 29 35 34 19 24 25 44 88 35 34 
88 178 195 188 192 203 223 228 226 215 172 79 97 44 106 181 184 177 182 174 
161 159 151 159 155 185 165 163 210 220 209 185 228 223 227 228 228 226 220 
216 212 214 211 183 208 194 184 161 160 171 171 157 155 159 147 173 216 229 
198 216 184 181 224 202 172 221 225 200 190 171 253 245 223 221 219 148 129 
145 194 107 85 59 20 20 16 9 18 22 31 28 22 23 45 62 26 27 40 38 46 69 108 68 
27 35 82 183 193 178 186 209 225 228 223 197 185 188 148 90 30 89 143 146 153 
157 183 217 214 227 203 170 172 206 212 205 219 190 194 231 227 229 227 216 
208 203 212 206 211 191 209 207 182 153 161 176 163 160 161 157 140 202 231 
236 207 179 198 178 203 231 220 185 206 213 160 188 255 244 225 209 214 137 
131 169 176 138 72 81 23 20 18 9 18 22 27 28 20 23 20 44 84 85 52 84 128 112 
115 50 27 30 82 185 184 165 191 216 224 222 210 186 174 190 191 170 157 129 
143 174 190 209 183 194 181 189 194 197 214 211 211 203 213 212 182 202 221 
218 217 216 207 196 212 207 214 214 207 198 179 150 158 176 165 164 170 158 
142 219 222 235 199 196 196 160 205 196 232 228 195 207 160 206 255 234 224 
200 202 138 113 186 183 129 60 81 22 17 16 9 15 24 25 27 17 21 21 15 22 66 94 
104 77 64 57 33 24 33 93 189 186 160 192 213 221 214 202 179 178 196 193 186 
195 209 222 214 192 165 170 191 204 186 186 196 194 198 202 201 210 205 188 
167 201 212 215 215 207 203 206 206 212 216 207 199 179 152 162 174 165 172 
170 153 146 207 224 228 198 177 152 183 177 170 199 221 200 199 185 236 246 
222 230 200 200 103 127 195 160 45 78 64 17 16 11 8 14 22 20 23 22 19 21 20 20 
12 8 15 7 26 40 17 26 30 81 192 193 149 186 204 211 197 182 181 193 188 214 
210 195 197 201 198 181 176 200 208 206 197 195 203 208 204 182 180 187 182 
191 175 184 216 213 210 202 206 200 206 211 214 207 196 173 156 170 171 166 
165 168 145 171 207 205 221 184 146 141 171 152 166 184 191 186 185 207 231 
223 217 238 166 166 123 186 192 98 50 65 23 17 16 14 9 13 18 17 23 24 21 22 21 
21 22 20 20 23 55 36 40 39 17 73 194 194 153 180 187 185 191 176 200 187 195 
212 203 195 198 203 203 198 196 207 219 211 202 199 208 214 209 199 197 194 
175 194 209 187 204 217 211 206 205 194 204 213 208 204 192 172 148 167 170 
168 168 171 140 198 229 200 211 189 154 167 187 196 166 141 172 175 181 209 
220 187 226 224 148 193 198 175 113 60 59 24 25 19 14 16 13 14 19 16 16 24 25 
21 21 20 23 22 19 24 52 48 55 18 9 67 183 193 159 173 195 175 198 184 198 189 
184 207 213 189 190 198 209 199 210 217 208 207 210 190 205 210 198 182 205 
210 195 188 193 204 189 212 211 203 205 202 206 209 207 203 186 161 144 161 
167 177 176 161 140 221 240 211 202 189 176 159 85 91 191 196 186 195 203 205 
168 129 210 205 208 150 108 62 14 29 23 26 24 21 15 15 14 16 16 14 16 21 23 21 
21 20 19 23 21 20 29 37 22 12 9 41 170 204 162 168 181 152 179 189 197 191 198 
214 189 181 194 213 208 204 203 200 195 202 191 196 195 192 197 196 208 212 
205 176 178 196 183 191 208 207 206 203 205 209 210 201 184 153 146 158 169 
180 172 153 137 193 237 211 196 163 123 86 100 88 184 202 175 178 182 186 111 
83 158 157 134 55 18 13 26 30 32 30 27 20 14 17 17 17 16 16 18 20 22 25 25 19 
18 26 22 25 39 27 9 10 10 25 142 199 173 176 171 153 169 172 184 180 193 206 
189 196 219 206 208 191 196 204 187 194 192 205 193 171 187 205 193 207 193 
188 193 195 201 197 203 210 202 200 202 206 207 199 172 156 143 154 178 172 
165 150 147 46 177 220 146 52 15 27 34 43 76 134 170 175 179 143 49 70 130 130 
100 27 27 26 30 28 27 29 28 28 18 15 14 20 20 17 16 18 22 24 23 18 18 17 13 17 
22 19 15 7 11 12 113 186 166 172 193 147 139 151 139 168 169 196 192 155 191 
169 190 176 162 189 190 187 176 169 165 185 171 188 185 195 199 196 201 205 
193 206 203 206 205 196 203 206 206 188 169 162 147 154 187 175 166 148 149 
36 21 70 31 15 16 20 17 17 19 35 94 89 76 33 22 40 84 114 33 17 30 24 29 27 26 
30 34 35 21 13 12 19 21 15 16 17 19 21 22 23 18 16 10 9 13 10 11 8 10 6 81 178 
175 170 203 183 134 121 98 129 145 146 155 143 139 134 149 144 126 162 170 149 
130 153 165 143 144 165 181 173 190 178 187 206 200 190 202 210 205 200 204 
199 197 191 181 158 135 168 192 179 163 150 129 85 29 9 17 22 17 18 17 16 22 
17 16 15 14 19 22 21 42 34 19 28 28 24 27 27 24 27 30 34 24 15 11 16 21 17 15 
16 18 24 25 23 20 14 8 7 11 11 7 7 10 4 63 169 179 150 207 206 164 131 104 73 
94 89 64 107 87 116 107 85 102 114 122 107 154 159 156 130 126 154 143 142 154 
181 188 200 202 192 207 207 201 198 202 198 197 192 189 157 138 189 197 178 
158 147 103 49 19 15 20 19 19 17 18 19 15 17 18 17 17 19 22 29 23 22 20 26 26 
27 25 29 27 28 31 34 28 21 11 20 22 17 16 14 16 22 22 23 21 11 8 7 9 11 7 7 9 
4 48 168 183 134 181 218 227 188 128 92 86 57 93 133 132 133 163 135 97 133 
126 139 161 152 145 137 118 126 112 95 114 155 160 205 195 189 210 210 197 199 
204 202 202 199 186 146 154 203 199 174 155 141 51 9 13 15 19 16 22 21 16 16 
17 14 18 17 17 22 21 22 32 24 15 28 24 23 26 27 31 27 33 29 23 21 13 24 22 16 
16 18 20 22 24 24 21 14 8 5 7 7 8 8 6 9 11 136 202 154 153 224 222 217 193 129 
125 88 148 157 149 165 161 169 151 165 164 175 177 174 170 161 161 96 30 53 126 
164 171 209 182 178 213 206 194 199 207 208 209 204 183 133 173 208 194 165 
156 60 6 13 14 12 16 17 16 21 18 19 23 18 16 16 20 22 21 29 20 17 22 21 27 24 
21 27 28 24 35 25 20 18 13 19 23 19 15 17 23 22 22 23 22 17 8 4 6 7 8 8 8 10 
0 81 198 184 133 210 224 218 205 193 135 98 170 166 167 172 179 184 160 182 
173 184 166 183 191 170 150 67 54 128 164 167 177 175 161 192 217 200 188 202 
209 211 213 205 183 138 205 205 186 171 70 0 16 12 13 9 14 18 21 23 21 22 22 
21 18 23 19 22 26 19 17 22 22 20 29 28 27 24 21 35 72 24 16 17 14 16 20 17 15 
17 21 26 24 22 23 19 13 8 5 7 6 6 8 10 6 30 165 215 159 170 228 214 195 217 
121 98 180 181 175 175 188 156 176 174 176 176 168 186 171 167 123 93 130 176 
176 198 216 183 169 201 214 195 186 205 213 213 211 207 170 161 216 196 195 
96 2 14 17 15 9 15 19 16 21 20 24 19 18 22 19 17 17 22 24 16 18 23 28 25 21 23 
29 27 27 66 91 20 15 11 10 12 17 15 14 17 21 24 21 22 22 21 13 8 6 6 7 6 6 7 10 
3 96 209 205 143 219 218 220 228 106 77 192 181 183 178 183 175 171 173 175 
156 165 189 170 136 106 128 169 174 196 221 219 192 169 202 209 190 189 209 
216 216 214 209 164 197 211 196 92 8 23 16 12 12 10 18 17 22 22 21 27 18 20 19 
15 18 25 21 21 22 25 24 21 28 20 26 18 25 63 77 111 22 16 13 10 10 16 16 16 19 
19 22 20 19 23 19 18 11 9 9 7 8 8 7 8 8 28 169 223 152 186 235 221 232 113 77 
207 194 188 188 172 180 170 186 177 153 179 214 182 121 152 172 160 175 205 
220 215 200 175 208 213 190 193 215 216 214 216 197 160 225 216 88 4 22 20 20 
18 16 17 19 17 21 24 22 22 21 17 15 20 27 23 25 25 23 24 24 17 21 23 21 22 67 
103 93 129 24 17 13 10 13 17 21 20 21 20 18 17 20 23 21 19 15 10 10 8 8 7 6 5 
12 6 80 209 196 146 232 221 231 133 45 201 225 192 190 185 185 173 161 171 152 
186 198 160 109 163 155 158 186 217 217 210 209 182 206 215 186 199 221 219 
216 219 169 186 241 99 5 23 20 17 20 18 18 17 19 20 25 30 26 23 21 12 16 25 22 
18 22 24 22 23 32 22 16 20 20 51 83 96 120 125 26 19 17 15 20 20 22 16 19 20 
21 22 22 23 22 20 18 13 10 9 8 8 7 7 9 11 11 145 230 152 210 228 234 145 16 176 
205 192 182 195 166 174 169 161 155 205 199 120 132 160 145 168 203 217 214 
216 215 191 209 219 180 207 223 223 217 201 163 240 117 5 20 22 20 19 19 17 17 
19 20 22 26 27 25 22 17 25 33 22 23 22 19 23 23 23 31 24 17 13 61 84 72 100 
127 130 29 24 24 21 23 18 24 25 25 29 26 23 21 22 22 21 18 16 13 13 13 10 7 7 
7 9 0 44 218 180 183 235 227 186 24 163 213 204 200 197 173 175 172 157 160 
204 176 132 147 149 158 203 212 183 209 220 220 211 215 209 170 220 225 222 
212 170 211 111 6 22 19 18 19 17 21 21 19 21 20 24 23 25 28 20 28 38 32 22 25 
20 30 29 25 23 29 35 15 50 94 84 107 151 122 112 31 27 25 25 30 38 42 42 34 28 
24 23 22 22 21 19 21 20 15 15 15 15 14 7 5 5 9 3 149 210 145 232 222 201 26 136 
217 201 204 198 169 172 166 158 162 196 150 124 147 150 193 206 206 186 214 
219 219 220 220 202 181 223 223 218 197 171 100 2 27 21 19 20 20 21 25 23 20 
21 20 26 25 27 26 24 30 32 24 26 29 28 28 22 22 28 25 21 43 94 114 97 115 126 
134 128 29 28 37 49 55 50 56 52 35 29 25 23 23 23 22 23 22 21 17 16 18 18 13 
10 7 3 8 0 53 224 144 210 223 214 30 109 216 218 207 184 165 176 159 157 179 
212 135 140 155 188 205 196 202 211 220 220 225 224 228 201 199 225 216 218 
163 52 11 25 27 21 22 23 24 25 23 24 20 20 25 31 23 27 31 32 27 26 29 32 29 27 
24 28 29 29 20 51 96 115 118 123 133 121 113 127 49 65 74 71 63 61 64 59 43 35 
26 23 22 22 23 23 21 19 21 17 20 21 17 10 6 5 4 9 0 161 181 169 227 217 54 67 
202 205 218 194 160 193 165 147 182 179 135 160 189 198 202 211 214 219 226 
226 225 229 229 193 216 223 224 188 37 8 22 23 22 18 22 21 21 23 30 27 24 23 
27 34 28 32 41 37 29 32 27 34 35 28 25 23 37 33 38 92 92 105 108 121 114 140 
153 120 86 86 85 80 81 73 71 68 48 40 30 24 23 23 25 26 26 24 21 19 23 20 19 
15 7 3 5 8 1 50 198 135 218 219 96 11 162 206 207 184 164 190 157 165 185 155 
134 188 198 197 212 221 216 225 229 228 227 232 216 196 225 227 206 54 16 22 
19 22 20 22 23 25 22 23 28 26 23 25 24 28 35 38 35 32 30 32 33 37 34 29 28 30 
30 42 84 100 121 114 116 109 108 136 141 135 95 91 93 92 84 83 83 68 56 46 35 
30 23 18 22 27 24 22 22 21 20 22 19 17 14 6 4 8 11 0 145 125 184 220 167 0 91 
201 206 197 177 173 162 188 173 139 156 192 200 210 222 222 224 228 231 232 
230 229 183 213 239 214 61 15 31 14 18 18 23 25 27 25 27 28 25 25 20 24 22 34 
39 27 35 38 37 29 40 33 32 38 32 31 30 83 90 103 132 113 134 120 115 143 103 
117 97 91 91 94 90 91 85 77 62 51 37 29 20 16 23 25 23 18 19 21 21 21 21 18 17 
15 6 7 10 3 47 122 130 210 213 71 16 164 210 202 170 177 179 179 146 139 209 
215 219 219 222 224 229 231 233 233 232 217 193 244 210 56 19 26 21 17 16 21 
19 22 23 26 25 29 25 22 28 27 29 30 32 36 34 41 35 34 47 41 42 42 31 32 82 98 
132 141 145 137 128 121 116 131 130 107 93 95 97 99 96 96 89 76 68 53 37 31 22 
17 23 22 21 22 19 20 21 19 19 20 17 17 14 8 12 17 5 79 79 173 213 163 0 104 
197 180 173 193 190 166 130 190 222 217 222 218 219 227 228 235 234 232 228 
205 234 191 37 14 35 23 24 20 14 23 21 23 25 27 26 29 24 25 29 28 40 41 36 39 
42 38 33 38 33 42 39 32 26 91 124 132 150 154 144 128 138 136 127 129 102 109 
92 98 95 98 100 100 90 86 72 61 48 36 23 17 20 21 21 21 19 21 22 18 21 21 19 
17 20 11 8 14 8 18 50 101 190 209 65 10 170 182 189 199 193 147 166 223 218 
221 215 213 218 224 229 235 233 229 222 222 143 23 21 27 26 24 22 18 17 14 18 
23 29 27 26 27 26 26 33 43 41 44 43 40 45 37 36 32 28 33 32 31 63 124 133 149 
150 131 114 124 143 123 141 112 100 100 95 96 91 93 102 97 100 96 84 64 57 43 
25 22 19 18 22 21 20 22 20 20 22 22 22 19 21 17 11 10 12 10 20 23 117 204 180 
9 69 177 176 187 156 142 222 224 224 223 219 215 219 227 232 231 225 241 211 
90 10 22 21 20 24 21 17 16 17 21 16 26 28 25 27 27 26 30 38 47 49 37 45 47 38 
32 36 31 31 29 22 59 95 96 122 118 143 133 105 126 127 117 123 105 93 87 105 
95 99 100 101 95 98 102 86 67 70 53 35 24 20 17 19 22 24 22 18 24 22 20 21 20 
20 22 23 10 9 9 9 12 23 149 209 128 0 44 100 107 117 208 226 226 226 221 225 
224 225 233 232 227 245 192 54 9 21 21 15 18 21 18 14 13 14 19 16 21 26 27 28 
28 32 37 35 37 38 40 41 36 35 36 34 28 29 22 42 105 126 137 119 146 140 96 134 
139 119 139 123 92 89 65 102 100 94 103 99 89 98 98 90 79 78 57 45 29 23 22 21 
21 25 22 20 23 22 23 21 21 18 22 21 12 8 8 7 10 2 41 175 185 134 58 66 116 210 
238 222 225 223 228 231 230 228 230 236 241 152 32 20 25 17 24 18 17 21 20 20 
18 14 26 21 25 25 26 29 29 39 37 38 40 45 42 39 43 43 32 29 24 18 56 99 107 
121 135 130 137 118 96 133 136 120 126 110 106 70 54 103 103 97 94 95 91 104 
111 100 85 84 68 50 34 25 24 19 18 19 21 19 17 20 19 16 16 16 19 22 22 9 9 8 9 
11 0 73 177 187 209 227 241 228 226 225 221 224 228 226 220 228 241 213 101 
20 27 25 20 23 22 21 18 22 21 23 21 17 21 28 31 25 24 32 41 31 30 37 45 45 42 
40 42 40 34 35 27 37 73 111 124 127 111 131 134 111 120 151 139 142 103 110 
93 61 49 107 101 103 98 92 90 100 110 94 101 87 57 35 23 22 22 17 20 16 17 16 
14 16 17 18 17 22 23 23 24 18 8 8 9 9 8 6 98 180 176 202 200 219 220 208 206 
207 207 212 226 244 168 47 23 29 27 27 21 20 20 18 17 21 23 20 23 19 25 27 27 
24 26 40 41 34 38 46 46 40 40 43 35 38 32 32 31 73 92 124 132 142 134 169 135 
126 121 122 136 111 118 93 61 51 40 97 104 93 100 97 95 98 97 95 79 40 23 19 
18 25 23 24 24 20 22 19 16 17 20 23 18 18 24 22 22 25 17 5 6 8 9 16 13 111 157 
196 195 195 208 196 190 187 185 214 214 112 20 26 35 28 29 29 19 21 17 17 19 
19 22 21 22 20 17 23 25 25 42 39 36 40 42 45 44 47 44 40 33 30 29 30 68 109 
100 117 136 151 150 125 130 136 137 124 112 110 97 65 69 44 38 104 107 98 97 
93 95 105 100 54 28 19 23 24 20 24 23 24 23 22 23 20 16 20 20 23 23 23 22 23 
25 22 21 13 7 7 6 18 12 11 62 102 149 162 177 194 185 167 175 158 58 10 30 27 
27 31 30 23 17 20 19 18 19 19 24 26 21 21 22 24 33 40 32 31 40 44 40 44 42 48 
43 38 35 29 30 64 114 122 121 133 145 139 157 133 105 140 145 140 120 110 71 
50 67 40 47 100 103 101 89 95 111 82 37 21 29 27 21 22 25 19 25 22 21 20 22 19 
17 18 20 23 22 18 17 20 20 19 14 33 19 7 5 8 0 4 7 12 38 37 60 81 97 102 60 22 
19 26 25 24 24 28 29 23 16 17 20 23 19 20 25 24 25 22 21 22 43 40 43 37 46 42 
41 48 50 40 37 34 36 25 67 115 104 127 150 137 150 138 141 142 124 141 128 141 
120 85 58 78 52 53 63 97 97 98 101 99 68 26 25 26 27 27 20 24 22 22 24 24 22 
21 21 18 19 19 19 21 19 16 17 20 15 13 34 56 67 12 35 161 97 7 0 7 80 162 161 
153 152 77 12 25 22 22 21 20 24 24 26 25 19 22 20 20 19 24 25 25 28 23 23 32 
30 41 44 45 42 39 44 46 44 39 36 40 21 69 117 121 121 109 139 144 136 124 146 
145 108 132 116 110 102 85 78 72 38 59 70 97 96 104 94 44 24 29 27 24 27 25 21 
25 23 23 23 22 22 24 23 19 18 16 21 22 17 17 17 16 12 23 47 63 95 35 111 248 
251 220 140 14 0 41 155 192 77 10 21 23 20 23 20 20 21 22 21 22 20 21 21 20 22 
24 25 25 26 25 30 35 33 38 39 35 41 45 41 41 43 42 42 30 64 123 115 125 146 
143 144 130 151 130 120 106 132 137 134 94 113 74 79 46 40 70 72 95 108 89 31 
26 30 28 26 27 25 25 21 22 23 22 23 23 20 21 21 15 16 18 24 20 16 16 15 12 17 
47 53 74 103 45 193 255 226 179 163 85 52 118 28 22 9 19 19 23 22 19 20 23 22 
23 24 22 22 21 21 20 19 20 25 28 20 29 29 35 33 32 42 38 44 43 42 42 38 34 28 
40 106 131 125 141 128 146 134 126 136 144 120 108 105 101 146 120 89 66 64 39 
58 69 86 104 82 34 25 25 26 27 29 28 27 26 25 23 22 20 22 28 20 23 17 15 19 18 
20 19 17 14 15 14 25 52 78 88 58 114 249 135 96 62 75 88 159 185 25 18 23 19 
23 23 23 19 20 23 22 22 23 22 19 21 21 20 18 20 21 24 28 26 36 35 35 40 39 40 
45 40 39 37 35 37 37 78 101 108 143 144 109 133 153 137 125 130 91 125 120 87 
107 111 80 75 55 43 71 71 105 82 33 27 28 27 26 27 28 26 28 27 25 23 20 21 23 
26 20 20 15 16 21 18 16 20 14 14 11 14 26 53 85 92 60 212 96 31 95 93 92 99 67 
11 17 25 17 14 22 31 26 19 22 20 19 20 19 20 22 20 18 17 22 17 18 28 32 34 36 
32 39 39 41 42 39 46 35 36 36 34 77 104 123 111 128 142 108 134 147 133 130 
122 91 131 93 111 100 106 78 67 38 52 69 82 116 
