<?xml version="1.0" standalone="no"?>
<!DOCTYPE svg PUBLIC "-//W3C//DTD SVG 1.1//EN" "http://www.w3.org/Graphics/SVG/1.1/DTD/svg11.dtd" >
<svg xmlns="http://www.w3.org/2000/svg" xmlns:xlink="http://www.w3.org/1999/xlink" version="1.1">
<metadata>
Created by FontForge 20170731 at Mon Jan  8 20:09:31 2018
 By Aleksey,,,
Copyright (c) 2017 Marc Rouault / W+K. All rights reserved.
</metadata>
<defs>
<font id="Formula1-Display-Regular" horiz-adv-x="850" >
  <font-face 
    font-family="Formula1 Display Regular"
    font-weight="400"
    font-stretch="normal"
    units-per-em="1000"
    panose-1="2 0 0 0 0 0 0 0 0 0"
    ascent="850"
    descent="-150"
    x-height="600"
    cap-height="750"
    bbox="-150 -190 1473 1016"
    underline-thickness="0"
    underline-position="0"
    unicode-range="U+0020-F6C3"
  />
<missing-glyph horiz-adv-x="0" 
 />
    <glyph glyph-name=".notdef" horiz-adv-x="0" 
 />
    <glyph glyph-name=".null" horiz-adv-x="0" 
 />
    <glyph glyph-name="nonmarkingreturn" horiz-adv-x="333" 
 />
    <glyph glyph-name="space" unicode=" " horiz-adv-x="260" 
 />
    <glyph glyph-name="exclam" unicode="!" horiz-adv-x="266" 
d="M70 750h126l-13 -550h-100zM71 0v125h125v-125h-125z" />
    <glyph glyph-name="quotedbl" unicode="&#x22;" horiz-adv-x="450" 
d="M150 470h-80v280h120zM340 470h-80v280h120z" />
    <glyph glyph-name="numbersign" unicode="#" horiz-adv-x="833" 
d="M720 303v-93h-172l-55 -210h-105l55 210h-140l-55 -210h-105l55 210h-148v93h172l45 173h-154v94h178l52 200h105l-52 -200h140l52 200h105l-52 -200h142v-94h-166l-45 -173h148zM327 303h140l45 173h-140z" />
    <glyph glyph-name="dollar" unicode="$" horiz-adv-x="722" 
d="M324 -100v100h-259v100h259v240l-74 20q-98 27 -151.5 72t-53.5 129t63.5 136.5t193.5 52.5h22v100h100v-100h228v-100h-228v-227l47 -13q99 -28 152.5 -74.5t53.5 -129.5q0 -93 -62.5 -149.5t-190.5 -56.5v-100h-100zM281 464l43 -12v198h-35q-72 0 -99.5 -25t-27.5 -59
q0 -39 25.5 -61t93.5 -41zM440 308l-16 4v-212h11q66 0 96.5 26t30.5 70q0 46 -25.5 69.5t-96.5 42.5z" />
    <glyph glyph-name="percent" unicode="%" horiz-adv-x="858" 
d="M40 554v57q0 69 44.5 110.5t111.5 41.5h70q63 0 109.5 -41.5t46.5 -110.5v-57q0 -69 -46.5 -110.5t-109.5 -41.5h-70q-67 0 -111.5 41.5t-44.5 110.5zM562 419h-113l195 331h114zM144 603v-45q0 -32 15 -52t47 -20h49q35 0 49 20t14 52v45q0 34 -14 55t-49 21h-49
q-32 0 -47 -21t-15 -55zM436 140v57q0 69 44.5 110.5t111.5 41.5h70q63 0 109.5 -41.5t46.5 -110.5v-57q0 -69 -46.5 -110.5t-109.5 -41.5h-70q-67 0 -111.5 41.5t-44.5 110.5zM299 331h113l-195 -331h-114zM540 189v-45q0 -32 15 -52t47 -20h49q35 0 49 20t14 52v45
q0 34 -14 55t-49 21h-49q-32 0 -47 -21t-15 -55z" />
    <glyph glyph-name="ampersand" unicode="&#x26;" horiz-adv-x="858" 
d="M699 0l-102 116l-16 -20q-45 -57 -89.5 -76.5t-120.5 -19.5h-113q-104 0 -156 47.5t-52 139.5v63q0 89 58 138.5t157 49.5h49l-39 44q-27 31 -38 60t-11 60q0 59 44 103.5t128 44.5h301v-105h-301q-29 0 -44 -14.5t-15 -37.5q0 -13 4.5 -23.5t14.5 -21.5l236 -268
l121 151h133l-184 -231l176 -200h-141zM376 102q48 0 70.5 11.5t46.5 41.5l33 41l-126 144h-154q-43 0 -62 -17.5t-19 -60.5v-78q0 -44 21 -63t54 -19h136z" />
    <glyph glyph-name="quotesingle" unicode="'" horiz-adv-x="260" 
d="M150 470h-80v280h120z" />
    <glyph glyph-name="parenleft" unicode="(" horiz-adv-x="367" 
d="M90 6v569q0 91 47 133t126 42h44v-95h-39q-37 0 -52.5 -17.5t-15.5 -63.5v-568q0 -45 15.5 -63t52.5 -18h39v-95h-44q-79 0 -126 42.5t-47 133.5z" />
    <glyph glyph-name="parenright" unicode=")" horiz-adv-x="367" 
d="M277 6q0 -91 -47 -133.5t-126 -42.5h-44v95h39q37 0 52.5 18t15.5 63v568q0 46 -15.5 63.5t-52.5 17.5h-39v95h44q79 0 126 -42t47 -133v-569z" />
    <glyph glyph-name="asterisk" unicode="*" horiz-adv-x="523" 
d="M351 378l-89 132l-89 -132l-67 44l85 111h-131v76h130l-84 111l67 44l89 -132l89 132l66 -44l-84 -111h130v-76h-130l84 -111z" />
    <glyph glyph-name="plus" unicode="+" horiz-adv-x="546" 
d="M50 325v100h173v173h100v-173h173v-100h-173v-173h-100v173h-173z" />
    <glyph glyph-name="comma" unicode="," horiz-adv-x="276" 
d="M43 -130q13 41 20.5 66t11 42t4.5 30.5t1 31.5v115h112v-115q0 -18 -1 -32t-5 -31t-12.5 -42t-22.5 -65h-108z" />
    <glyph glyph-name="hyphen" unicode="-" horiz-adv-x="336" 
d="M50 252v100h236v-100h-236z" />
    <glyph glyph-name="period" unicode="." horiz-adv-x="265" 
d="M70 0v125h125v-125h-125z" />
    <glyph glyph-name="slash" unicode="/" horiz-adv-x="330" 
d="M210 750h110l-200 -860h-110z" />
    <glyph glyph-name="zero" unicode="0" horiz-adv-x="800" 
d="M745 315q0 -74 -19.5 -134.5t-59.5 -103t-102.5 -66t-148.5 -23.5h-30q-86 0 -149 23.5t-103 66t-59 103t-19 134.5v120q0 75 19 135.5t59 103.5t103 66t149 23h30q86 0 148.5 -23t102.5 -66t59.5 -103.5t19.5 -135.5v-120zM180 288q0 -100 44 -150t146 -50h60
q103 0 146.5 50t43.5 150v175q0 101 -43.5 150.5t-146.5 49.5h-60q-102 0 -146 -49.5t-44 -150.5v-175z" />
    <glyph glyph-name="one" unicode="1" horiz-adv-x="627" 
d="M45 0v100h227v517q0 16 -7.5 24.5t-22.5 8.5h-174v100h192q67 0 97 -33t30 -99v-518h200v-100h-542z" />
    <glyph glyph-name="two" unicode="2" horiz-adv-x="728" 
d="M673 100v-100h-617v123q0 63 30.5 111t99.5 88l296 168q40 22 59.5 42t19.5 51q0 27 -18 47t-64 20h-414v100h418q103 0 150.5 -46.5t47.5 -118.5q0 -73 -38 -111.5t-97 -70.5l-306 -168q-32 -17 -50.5 -40t-18.5 -51v-44h502z" />
    <glyph glyph-name="three" unicode="3" horiz-adv-x="709" 
d="M171 435l280 215h-411v100h606v-80l-316 -244h88q116 0 173.5 -43.5t57.5 -122.5v-83q0 -104 -68.5 -140.5t-199.5 -36.5h-331v100h364q70 0 96.5 21t26.5 62v53q0 41 -26.5 67.5t-98.5 26.5h-208q-25 0 -42 10.5t-21 25.5q-5 18 2 35.5t28 33.5z" />
    <glyph glyph-name="four" unicode="4" horiz-adv-x="797" 
d="M160 148q-67 0 -96 30.5t-29 74.5q0 27 11.5 52t36.5 53l259 297q51 59 89 83.5t83 24.5h7q59 0 91 -36t32 -113v-364h118v-102h-118v-148h-115v148h-369zM185 250h344v378q0 16 -5.5 24t-20.5 8q-12 0 -21.5 -7.5t-19.5 -19.5l-292 -330q-8 -9 -11.5 -15t-3.5 -15
q0 -11 7 -17t23 -6z" />
    <glyph glyph-name="five" unicode="5" horiz-adv-x="714" 
d="M430 449q112 0 170.5 -43.5t58.5 -159.5v-50q0 -110 -71.5 -153t-199.5 -43h-314v100h342q68 0 98 23t30 67v69q0 42 -30 66t-98 24h-342v401h585v-100h-470v-201h241z" />
    <glyph glyph-name="six" unicode="6" horiz-adv-x="743" 
d="M474 439q112 0 170.5 -43.5t58.5 -159.5v-53q0 -110 -71.5 -153t-199.5 -43h-63q-169 0 -241.5 68.5t-72.5 221.5v145q0 75 18.5 135.5t58 103.5t102.5 66t151 23h295v-100h-310q-110 0 -155 -49.5t-45 -150.5v-11h304zM354 87h97q81 0 111.5 23t30.5 67v72
q0 42 -22.5 66t-90.5 24h-310v-89q0 -97 42 -130t142 -33z" />
    <glyph glyph-name="seven" unicode="7" horiz-adv-x="692" 
d="M283 0h-132l378 598q6 9 9 16.5t3 15.5q0 10 -7 15t-20 5h-478v100h497q64 0 93.5 -27t29.5 -76q0 -24 -10.5 -52.5t-28.5 -57.5z" />
    <glyph glyph-name="eight" unicode="8" horiz-adv-x="753" 
d="M76 566q0 47 13 82t45.5 57.5t87.5 33.5t137 11h35q82 0 137 -11t87.5 -33.5t45.5 -57.5t13 -82v-27q0 -60 -27 -100.5t-93 -59.5q74 -19 107.5 -57.5t33.5 -94.5v-39q0 -90 -63.5 -139t-220.5 -49h-75q-157 0 -220.5 49t-63.5 139v36q0 59 33.5 98t106.5 57
q-66 20 -92.5 60t-26.5 100v27zM562 556q0 49 -34 71.5t-100 22.5h-103q-66 0 -100 -22.5t-34 -71.5v-37q0 -49 31.5 -70t101.5 -21h105q70 0 101.5 21t31.5 70v37zM583 234q0 44 -36 71t-118 27h-105q-90 0 -122 -27t-32 -71v-37q0 -22 6.5 -40t24 -30.5t48.5 -19.5t80 -7
h95q90 0 124.5 27t34.5 70v37z" />
    <glyph glyph-name="nine" unicode="9" horiz-adv-x="743" 
d="M269 311q-112 0 -170.5 43.5t-58.5 159.5v53q0 110 71.5 153t199.5 43h63q169 0 241.5 -68.5t72.5 -221.5v-145q0 -75 -18.5 -135.5t-58 -103.5t-102.5 -66t-151 -23h-295v100h310q110 0 155 49.5t45 150.5v11h-304zM263 411h310v89q0 97 -42 130t-142 33h-97
q-81 0 -111.5 -23t-30.5 -67v-72q0 -42 22.5 -66t90.5 -24z" />
    <glyph glyph-name="colon" unicode=":" horiz-adv-x="265" 
d="M70 0v125h125v-125h-125zM70 475v125h125v-125h-125z" />
    <glyph glyph-name="semicolon" unicode=";" horiz-adv-x="283" 
d="M75 475v125h125v-125h-125zM45 -130q13 41 20.5 66t11 42t4.5 30.5t1 31.5v115h112v-115q0 -18 -1 -32t-5 -31t-12.5 -42t-22.5 -65h-108z" />
    <glyph glyph-name="less" unicode="&#x3c;" horiz-adv-x="461" 
d="M371 258v-123l-254 168q-25 16 -36 34t-11 34v9q0 16 11 34t36 34l254 168v-123l-191 -117z" />
    <glyph glyph-name="equal" unicode="=" horiz-adv-x="506" 
d="M50 425v100h406v-100h-406zM50 225v100h406v-100h-406z" />
    <glyph glyph-name="greater" unicode="&#x3e;" horiz-adv-x="461" 
d="M344 303l-254 -168v123l191 118l-191 117v123l254 -168q25 -16 36 -34t11 -34v-9q0 -16 -11 -34t-36 -34z" />
    <glyph glyph-name="question" unicode="?" horiz-adv-x="626" 
d="M576 512q0 -123 -74.5 -183.5t-220.5 -60.5h-111v100h150q83 0 115.5 40.5t32.5 100.5q0 63 -35 102t-123 39h-260v100h231q146 0 220.5 -59.5t74.5 -178.5zM170 0v125h125v-125h-125z" />
    <glyph glyph-name="at" unicode="@" horiz-adv-x="893" 
d="M82 613v97h416q157 0 236 -81t79 -217v-412h-478q-125 0 -190 44.5t-65 151.5v80q0 87 49 143t166 56h283v-383h125v328q0 93 -50.5 143t-154.5 50h-416zM292 92h176v293h-176q-57 0 -79.5 -23t-22.5 -76v-93q0 -53 22.5 -77t79.5 -24z" />
    <glyph glyph-name="A" unicode="A" horiz-adv-x="860" 
d="M725 0l-86 202h-420l-86 -202h-123l283 640q24 54 51.5 88.5t85.5 34.5q57 0 85.5 -33t48.5 -79l286 -651h-125zM399 626l-135 -318h330l-135 317q-7 18 -14 24.5t-16 6.5t-15.5 -5.5t-14.5 -24.5z" />
    <glyph glyph-name="B" unicode="B" horiz-adv-x="780" 
d="M429 750q133 0 205 -38.5t72 -148.5v-35q0 -48 -24 -86.5t-89 -59.5q72 -23 102 -66t30 -92v-37q0 -110 -73.5 -148.5t-214.5 -38.5h-347v750h339zM468 650h-263v-226h261q66 0 93 23.5t27 70.5v47q0 43 -27.5 64t-90.5 21zM485 324h-280v-224h281q68 0 93.5 21.5
t25.5 64.5v47q0 40 -25.5 65.5t-94.5 25.5z" />
    <glyph glyph-name="C" unicode="C" horiz-adv-x="756" 
d="M716 100v-100h-331q-88 0 -151 23t-102.5 66t-58 103.5t-18.5 135.5v94q0 75 18.5 135.5t58 103.5t102.5 66t151 23h326v-100h-341q-104 0 -147 -49.5t-43 -150.5v-150q0 -101 43 -150.5t147 -49.5h346z" />
    <glyph glyph-name="D" unicode="D" horiz-adv-x="815" 
d="M430 750q168 0 259 -83t91 -232v-120q0 -149 -89.5 -232t-265.5 -83h-335v750h340zM445 650h-240v-550h235q104 0 159.5 43.5t55.5 144.5v175q0 101 -54.5 144t-155.5 43z" />
    <glyph glyph-name="E" unicode="E" horiz-adv-x="758" 
d="M90 0v750h601v-100h-486v-219h486v-100h-486v-231h486v-100h-601z" />
    <glyph glyph-name="F" unicode="F" horiz-adv-x="738" 
d="M90 0v750h601v-100h-486v-219h486v-100h-486v-331h-115z" />
    <glyph glyph-name="G" unicode="G" horiz-adv-x="830" 
d="M744 750v-100h-374q-104 0 -147 -49.5t-43 -150.5v-162q0 -101 42 -151t143 -50h110q107 0 146 23.5t39 88.5v122h-232v100h347v-204q0 -71 -18 -116t-55.5 -70t-97.5 -34.5t-144 -9.5h-80q-84 0 -145.5 23t-101.5 66t-59 103.5t-19 135.5v107q0 75 18.5 135.5t58 103.5
t102.5 66t151 23h359z" />
    <glyph glyph-name="H" unicode="H" horiz-adv-x="885" 
d="M90 0v750h115v-315h475v315h115v-750h-115v330h-475v-330h-115z" />
    <glyph glyph-name="I" unicode="I" horiz-adv-x="315" 
d="M100 0v750h115v-750h-115z" />
    <glyph glyph-name="J" unicode="J" horiz-adv-x="630" 
d="M55 0v107h230q75 0 107.5 39.5t32.5 110.5v493h115v-485q0 -119 -67 -192t-213 -73h-205z" />
    <glyph glyph-name="K" unicode="K" horiz-adv-x="785" 
d="M90 0v750h115v-319h54q49 0 72.5 10t51.5 42l238 267h141l-329 -367l342 -383h-148l-244 269q-29 31 -52 41.5t-72 10.5h-54v-321h-115z" />
    <glyph glyph-name="L" unicode="L" horiz-adv-x="671" 
d="M90 0v750h115v-650h446v-100h-561z" />
    <glyph glyph-name="M" unicode="M" horiz-adv-x="1141" 
d="M45 0l115 630q12 66 42 99.5t87 33.5q63 0 93.5 -40.5t44.5 -100.5l122 -515q3 -13 6.5 -20.5t11.5 -7.5q9 0 12 7t6 20l124 516q14 60 47 100.5t92 40.5q62 0 92.5 -33.5t42.5 -99.5l113 -630h-122l-104 635q-2 15 -7 21t-13 6q-9 0 -15 -6t-10 -22l-122 -514
q-15 -64 -44.5 -98.5t-91.5 -34.5q-64 0 -92 37.5t-41 91.5l-121 517q-4 17 -9 23t-14 6q-8 0 -14 -6t-8 -21l-106 -635h-117z" />
    <glyph glyph-name="N" unicode="N" horiz-adv-x="970" 
d="M90 0v610q0 64 32 108.5t106 44.5q52 0 86 -30t69 -87l320 -517q9 -14 18 -23t18 -9q12 0 19 8.5t7 24.5v620h115v-617q0 -66 -33.5 -106t-98.5 -40q-55 0 -88.5 29t-63.5 77l-327 525q-10 16 -17 25.5t-19 9.5q-15 0 -21.5 -10t-6.5 -27v-616h-115z" />
    <glyph glyph-name="O" unicode="O" horiz-adv-x="870" 
d="M815 315q0 -74 -19.5 -134.5t-59.5 -103t-102.5 -66t-148.5 -23.5h-100q-86 0 -149 23.5t-103 66t-59 103t-19 134.5v120q0 75 19 135.5t59 103.5t103 66t149 23h100q86 0 148.5 -23t102.5 -66t59.5 -103.5t19.5 -135.5v-120zM180 288q0 -100 44 -150t146 -50h130
q103 0 146.5 50t43.5 150v175q0 101 -43.5 150.5t-146.5 49.5h-130q-102 0 -146 -49.5t-44 -150.5v-175z" />
    <glyph glyph-name="P" unicode="P" horiz-adv-x="786" 
d="M746 542v-44q0 -61 -22.5 -101.5t-60.5 -64t-87.5 -33t-103.5 -9.5h-267v-290h-115v750h382q54 0 103.5 -9.5t87.5 -33t60.5 -64t22.5 -101.5zM626 496v48q0 54 -29.5 80t-106.5 26h-285v-260h285q77 0 106.5 26t29.5 80z" />
    <glyph glyph-name="Q" unicode="Q" 
d="M530 -150l-115 138h-30q-86 0 -149 23.5t-103 66t-59 103t-19 134.5v120q0 75 19 135.5t59 103.5t103 66t149 23h100q86 0 148.5 -23t102.5 -66t59.5 -103.5t19.5 -135.5v-120q0 -134 -64.5 -221t-203.5 -103l118 -141h-135zM180 288q0 -100 44 -150t146 -50h130
q103 0 146.5 50t43.5 150v175q0 101 -43.5 150.5t-146.5 49.5h-130q-102 0 -146 -49.5t-44 -150.5v-175z" />
    <glyph glyph-name="R" unicode="R" horiz-adv-x="803" 
d="M740 0h-140l-296 321q-15 16 -20.5 36t-0.5 37q5 16 21.5 27.5t41.5 11.5h173q65 0 90.5 20t25.5 74v31q0 54 -25.5 73t-90.5 19h-314v-650h-115v750h404q55 0 102.5 -9t82.5 -31t54.5 -59.5t19.5 -94.5v-27q0 -114 -69.5 -154t-194.5 -40h-49z" />
    <glyph glyph-name="S" unicode="S" horiz-adv-x="722" 
d="M440 308l-190 52q-98 27 -151.5 72t-53.5 129t63.5 136.5t193.5 52.5h350v-100h-363q-72 0 -99.5 -25t-27.5 -59q0 -39 25.5 -61t93.5 -41l190 -54q99 -28 152.5 -74.5t53.5 -129.5q0 -93 -62.5 -149.5t-190.5 -56.5h-359v100h370q66 0 96.5 26t30.5 70q0 46 -25.5 69.5
t-96.5 42.5z" />
    <glyph glyph-name="T" unicode="T" horiz-adv-x="745" 
d="M315 0v650h-300v100h715v-100h-300v-650h-115z" />
    <glyph glyph-name="U" unicode="U" horiz-adv-x="880" 
d="M370 -13q-146 0 -213 59t-67 187v517h115v-525q0 -70 35.5 -104t110.5 -34h180q71 0 107.5 34t36.5 104v525h115v-517q0 -128 -68 -187t-222 -59h-130z" />
    <glyph glyph-name="V" unicode="V" horiz-adv-x="810" 
d="M164 750l212 -612q6 -18 12.5 -24.5t15.5 -6.5t15.5 5.5t13.5 24.5l221 613h126l-238 -642q-20 -54 -48.5 -87.5t-85.5 -33.5q-59 0 -89.5 32t-47.5 78l-241 653h134z" />
    <glyph glyph-name="W" unicode="W" horiz-adv-x="1232" 
d="M155 750l172 -622q4 -14 9 -20.5t14 -6.5t13 5t8 21l115 493q15 64 42 103.5t89 39.5q64 0 91 -41.5t41 -103.5l113 -489q4 -17 8.5 -22.5t14.5 -5.5q8 0 12.5 6.5t8.5 20.5l172 622h119l-177 -630q-18 -63 -47 -98t-89 -35q-66 0 -95 37t-42 97l-112 498
q-3 13 -6.5 20.5t-11.5 7.5q-9 0 -12 -7t-6 -20l-114 -499q-13 -60 -41.5 -97t-93.5 -37q-61 0 -90.5 34.5t-47.5 98.5l-177 630h120z" />
    <glyph glyph-name="X" unicode="X" horiz-adv-x="809" 
d="M462 276q-18 25 -27.5 36t-30.5 11t-31 -11t-27 -36l-186 -276h-135l261 370l-271 380h142l189 -275q18 -25 27.5 -36t30.5 -11t30.5 11t27.5 36l188 275h134l-261 -371l271 -379h-142z" />
    <glyph glyph-name="Y" unicode="Y" horiz-adv-x="780" 
d="M333 0v268l-323 482h137l225 -354q6 -10 18.5 -10t18.5 10l231 354h130l-322 -481v-269h-115z" />
    <glyph glyph-name="Z" unicode="Z" horiz-adv-x="705" 
d="M657 0h-457q-85 0 -122.5 36t-37.5 91q0 46 32 84t91 83l343 262q21 16 30 27.5t9 29.5q0 19 -13.5 28t-39.5 9h-434v100h434q92 0 132.5 -36t40.5 -99q0 -46 -23 -78t-72 -68l-367 -274q-23 -17 -33 -29t-10 -29q0 -19 12.5 -28t31.5 -9h453v-100z" />
    <glyph glyph-name="bracketleft" unicode="[" horiz-adv-x="367" 
d="M90 -170v920h217v-95h-107v-730h107v-95h-217z" />
    <glyph glyph-name="backslash" unicode="\" horiz-adv-x="330" 
d="M120 750l200 -860h-110l-200 860h110z" />
    <glyph glyph-name="bracketright" unicode="]" horiz-adv-x="367" 
d="M277 -170h-217v95h107v730h-107v95h217v-920z" />
    <glyph glyph-name="asciicircum" unicode="^" horiz-adv-x="707" 
d="M425 332l-71 109l-72 -109h-103l109 156q11 16 26 27t40 11t39 -11t26 -27l109 -156h-103z" />
    <glyph glyph-name="underscore" unicode="_" horiz-adv-x="386" 
d="M0 -100v100h386v-100h-386z" />
    <glyph glyph-name="grave" unicode="`" horiz-adv-x="707" 
d="M411 672h-98l-78 188h106z" />
    <glyph glyph-name="a" unicode="a" horiz-adv-x="683" 
d="M603 383v-383h-370q-86 0 -134.5 35t-48.5 108q0 49 35.5 86.5t98.5 84.5l253 191h-380v95h319q114 0 170.5 -59t56.5 -158zM228 100h265v327l-269 -204q-28 -21 -44 -35.5t-16 -40.5q0 -25 19 -36t45 -11z" />
    <glyph glyph-name="b" unicode="b" horiz-adv-x="727" 
d="M80 0v750h110v-150h225q120 0 183.5 -67t63.5 -192v-82q0 -125 -63.5 -192t-183.5 -67h-335zM405 505h-215v-410h215q78 0 110 34.5t32 114.5v111q0 81 -32 115.5t-110 34.5z" />
    <glyph glyph-name="c" unicode="c" horiz-adv-x="642" 
d="M328 505q-79 0 -113.5 -30.5t-34.5 -110.5v-127q0 -81 34.5 -111.5t113.5 -30.5h259v-95h-264q-115 0 -186.5 63t-71.5 188v98q0 125 71.5 188t186.5 63h264v-95h-259z" />
    <glyph glyph-name="d" unicode="d" horiz-adv-x="727" 
d="M647 750v-750h-335q-120 0 -183.5 67t-63.5 192v82q0 125 63.5 192t183.5 67h225v150h110zM322 95h215v410h-215q-78 0 -110 -34.5t-32 -114.5v-111q0 -81 32 -115.5t110 -34.5z" />
    <glyph glyph-name="e" unicode="e" horiz-adv-x="707" 
d="M652 262h-472v-49q0 -60 37.5 -89t114.5 -29h301v-95h-286q-62 0 -114 13.5t-89 42.5t-58 74t-21 108v105q0 132 69.5 199t201.5 67h55q131 0 196 -59t65 -177v-111zM405 514h-84q-76 0 -108.5 -34t-32.5 -122v-5h357v35q0 67 -27 96.5t-105 29.5z" />
    <glyph glyph-name="f" unicode="f" horiz-adv-x="465" 
d="M112 0v505h-97v95h97q0 89 47.5 129.5t135.5 40.5h150v-87h-159q-36 0 -52 -14.5t-16 -52.5v-16h227v-95h-223v-505h-110z" />
    <glyph glyph-name="g" unicode="g" horiz-adv-x="707" 
d="M371 -150h-274v95h292q76 0 102 20t26 67v18h-215q-120 0 -183.5 64t-63.5 185v52q0 121 63.5 185t183.5 64h325v-541q0 -111 -63.5 -160t-192.5 -49zM312 150h205v350h-205q-78 0 -110 -30t-32 -105v-81q0 -75 32 -104.5t110 -29.5z" />
    <glyph glyph-name="h" unicode="h" horiz-adv-x="715" 
d="M80 0v750h110v-150h228q114 0 165.5 -55t51.5 -160v-385h-110v397q0 59 -23 81t-76 22h-236v-500h-110z" />
    <glyph glyph-name="i" unicode="i" horiz-adv-x="290" 
d="M200 652h-110v98h110v-98zM90 0v600h110v-600h-110z" />
    <glyph glyph-name="j" unicode="j" horiz-adv-x="290" 
d="M210 652h-110v98h110v-98zM100 600h110v-590q0 -84 -44 -122t-132 -38h-57v95h70q28 0 40.5 13t12.5 44v598z" />
    <glyph glyph-name="k" unicode="k" horiz-adv-x="701" 
d="M80 0v750h110v-398h64q34 0 51.5 7.5t40.5 32.5l195 208h132l-278 -295l286 -305h-140l-195 214q-23 25 -40.5 32.5t-51.5 7.5h-64v-254h-110z" />
    <glyph glyph-name="l" unicode="l" horiz-adv-x="290" 
d="M90 750h110v-750h-110v750z" />
    <glyph glyph-name="m" unicode="m" horiz-adv-x="1070" 
d="M80 0v600h694q112 0 164 -57t52 -146v-397h-110v402q0 56 -23 77t-76 21h-191v-500h-110v500h-290v-500h-110z" />
    <glyph glyph-name="n" unicode="n" horiz-adv-x="715" 
d="M80 0v600h338q113 0 165 -55t52 -160v-385h-110v397q0 59 -23 81t-76 22h-236v-500h-110z" />
    <glyph glyph-name="o" unicode="o" horiz-adv-x="747" 
d="M682 349v-98q0 -125 -69 -194.5t-202 -69.5h-75q-140 0 -205.5 69.5t-65.5 194.5v98q0 125 65.5 194.5t205.5 69.5h75q133 0 202 -69.5t69 -194.5zM567 364q0 80 -30.5 117t-111.5 37h-104q-76 0 -108.5 -37t-32.5 -117v-128q0 -80 32.5 -117t108.5 -37h104
q81 0 111.5 37t30.5 117v128z" />
    <glyph glyph-name="p" unicode="p" horiz-adv-x="737" 
d="M90 -150v750h335q119 0 183 -67t64 -192v-82q0 -125 -64 -192t-183 -67h-225v-150h-110zM415 500h-215v-400h215q78 0 110 32t32 113v111q0 80 -32 112t-110 32z" />
    <glyph glyph-name="q" unicode="q" horiz-adv-x="727" 
d="M647 600v-750h-110v150h-225q-119 0 -183 67t-64 192v82q0 125 64 192t183 67h335zM322 100h215v400h-215q-78 0 -110 -32t-32 -112v-111q0 -81 32 -113t110 -32z" />
    <glyph glyph-name="r" unicode="r" horiz-adv-x="477" 
d="M80 415q0 91 57.5 138t145.5 47h174v-95h-179q-47 0 -67.5 -17.5t-20.5 -63.5v-424h-110v415z" />
    <glyph glyph-name="s" unicode="s" horiz-adv-x="627" 
d="M371 239l-147 31q-84 18 -131.5 56.5t-47.5 108.5q0 74 55 119.5t165 45.5h302v-95h-322q-51 0 -69 -19t-18 -45q0 -28 19 -44.5t69 -26.5l145 -30q93 -19 144.5 -55.5t51.5 -111.5q0 -78 -57 -125.5t-186 -47.5h-289v95h315q63 0 85 19.5t22 50.5q0 30 -23 45.5
t-83 28.5z" />
    <glyph glyph-name="t" unicode="t" horiz-adv-x="490" 
d="M15 505v95h100v117h107v-117h223v-95h-223v-343q0 -38 16 -52.5t52 -14.5h155v-95h-154q-84 0 -131.5 42t-47.5 126v337h-97z" />
    <glyph glyph-name="u" unicode="u" horiz-adv-x="715" 
d="M635 600v-600h-338q-113 0 -165 55t-52 160v385h110v-397q0 -59 23 -81t76 -22h236v500h110z" />
    <glyph glyph-name="v" unicode="v" horiz-adv-x="723" 
d="M147 600l200 -484q3 -8 7 -12.5t11 -4.5t11 4.5t7 12.5l199 484h121l-229 -524q-17 -39 -42 -63t-70 -24q-43 0 -68.5 24.5t-41.5 62.5l-232 524h127z" />
    <glyph glyph-name="w" unicode="w" horiz-adv-x="1010" 
d="M506 613q49 0 79.5 -31t44.5 -91l88 -382q2 -8 6 -14t12 -6t11.5 5t5.5 15l115 491h117l-134 -510q-12 -46 -39.5 -74.5t-72.5 -28.5q-57 0 -82.5 28.5t-37.5 79.5l-94 398q-3 11 -7.5 17t-11.5 6q-10 0 -14.5 -6.5t-6.5 -16.5l-94 -398q-12 -51 -38 -79.5t-80 -28.5
q-47 0 -74 27t-40 76l-134 510h120l112 -490q2 -9 6 -15t12 -6q7 0 11 6t6 15l89 381q14 60 42.5 91t82.5 31z" />
    <glyph glyph-name="x" unicode="x" horiz-adv-x="691" 
d="M364 225q-8 10 -18.5 10t-18.5 -10l-174 -225h-138l245 302l-242 298h135l174 -221q8 -10 18.5 -10t18.5 10l174 221h135l-242 -298l245 -302h-138z" />
    <glyph glyph-name="y" unicode="y" horiz-adv-x="672" 
d="M329 152q4 -7 9 -11t10 -4t10 4t8 11l180 448h121l-257 -613q-33 -78 -81.5 -107.5t-129.5 -29.5h-138v92h137q48 0 71 15.5t35 43.5l20 49h-5q-28 0 -53 15.5t-44 56.5l-217 478h126z" />
    <glyph glyph-name="z" unicode="z" horiz-adv-x="648" 
d="M594 0h-420q-67 0 -99.5 28t-32.5 70q0 34 17 60t60 58l329 245q7 5 10.5 10.5t3.5 13.5q0 10 -6.5 15t-19.5 5h-374v95h373q67 0 107 -22.5t40 -78.5q0 -31 -21.5 -60.5t-70.5 -66.5l-313 -236q-7 -6 -11 -11t-4 -12q0 -10 7 -14t18 -4h407v-95z" />
    <glyph glyph-name="braceleft" unicode="{" horiz-adv-x="365" 
d="M160 292v-4q42 -7 60 -34t18 -78v-170q0 -46 15.5 -63.5t52.5 -17.5h39v-95h-44q-79 0 -126 42t-47 133v167q0 34 -13.5 50t-44.5 16h-30v104h30q31 0 44.5 16t13.5 50v167q0 91 47 133t126 42h44v-95h-39q-37 0 -52.5 -17.5t-15.5 -63.5v-170q0 -51 -18 -78t-60 -34z
" />
    <glyph glyph-name="bar" unicode="|" horiz-adv-x="310" 
d="M100 750h110v-860h-110v860z" />
    <glyph glyph-name="braceright" unicode="}" horiz-adv-x="365" 
d="M205 292q-42 7 -60 34t-18 78v170q0 46 -15.5 63.5t-52.5 17.5h-39v95h44q79 0 126 -42t47 -133v-167q0 -34 13.5 -50t44.5 -16h30v-104h-30q-31 0 -44.5 -16t-13.5 -50v-167q0 -91 -47 -133t-126 -42h-44v95h39q37 0 52.5 17.5t15.5 63.5v170q0 51 18 78t60 34v4z" />
    <glyph glyph-name="asciitilde" unicode="~" horiz-adv-x="860" 
d="M485 410q10 -10 16 -15t15 -5q8 0 13 6t5 19v81h87v-76q0 -53 -26 -83.5t-74 -30.5q-34 0 -58 14t-52 43l-34 35q-10 10 -16 15t-14 5t-13.5 -6t-5.5 -19v-81h-87v78q0 54 27 83t73 29q34 0 58 -14t52 -43z" />
    <glyph glyph-name="exclamdown" unicode="&#xa1;" horiz-adv-x="266" 
d="M195 600v-125h-125v125h125zM196 -150h-126l13 550h100z" />
    <glyph glyph-name="cent" unicode="&#xa2;" horiz-adv-x="692" 
d="M354 -150v150h-41q-115 0 -186.5 63t-71.5 188v98q0 125 71.5 188t186.5 63h41v150h100v-150h183v-95h-183v-410h183v-95h-183v-150h-100zM318 505q-79 0 -113.5 -30.5t-34.5 -110.5v-127q0 -81 34.5 -111.5t113.5 -30.5h36v410h-36z" />
    <glyph glyph-name="sterling" unicode="&#xa3;" horiz-adv-x="756" 
d="M30 0v100h145v225h-145v100h145q0 74 19 134.5t58.5 102.5t102 65t150.5 23h211v-100h-226q-104 0 -147 -49.5t-43 -150.5v-25h416v-100h-416v-225h416v-100h-686z" />
    <glyph glyph-name="currency" unicode="&#xa4;" horiz-adv-x="688" 
d="M344 88q-40 0 -77 11.5t-67 33.5l-96 -98l-50 50l96 95q-22 28 -34.5 63.5t-12.5 75.5t13 76.5t35 64.5l-97 96l50 50l97 -99q30 22 66.5 33.5t76.5 11.5t76.5 -11.5t67.5 -32.5l96 98l50 -51l-96 -94q22 -29 35 -65.5t13 -76.5t-12.5 -75.5t-34.5 -63.5l95 -94l-50 -51
l-95 97q-31 -21 -68 -32.5t-77 -11.5zM344 185q27 0 52 11t44.5 29.5t31 43t11.5 50.5q0 27 -11.5 52t-31 43.5t-44.5 29.5t-52 11q-26 0 -51.5 -11t-44.5 -29.5t-31 -43.5t-12 -52q0 -26 12 -50.5t31 -43t44.5 -29.5t51.5 -11z" />
    <glyph glyph-name="yen" unicode="&#xa5;" horiz-adv-x="780" 
d="M62 95v100h271v70h-271v100h206l-258 385h137l225 -354q6 -10 18.5 -10t18.5 10l231 354h130l-258 -385h207v-100h-271v-70h271v-100h-271v-95h-115v95h-271z" />
    <glyph glyph-name="brokenbar" unicode="&#xa6;" horiz-adv-x="310" 
d="M100 439v311h110v-311h-110zM210 -110h-110v311h110v-311z" />
    <glyph glyph-name="section" unicode="&#xa7;" horiz-adv-x="681" 
d="M621 27q0 -79 -57 -128t-186 -49h-329v95h365q57 0 77 20.5t20 53.5q0 28 -18.5 49t-67.5 31l-216 41q-83 16 -131 58t-48 117q0 46 20.5 81t61.5 56q-25 22 -38.5 53.5t-13.5 71.5q0 78 57 125.5t186 47.5h329v-95h-355q-63 0 -85 -20.5t-22 -53.5q0 -28 18.5 -49
t67.5 -31l216 -41q83 -16 131 -58t48 -117q0 -45 -20.5 -80t-61.5 -57q25 -22 38.5 -51.5t13.5 -69.5zM446 200l10 -2l10 -2q37 4 54.5 28t17.5 55t-19 51.5t-69 29.5l-215 40l-10 2q-5 1 -9 2q-37 -4 -55 -28t-18 -55t19 -51.5t69 -29.5z" />
    <glyph glyph-name="dieresis" unicode="&#xa8;" horiz-adv-x="510" 
d="M215 692h-110v106h110v-106zM405 692h-110v106h110v-106z" />
    <glyph glyph-name="copyright" unicode="&#xa9;" horiz-adv-x="930" 
d="M875 315q0 -74 -19.5 -134.5t-59.5 -103t-102.5 -66t-148.5 -23.5h-160q-86 0 -149 23.5t-103 66t-59 103t-19 134.5v120q0 75 19 135.5t59 103.5t103 66t149 23h160q86 0 148.5 -23t102.5 -66t59.5 -103.5t19.5 -135.5v-120zM161 285q0 -103 50.5 -154.5t155.5 -51.5
h196q106 0 156 51.5t50 154.5v181q0 104 -50 155t-156 51h-196q-105 0 -155.5 -51t-50.5 -155v-181zM467 501q-57 0 -81.5 -21.5t-24.5 -78.5v-50q0 -58 24.5 -80t81.5 -22h165v-89h-189q-82 0 -133 45.5t-51 134.5v71q0 88 51 133.5t133 45.5h189v-89h-165z" />
    <glyph glyph-name="ordfeminine" unicode="&#xaa;" horiz-adv-x="372" 
d="M341 604v-185h-219q-49 0 -75.5 21t-26.5 57t24.5 58t58.5 47l97 73h-175v74h150q88 0 127 -38.5t39 -106.5zM111 501h139v112z" />
    <glyph glyph-name="guillemotleft" unicode="&#xab;" horiz-adv-x="761" 
d="M371 258v-123l-254 168q-25 16 -36 34t-11 34v9q0 16 11 34t36 34l254 168v-123l-191 -117zM671 258v-123l-254 168q-25 16 -36 34t-11 34v9q0 16 11 34t36 34l254 168v-123l-191 -117z" />
    <glyph glyph-name="registered" unicode="&#xae;" horiz-adv-x="712" 
d="M657 432q0 -107 -58 -172.5t-184 -65.5h-118q-126 0 -184 65.5t-58 172.5v90q0 110 58 175.5t184 65.5h118q126 0 184 -65.5t58 -175.5v-90zM132 412q0 -76 37 -114t115 -38h144q78 0 115 38t37 114v133q0 76 -37 114t-115 38h-144q-78 0 -115 -38t-37 -114v-133z
M496 319h-88l-92 128q-13 16 -6.5 38t37.5 22h41q28 0 39 6t11 25v6q0 19 -11 25.5t-39 6.5h-104v-257h-71v318h187q46 0 78 -16.5t32 -65.5v-11q0 -56 -30 -75t-82 -19h-1z" />
    <glyph glyph-name="macron" unicode="&#xaf;" horiz-adv-x="510" 
d="M375 682h-240v78h240v-78z" />
    <glyph glyph-name="degree" unicode="&#xb0;" horiz-adv-x="432" 
d="M50 584v50q0 60 39 95.5t98 35.5h58q57 0 97 -35.5t40 -95.5v-50q0 -59 -40 -96t-97 -37h-58q-59 0 -98 37t-39 96zM145 625v-37q0 -26 13 -42.5t37 -16.5h42q30 0 40 16.5t10 42.5v37q0 28 -10 45t-40 17h-42q-24 0 -37 -17t-13 -45z" />
    <glyph glyph-name="plusminus" unicode="&#xb1;" horiz-adv-x="546" 
d="M50 410v100h173v143h100v-143h173v-100h-173v-143h-100v143h-173zM80 100v100h386v-100h-386z" />
    <glyph glyph-name="twosuperior" unicode="&#xb2;" horiz-adv-x="303" 
d="M285 491v-72h-273v54q0 44 21 71t79 58l63 32q10 5 14.5 10.5t4.5 12.5q0 12 -8.5 16t-21.5 4h-145v73h153q60 0 88.5 -22t28.5 -59q0 -43 -25.5 -64.5t-73.5 -47.5l-55 -30q-15 -8 -19 -14t-4 -14v-8h173z" />
    <glyph glyph-name="threesuperior" unicode="&#xb3;" horiz-adv-x="312" 
d="M95 620l74 56h-150v74h277v-60l-110 -80q63 0 86.5 -22t23.5 -50v-32q0 -43 -32.5 -65t-95.5 -22h-142v74h153q12 0 18 4.5t6 19.5v10q0 14 -6.5 18t-16.5 4h-78q-18 0 -27 9.5t-9 23.5q0 13 8 21t21 17z" />
    <glyph glyph-name="acute" unicode="&#xb4;" horiz-adv-x="707" 
d="M298 672l70 188h106l-78 -188h-98z" />
    <glyph glyph-name="paragraph" unicode="&#xb6;" horiz-adv-x="835" 
d="M40 542q0 61 22.5 101.5t60.5 64t87.5 33t103.5 9.5h242v-900h-115v440h-127q-54 0 -103.5 9.5t-87.5 33t-60.5 64t-22.5 101.5v44zM630 -150v900h115v-900h-115z" />
    <glyph glyph-name="periodcentered" unicode="&#xb7;" horiz-adv-x="305" 
d="M130 237v125h125v-125h-125z" />
    <glyph glyph-name="cedilla" unicode="&#xb8;" horiz-adv-x="637" 
d="M368 0l-70 -188h-106l78 188h98z" />
    <glyph glyph-name="onesuperior" unicode="&#xb9;" horiz-adv-x="279" 
d="M12 419v70h82v171q0 7 -3.5 11t-9.5 4h-69v75h89q37 0 61 -24t24 -59v-178h81v-70h-255z" />
    <glyph glyph-name="ordmasculine" unicode="&#xba;" horiz-adv-x="400" 
d="M378 605v-42q0 -69 -41 -109.5t-117 -40.5h-39q-77 0 -118 40.5t-41 109.5v42q0 69 41 109.5t118 40.5h39q76 0 117 -40.5t41 -109.5zM279 614q0 34 -12.5 50.5t-46.5 16.5h-40q-33 0 -46 -16.5t-13 -50.5v-59q0 -35 13 -51.5t46 -16.5h40q34 0 46.5 16.5t12.5 51.5v59z
" />
    <glyph glyph-name="guillemotright" unicode="&#xbb;" horiz-adv-x="761" 
d="M644 303l-254 -168v123l191 118l-191 117v123l254 -168q25 -16 36 -34t11 -34v-9q0 -16 -11 -34t-36 -34zM344 303l-254 -168v123l191 118l-191 117v123l254 -168q25 -16 36 -34t11 -34v-9q0 -16 -11 -34t-36 -34z" />
    <glyph glyph-name="onequarter" unicode="&#xbc;" horiz-adv-x="840" 
d="M574 419h-108l155 331h109zM100 419v70h82v171q0 7 -3.5 11t-9.5 4h-69v75h89q37 0 61 -24t24 -59v-178h81v-70h-255zM479 49q-42 0 -62 17t-20 43q0 17 8.5 34.5t28.5 42.5l76 96q19 24 42 38.5t50 14.5h13q31 0 52.5 -19.5t21.5 -61.5v-135h51v-70h-51v-49h-90v49h-120
zM281 331h108l-155 -331h-109zM507 119h92v127q0 4 -2 5.5t-5 1.5q-2 0 -4 -1t-4 -3l-85 -113q-2 -2 -3 -4.5t-1 -4.5q0 -3 2.5 -5.5t9.5 -2.5z" />
    <glyph glyph-name="onehalf" unicode="&#xbd;" horiz-adv-x="840" 
d="M574 419h-108l155 331h109zM100 419v70h82v171q0 7 -3.5 11t-9.5 4h-69v75h89q37 0 61 -24t24 -59v-178h81v-70h-255zM281 331h108l-155 -331h-109zM736 72v-72h-273v54q0 44 21 71t79 58l63 32q10 5 14.5 10.5t4.5 12.5q0 12 -8.5 16t-21.5 4h-145v73h153q60 0 88.5 -22
t28.5 -59q0 -43 -25.5 -64.5t-73.5 -47.5l-55 -30q-15 -8 -19 -14t-4 -14v-8h173z" />
    <glyph glyph-name="questiondown" unicode="&#xbf;" horiz-adv-x="626" 
d="M456 600v-125h-125v125h125zM50 88q0 123 74.5 183.5t220.5 60.5h111v-100h-150q-83 0 -115.5 -40.5t-32.5 -100.5q0 -63 35 -102t123 -39h260v-100h-231q-146 0 -220.5 59.5t-74.5 178.5z" />
    <glyph glyph-name="Agrave" unicode="&#xc0;" horiz-adv-x="860" 
d="M725 0l-86 202h-420l-86 -202h-123l283 640q24 54 51.5 88.5t85.5 34.5q57 0 85.5 -33t48.5 -79l286 -651h-125zM399 626l-135 -318h330l-135 317q-7 18 -14 24.5t-16 6.5t-15.5 -5.5t-14.5 -24.5zM488 822h-98l-78 188h106z" />
    <glyph glyph-name="Aacute" unicode="&#xc1;" horiz-adv-x="860" 
d="M725 0l-86 202h-420l-86 -202h-123l283 640q24 54 51.5 88.5t85.5 34.5q57 0 85.5 -33t48.5 -79l286 -651h-125zM399 626l-135 -318h330l-135 317q-7 18 -14 24.5t-16 6.5t-15.5 -5.5t-14.5 -24.5zM386 822l70 188h106l-78 -188h-98z" />
    <glyph glyph-name="Acircumflex" unicode="&#xc2;" horiz-adv-x="860" 
d="M725 0l-86 202h-420l-86 -202h-123l283 640q24 54 51.5 88.5t85.5 34.5q57 0 85.5 -33t48.5 -79l286 -651h-125zM399 626l-135 -318h330l-135 317q-7 18 -14 24.5t-16 6.5t-15.5 -5.5t-14.5 -24.5zM501 822l-71 109l-72 -109h-103l109 156q11 16 26 27t40 11t39 -11
t26 -27l109 -156h-103z" />
    <glyph glyph-name="Atilde" unicode="&#xc3;" horiz-adv-x="860" 
d="M725 0l-86 202h-420l-86 -202h-123l283 640q24 54 51.5 88.5t85.5 34.5q57 0 85.5 -33t48.5 -79l286 -651h-125zM399 626l-135 -318h330l-135 317q-7 18 -14 24.5t-16 6.5t-15.5 -5.5t-14.5 -24.5zM485 920q10 -10 16 -15t15 -5q8 0 13 6t5 19v81h87v-76q0 -53 -26 -83.5
t-74 -30.5q-34 0 -58 14t-52 43l-34 35q-10 10 -16 15t-14 5t-13.5 -6t-5.5 -19v-81h-87v78q0 54 27 83t73 29q34 0 58 -14t52 -43z" />
    <glyph glyph-name="Adieresis" unicode="&#xc4;" horiz-adv-x="860" 
d="M725 0l-86 202h-420l-86 -202h-123l283 640q24 54 51.5 88.5t85.5 34.5q57 0 85.5 -33t48.5 -79l286 -651h-125zM399 626l-135 -318h330l-135 317q-7 18 -14 24.5t-16 6.5t-15.5 -5.5t-14.5 -24.5zM390 842h-110v106h110v-106zM580 842h-110v106h110v-106z" />
    <glyph glyph-name="Aring" unicode="&#xc5;" horiz-adv-x="860" 
d="M725 0l-86 202h-420l-86 -202h-123l283 640q24 54 51.5 88.5t85.5 34.5q57 0 85.5 -33t48.5 -79l286 -651h-125zM399 626l-135 -318h330l-135 317q-7 18 -14 24.5t-16 6.5t-15.5 -5.5t-14.5 -24.5zM323 904v24q0 39 25.5 63t62.5 24h39q37 0 62.5 -24t25.5 -63v-24
q0 -39 -25.5 -63t-62.5 -24h-39q-37 0 -62.5 24t-25.5 63zM383 926v-20q0 -17 10 -27.5t25 -10.5h25q15 0 25.5 10.5t10.5 27.5v20q0 17 -10.5 27.5t-25.5 10.5h-25q-15 0 -25 -10.5t-10 -27.5z" />
    <glyph glyph-name="AE" unicode="&#xc6;" horiz-adv-x="1283" 
d="M615 0v750h601v-100h-486v-219h486v-100h-486v-231h486v-100h-601zM10 0l312 583q43 81 95.5 124t147.5 43h165v-750h-115v201h-372l-104 -201h-129zM422 545l-126 -242h319v347h-47q-57 0 -86 -23.5t-60 -81.5z" />
    <glyph glyph-name="Ccedilla" unicode="&#xc7;" horiz-adv-x="756" 
d="M716 100v-100h-331q-88 0 -151 23t-102.5 66t-58 103.5t-18.5 135.5v94q0 75 18.5 135.5t58 103.5t102.5 66t151 23h326v-100h-341q-104 0 -147 -49.5t-43 -150.5v-150q0 -101 43 -150.5t147 -49.5h346zM510 0l-70 -188h-106l78 188h98z" />
    <glyph glyph-name="Egrave" unicode="&#xc8;" horiz-adv-x="758" 
d="M90 0v750h601v-100h-486v-219h486v-100h-486v-231h486v-100h-601zM462 822h-98l-78 188h106z" />
    <glyph glyph-name="Eacute" unicode="&#xc9;" horiz-adv-x="758" 
d="M90 0v750h601v-100h-486v-219h486v-100h-486v-231h486v-100h-601zM360 822l70 188h106l-78 -188h-98z" />
    <glyph glyph-name="Ecircumflex" unicode="&#xca;" horiz-adv-x="758" 
d="M90 0v750h601v-100h-486v-219h486v-100h-486v-231h486v-100h-601zM475 822l-71 109l-72 -109h-103l109 156q11 16 26 27t40 11t39 -11t26 -27l109 -156h-103z" />
    <glyph glyph-name="Edieresis" unicode="&#xcb;" horiz-adv-x="758" 
d="M90 0v750h601v-100h-486v-219h486v-100h-486v-231h486v-100h-601zM364 842h-110v106h110v-106zM554 842h-110v106h110v-106z" />
    <glyph glyph-name="Igrave" unicode="&#xcc;" horiz-adv-x="315" 
d="M100 0v750h115v-750h-115zM215 822h-98l-78 188h106z" />
    <glyph glyph-name="Iacute" unicode="&#xcd;" horiz-adv-x="315" 
d="M100 0v750h115v-750h-115zM113 822l70 188h106l-78 -188h-98z" />
    <glyph glyph-name="Icircumflex" unicode="&#xce;" horiz-adv-x="315" 
d="M100 0v750h115v-750h-115zM228 822l-71 109l-72 -109h-103l109 156q11 16 26 27t40 11t39 -11t26 -27l109 -156h-103z" />
    <glyph glyph-name="Idieresis" unicode="&#xcf;" horiz-adv-x="315" 
d="M100 0v750h115v-750h-115zM117 842h-110v106h110v-106zM307 842h-110v106h110v-106z" />
    <glyph glyph-name="Eth" unicode="&#xd0;" horiz-adv-x="815" 
d="M15 334v95h75v321h340q168 0 259 -83t91 -232v-120q0 -149 -89.5 -232t-265.5 -83h-335v334h-75zM445 650h-240v-221h245v-95h-245v-234h235q104 0 159.5 43.5t55.5 144.5v175q0 101 -54.5 144t-155.5 43z" />
    <glyph glyph-name="Ntilde" unicode="&#xd1;" horiz-adv-x="970" 
d="M90 0v610q0 64 32 108.5t106 44.5q52 0 86 -30t69 -87l320 -517q9 -14 18 -23t18 -9q12 0 19 8.5t7 24.5v620h115v-617q0 -66 -33.5 -106t-98.5 -40q-55 0 -88.5 29t-63.5 77l-327 525q-10 16 -17 25.5t-19 9.5q-15 0 -21.5 -10t-6.5 -27v-616h-115zM540 920
q10 -10 16 -15t15 -5q8 0 13 6t5 19v81h87v-76q0 -53 -26 -83.5t-74 -30.5q-34 0 -58 14t-52 43l-34 35q-10 10 -16 15t-14 5t-13.5 -6t-5.5 -19v-81h-87v78q0 54 27 83t73 29q34 0 58 -14t52 -43z" />
    <glyph glyph-name="Ograve" unicode="&#xd2;" horiz-adv-x="870" 
d="M815 315q0 -74 -19.5 -134.5t-59.5 -103t-102.5 -66t-148.5 -23.5h-100q-86 0 -149 23.5t-103 66t-59 103t-19 134.5v120q0 75 19 135.5t59 103.5t103 66t149 23h100q86 0 148.5 -23t102.5 -66t59.5 -103.5t19.5 -135.5v-120zM180 288q0 -100 44 -150t146 -50h130
q103 0 146.5 50t43.5 150v175q0 101 -43.5 150.5t-146.5 49.5h-130q-102 0 -146 -49.5t-44 -150.5v-175zM493 822h-98l-78 188h106z" />
    <glyph glyph-name="Oacute" unicode="&#xd3;" horiz-adv-x="870" 
d="M815 315q0 -74 -19.5 -134.5t-59.5 -103t-102.5 -66t-148.5 -23.5h-100q-86 0 -149 23.5t-103 66t-59 103t-19 134.5v120q0 75 19 135.5t59 103.5t103 66t149 23h100q86 0 148.5 -23t102.5 -66t59.5 -103.5t19.5 -135.5v-120zM180 288q0 -100 44 -150t146 -50h130
q103 0 146.5 50t43.5 150v175q0 101 -43.5 150.5t-146.5 49.5h-130q-102 0 -146 -49.5t-44 -150.5v-175zM391 822l70 188h106l-78 -188h-98z" />
    <glyph glyph-name="Ocircumflex" unicode="&#xd4;" horiz-adv-x="870" 
d="M815 315q0 -74 -19.5 -134.5t-59.5 -103t-102.5 -66t-148.5 -23.5h-100q-86 0 -149 23.5t-103 66t-59 103t-19 134.5v120q0 75 19 135.5t59 103.5t103 66t149 23h100q86 0 148.5 -23t102.5 -66t59.5 -103.5t19.5 -135.5v-120zM180 288q0 -100 44 -150t146 -50h130
q103 0 146.5 50t43.5 150v175q0 101 -43.5 150.5t-146.5 49.5h-130q-102 0 -146 -49.5t-44 -150.5v-175zM506 822l-71 109l-72 -109h-103l109 156q11 16 26 27t40 11t39 -11t26 -27l109 -156h-103z" />
    <glyph glyph-name="Otilde" unicode="&#xd5;" horiz-adv-x="870" 
d="M815 315q0 -74 -19.5 -134.5t-59.5 -103t-102.5 -66t-148.5 -23.5h-100q-86 0 -149 23.5t-103 66t-59 103t-19 134.5v120q0 75 19 135.5t59 103.5t103 66t149 23h100q86 0 148.5 -23t102.5 -66t59.5 -103.5t19.5 -135.5v-120zM180 288q0 -100 44 -150t146 -50h130
q103 0 146.5 50t43.5 150v175q0 101 -43.5 150.5t-146.5 49.5h-130q-102 0 -146 -49.5t-44 -150.5v-175zM490 920q10 -10 16 -15t15 -5q8 0 13 6t5 19v81h87v-76q0 -53 -26 -83.5t-74 -30.5q-34 0 -58 14t-52 43l-34 35q-10 10 -16 15t-14 5t-13.5 -6t-5.5 -19v-81h-87v78
q0 54 27 83t73 29q34 0 58 -14t52 -43z" />
    <glyph glyph-name="Odieresis" unicode="&#xd6;" horiz-adv-x="870" 
d="M815 315q0 -74 -19.5 -134.5t-59.5 -103t-102.5 -66t-148.5 -23.5h-100q-86 0 -149 23.5t-103 66t-59 103t-19 134.5v120q0 75 19 135.5t59 103.5t103 66t149 23h100q86 0 148.5 -23t102.5 -66t59.5 -103.5t19.5 -135.5v-120zM180 288q0 -100 44 -150t146 -50h130
q103 0 146.5 50t43.5 150v175q0 101 -43.5 150.5t-146.5 49.5h-130q-102 0 -146 -49.5t-44 -150.5v-175zM395 842h-110v106h110v-106zM585 842h-110v106h110v-106z" />
    <glyph glyph-name="multiply" unicode="&#xd7;" horiz-adv-x="528" 
d="M50 519l70 70l144 -144l144 144l70 -70l-144 -144l144 -144l-70 -70l-144 144l-144 -144l-70 70l144 144z" />
    <glyph glyph-name="Oslash" unicode="&#xd8;" horiz-adv-x="870" 
d="M815 315q0 -74 -19.5 -134.5t-59.5 -103t-102.5 -66t-148.5 -23.5h-100q-64 0 -115.5 13t-89.5 38l-35 -39h-95l76 85q-36 43 -53.5 101.5t-17.5 128.5v120q0 75 19 135.5t59 103.5t103 66t149 23h100q63 0 114 -12.5t89 -36.5l32 36h100l-76 -85q36 -42 53.5 -100.5
t17.5 -129.5v-120zM180 288q0 -36 5.5 -65.5t16.5 -52.5l417 467q-22 13 -51.5 19.5t-67.5 6.5h-130q-102 0 -146 -49.5t-44 -150.5v-175zM370 88h130q103 0 146.5 50t43.5 150v175q0 36 -5.5 66t-16.5 52l-419 -465q22 -14 52.5 -21t68.5 -7z" />
    <glyph glyph-name="Ugrave" unicode="&#xd9;" horiz-adv-x="880" 
d="M370 -13q-146 0 -213 59t-67 187v517h115v-525q0 -70 35.5 -104t110.5 -34h180q71 0 107.5 34t36.5 104v525h115v-517q0 -128 -68 -187t-222 -59h-130zM498 822h-98l-78 188h106z" />
    <glyph glyph-name="Uacute" unicode="&#xda;" horiz-adv-x="880" 
d="M370 -13q-146 0 -213 59t-67 187v517h115v-525q0 -70 35.5 -104t110.5 -34h180q71 0 107.5 34t36.5 104v525h115v-517q0 -128 -68 -187t-222 -59h-130zM396 822l70 188h106l-78 -188h-98z" />
    <glyph glyph-name="Ucircumflex" unicode="&#xdb;" horiz-adv-x="880" 
d="M370 -13q-146 0 -213 59t-67 187v517h115v-525q0 -70 35.5 -104t110.5 -34h180q71 0 107.5 34t36.5 104v525h115v-517q0 -128 -68 -187t-222 -59h-130zM511 822l-71 109l-72 -109h-103l109 156q11 16 26 27t40 11t39 -11t26 -27l109 -156h-103z" />
    <glyph glyph-name="Udieresis" unicode="&#xdc;" horiz-adv-x="880" 
d="M370 -13q-146 0 -213 59t-67 187v517h115v-525q0 -70 35.5 -104t110.5 -34h180q71 0 107.5 34t36.5 104v525h115v-517q0 -128 -68 -187t-222 -59h-130zM400 842h-110v106h110v-106zM590 842h-110v106h110v-106z" />
    <glyph glyph-name="Yacute" unicode="&#xdd;" horiz-adv-x="780" 
d="M333 0v268l-323 482h137l225 -354q6 -10 18.5 -10t18.5 10l231 354h130l-322 -481v-269h-115zM346 822l70 188h106l-78 -188h-98z" />
    <glyph glyph-name="Thorn" unicode="&#xde;" horiz-adv-x="786" 
d="M205 750v-145h267q54 0 103.5 -9.5t87.5 -33t60.5 -64t22.5 -101.5v-44q0 -61 -22.5 -101.5t-60.5 -64t-87.5 -33t-103.5 -9.5h-267v-145h-115v750h115zM490 505h-285v-260h285q77 0 106.5 26t29.5 80v48q0 54 -29.5 80t-106.5 26z" />
    <glyph glyph-name="germandbls" unicode="&#xdf;" horiz-adv-x="792" 
d="M323 750h163q110 0 166 -46t56 -134v-48q0 -41 -21 -76.5t-86 -53.5q72 -13 101.5 -54t29.5 -105v-41q0 -113 -59.5 -152.5t-173.5 -39.5h-201v100h230q46 0 65 20t19 58v75q0 39 -20.5 61t-63.5 22h-230v100h212q49 0 67 22t18 63v47q0 40 -21 61t-69 21h-211
q-44 0 -69 -22t-25 -81v-547h-110v526q0 117 64.5 170.5t168.5 53.5z" />
    <glyph glyph-name="agrave" unicode="&#xe0;" horiz-adv-x="683" 
d="M603 383v-383h-370q-86 0 -134.5 35t-48.5 108q0 49 35.5 86.5t98.5 84.5l253 191h-380v95h319q114 0 170.5 -59t56.5 -158zM228 100h265v327l-269 -204q-28 -21 -44 -35.5t-16 -40.5q0 -25 19 -36t45 -11zM397 672h-98l-78 188h106z" />
    <glyph glyph-name="aacute" unicode="&#xe1;" horiz-adv-x="683" 
d="M603 383v-383h-370q-86 0 -134.5 35t-48.5 108q0 49 35.5 86.5t98.5 84.5l253 191h-380v95h319q114 0 170.5 -59t56.5 -158zM228 100h265v327l-269 -204q-28 -21 -44 -35.5t-16 -40.5q0 -25 19 -36t45 -11zM296 672l70 188h106l-78 -188h-98z" />
    <glyph glyph-name="acircumflex" unicode="&#xe2;" horiz-adv-x="683" 
d="M603 383v-383h-370q-86 0 -134.5 35t-48.5 108q0 49 35.5 86.5t98.5 84.5l253 191h-380v95h319q114 0 170.5 -59t56.5 -158zM228 100h265v327l-269 -204q-28 -21 -44 -35.5t-16 -40.5q0 -25 19 -36t45 -11zM411 672l-71 109l-72 -109h-103l109 156q11 16 26 27t40 11
t39 -11t26 -27l109 -156h-103z" />
    <glyph glyph-name="atilde" unicode="&#xe3;" horiz-adv-x="683" 
d="M603 383v-383h-370q-86 0 -134.5 35t-48.5 108q0 49 35.5 86.5t98.5 84.5l253 191h-380v95h319q114 0 170.5 -59t56.5 -158zM228 100h265v327l-269 -204q-28 -21 -44 -35.5t-16 -40.5q0 -25 19 -36t45 -11zM395 770q10 -10 16 -15t15 -5q8 0 13 6t5 19v81h87v-76
q0 -53 -26 -83.5t-74 -30.5q-34 0 -58 14t-52 43l-34 35q-10 10 -16 15t-14 5t-13.5 -6t-5.5 -19v-81h-87v78q0 54 27 83t73 29q34 0 58 -14t52 -43z" />
    <glyph glyph-name="adieresis" unicode="&#xe4;" horiz-adv-x="683" 
d="M603 383v-383h-370q-86 0 -134.5 35t-48.5 108q0 49 35.5 86.5t98.5 84.5l253 191h-380v95h319q114 0 170.5 -59t56.5 -158zM228 100h265v327l-269 -204q-28 -21 -44 -35.5t-16 -40.5q0 -25 19 -36t45 -11zM300 692h-110v106h110v-106zM490 692h-110v106h110v-106z" />
    <glyph glyph-name="aring" unicode="&#xe5;" horiz-adv-x="683" 
d="M603 383v-383h-370q-86 0 -134.5 35t-48.5 108q0 49 35.5 86.5t98.5 84.5l253 191h-380v95h319q114 0 170.5 -59t56.5 -158zM228 100h265v327l-269 -204q-28 -21 -44 -35.5t-16 -40.5q0 -25 19 -36t45 -11zM232 754v24q0 39 25.5 63t62.5 24h39q37 0 62.5 -24t25.5 -63
v-24q0 -39 -25.5 -63t-62.5 -24h-39q-37 0 -62.5 24t-25.5 63zM292 776v-20q0 -17 10 -27.5t25 -10.5h25q15 0 25.5 10.5t10.5 27.5v20q0 17 -10.5 27.5t-25.5 10.5h-25q-15 0 -25 -10.5t-10 -27.5z" />
    <glyph glyph-name="ae" unicode="&#xe6;" horiz-adv-x="1131" 
d="M763 0q-73 0 -126 21t-85 60q-26 -42 -76 -61.5t-136 -19.5h-98q-90 0 -141.5 34t-51.5 107q0 56 35.5 97t101.5 87l262 180h-367v95h309q69 0 107.5 -16.5t60.5 -50.5q32 34 85.5 50.5t124.5 16.5h62q131 0 188.5 -61t57.5 -179v-98h-464v-29q0 -74 32.5 -106t94.5 -32
h318v-95h-294zM859 505h-130q-63 0 -90 -31t-27 -104v-17h354v42q0 57 -22 83.5t-85 26.5zM227 100h123q84 0 120.5 29t36.5 122v174l-284 -199q-28 -20 -45 -35t-17 -41t19.5 -38t46.5 -12z" />
    <glyph glyph-name="ccedilla" unicode="&#xe7;" horiz-adv-x="642" 
d="M328 505q-79 0 -113.5 -30.5t-34.5 -110.5v-127q0 -81 34.5 -111.5t113.5 -30.5h259v-95h-264q-115 0 -186.5 63t-71.5 188v98q0 125 71.5 188t186.5 63h264v-95h-259zM429 0l-70 -188h-106l78 188h98z" />
    <glyph glyph-name="egrave" unicode="&#xe8;" horiz-adv-x="707" 
d="M652 262h-472v-49q0 -60 37.5 -89t114.5 -29h301v-95h-286q-62 0 -114 13.5t-89 42.5t-58 74t-21 108v105q0 132 69.5 199t201.5 67h55q131 0 196 -59t65 -177v-111zM405 514h-84q-76 0 -108.5 -34t-32.5 -122v-5h357v35q0 67 -27 96.5t-105 29.5zM427 672h-98l-78 188
h106z" />
    <glyph glyph-name="eacute" unicode="&#xe9;" horiz-adv-x="707" 
d="M652 262h-472v-49q0 -60 37.5 -89t114.5 -29h301v-95h-286q-62 0 -114 13.5t-89 42.5t-58 74t-21 108v105q0 132 69.5 199t201.5 67h55q131 0 196 -59t65 -177v-111zM405 514h-84q-76 0 -108.5 -34t-32.5 -122v-5h357v35q0 67 -27 96.5t-105 29.5zM325 672l70 188h106
l-78 -188h-98z" />
    <glyph glyph-name="ecircumflex" unicode="&#xea;" horiz-adv-x="707" 
d="M652 262h-472v-49q0 -60 37.5 -89t114.5 -29h301v-95h-286q-62 0 -114 13.5t-89 42.5t-58 74t-21 108v105q0 132 69.5 199t201.5 67h55q131 0 196 -59t65 -177v-111zM405 514h-84q-76 0 -108.5 -34t-32.5 -122v-5h357v35q0 67 -27 96.5t-105 29.5zM440 672l-71 109
l-72 -109h-103l109 156q11 16 26 27t40 11t39 -11t26 -27l109 -156h-103z" />
    <glyph glyph-name="edieresis" unicode="&#xeb;" horiz-adv-x="707" 
d="M652 262h-472v-49q0 -60 37.5 -89t114.5 -29h301v-95h-286q-62 0 -114 13.5t-89 42.5t-58 74t-21 108v105q0 132 69.5 199t201.5 67h55q131 0 196 -59t65 -177v-111zM405 514h-84q-76 0 -108.5 -34t-32.5 -122v-5h357v35q0 67 -27 96.5t-105 29.5zM329 692h-110v106h110
v-106zM519 692h-110v106h110v-106z" />
    <glyph glyph-name="igrave" unicode="&#xec;" horiz-adv-x="290" 
d="M90 0v600h110v-600h-110zM202 672h-98l-78 188h106z" />
    <glyph glyph-name="iacute" unicode="&#xed;" horiz-adv-x="290" 
d="M90 0v600h110v-600h-110zM101 672l70 188h106l-78 -188h-98z" />
    <glyph glyph-name="icircumflex" unicode="&#xee;" horiz-adv-x="290" 
d="M90 0v600h110v-600h-110zM216 672l-71 109l-72 -109h-103l109 156q11 16 26 27t40 11t39 -11t26 -27l109 -156h-103z" />
    <glyph glyph-name="idieresis" unicode="&#xef;" horiz-adv-x="290" 
d="M90 0v600h110v-600h-110zM105 692h-110v106h110v-106zM295 692h-110v106h110v-106z" />
    <glyph glyph-name="eth" unicode="&#xf0;" horiz-adv-x="740" 
d="M265 478v95l117 50l-182 127h174l120 -79l191 82v-95l-106 -45q56 -44 76 -84.5t20 -106.5v-145q0 -153 -70 -221.5t-234 -68.5h-63q-128 0 -199.5 43t-71.5 153v43q0 116 58.5 159.5t170.5 43.5h294q-1 43 -20.5 69.5t-73.5 65.5zM386 87q95 0 134.5 33t39.5 130v79
h-295q-68 0 -90.5 -24t-22.5 -66v-62q0 -44 30.5 -67t111.5 -23h92z" />
    <glyph glyph-name="ntilde" unicode="&#xf1;" horiz-adv-x="715" 
d="M80 0v600h338q113 0 165 -55t52 -160v-385h-110v397q0 59 -23 81t-76 22h-236v-500h-110zM413 770q10 -10 16 -15t15 -5q8 0 13 6t5 19v81h87v-76q0 -53 -26 -83.5t-74 -30.5q-34 0 -58 14t-52 43l-34 35q-10 10 -16 15t-14 5t-13.5 -6t-5.5 -19v-81h-87v78q0 54 27 83
t73 29q34 0 58 -14t52 -43z" />
    <glyph glyph-name="ograve" unicode="&#xf2;" horiz-adv-x="747" 
d="M682 349v-98q0 -125 -69 -194.5t-202 -69.5h-75q-140 0 -205.5 69.5t-65.5 194.5v98q0 125 65.5 194.5t205.5 69.5h75q133 0 202 -69.5t69 -194.5zM567 364q0 80 -30.5 117t-111.5 37h-104q-76 0 -108.5 -37t-32.5 -117v-128q0 -80 32.5 -117t108.5 -37h104
q81 0 111.5 37t30.5 117v128zM432 672h-98l-78 188h106z" />
    <glyph glyph-name="oacute" unicode="&#xf3;" horiz-adv-x="747" 
d="M682 349v-98q0 -125 -69 -194.5t-202 -69.5h-75q-140 0 -205.5 69.5t-65.5 194.5v98q0 125 65.5 194.5t205.5 69.5h75q133 0 202 -69.5t69 -194.5zM567 364q0 80 -30.5 117t-111.5 37h-104q-76 0 -108.5 -37t-32.5 -117v-128q0 -80 32.5 -117t108.5 -37h104
q81 0 111.5 37t30.5 117v128zM330 672l70 188h106l-78 -188h-98z" />
    <glyph glyph-name="ocircumflex" unicode="&#xf4;" horiz-adv-x="747" 
d="M682 349v-98q0 -125 -69 -194.5t-202 -69.5h-75q-140 0 -205.5 69.5t-65.5 194.5v98q0 125 65.5 194.5t205.5 69.5h75q133 0 202 -69.5t69 -194.5zM567 364q0 80 -30.5 117t-111.5 37h-104q-76 0 -108.5 -37t-32.5 -117v-128q0 -80 32.5 -117t108.5 -37h104
q81 0 111.5 37t30.5 117v128zM445 672l-71 109l-72 -109h-103l109 156q11 16 26 27t40 11t39 -11t26 -27l109 -156h-103z" />
    <glyph glyph-name="otilde" unicode="&#xf5;" horiz-adv-x="747" 
d="M682 349v-98q0 -125 -69 -194.5t-202 -69.5h-75q-140 0 -205.5 69.5t-65.5 194.5v98q0 125 65.5 194.5t205.5 69.5h75q133 0 202 -69.5t69 -194.5zM567 364q0 80 -30.5 117t-111.5 37h-104q-76 0 -108.5 -37t-32.5 -117v-128q0 -80 32.5 -117t108.5 -37h104
q81 0 111.5 37t30.5 117v128zM429 770q10 -10 16 -15t15 -5q8 0 13 6t5 19v81h87v-76q0 -53 -26 -83.5t-74 -30.5q-34 0 -58 14t-52 43l-34 35q-10 10 -16 15t-14 5t-13.5 -6t-5.5 -19v-81h-87v78q0 54 27 83t73 29q34 0 58 -14t52 -43z" />
    <glyph glyph-name="odieresis" unicode="&#xf6;" horiz-adv-x="747" 
d="M682 349v-98q0 -125 -69 -194.5t-202 -69.5h-75q-140 0 -205.5 69.5t-65.5 194.5v98q0 125 65.5 194.5t205.5 69.5h75q133 0 202 -69.5t69 -194.5zM567 364q0 80 -30.5 117t-111.5 37h-104q-76 0 -108.5 -37t-32.5 -117v-128q0 -80 32.5 -117t108.5 -37h104
q81 0 111.5 37t30.5 117v128zM334 692h-110v106h110v-106zM524 692h-110v106h110v-106z" />
    <glyph glyph-name="divide" unicode="&#xf7;" horiz-adv-x="506" 
d="M191 515v125h125v-125h-125zM50 325v100h406v-100h-406zM191 110v125h125v-125h-125z" />
    <glyph glyph-name="oslash" unicode="&#xf8;" horiz-adv-x="747" 
d="M65 0l57 65q-29 34 -43 80.5t-14 105.5v98q0 125 65.5 194.5t205.5 69.5h75q48 0 88 -9.5t71 -27.5l21 24h90l-58 -66q29 -34 44 -80.5t15 -104.5v-98q0 -125 -69 -194.5t-202 -69.5h-75q-51 0 -91.5 9.5t-71.5 26.5l-21 -23h-87zM180 236q0 -27 3.5 -49.5t10.5 -38.5
l312 356q-15 7 -35.5 10.5t-45.5 3.5h-104q-76 0 -108.5 -37t-32.5 -117v-128zM567 364q0 28 -3.5 50.5t-10.5 40.5l-314 -357q16 -8 36.5 -12t45.5 -4h104q81 0 111.5 37t30.5 117v128z" />
    <glyph glyph-name="ugrave" unicode="&#xf9;" horiz-adv-x="715" 
d="M635 600v-600h-338q-113 0 -165 55t-52 160v385h110v-397q0 -59 23 -81t76 -22h236v500h110zM405 672h-98l-78 188h106z" />
    <glyph glyph-name="uacute" unicode="&#xfa;" horiz-adv-x="715" 
d="M635 600v-600h-338q-113 0 -165 55t-52 160v385h110v-397q0 -59 23 -81t76 -22h236v500h110zM304 672l70 188h106l-78 -188h-98z" />
    <glyph glyph-name="ucircumflex" unicode="&#xfb;" horiz-adv-x="715" 
d="M635 600v-600h-338q-113 0 -165 55t-52 160v385h110v-397q0 -59 23 -81t76 -22h236v500h110zM419 672l-71 109l-72 -109h-103l109 156q11 16 26 27t40 11t39 -11t26 -27l109 -156h-103z" />
    <glyph glyph-name="udieresis" unicode="&#xfc;" horiz-adv-x="715" 
d="M635 600v-600h-338q-113 0 -165 55t-52 160v385h110v-397q0 -59 23 -81t76 -22h236v500h110zM308 692h-110v106h110v-106zM498 692h-110v106h110v-106z" />
    <glyph glyph-name="yacute" unicode="&#xfd;" horiz-adv-x="672" 
d="M329 152q4 -7 9 -11t10 -4t10 4t8 11l180 448h121l-257 -613q-33 -78 -81.5 -107.5t-129.5 -29.5h-138v92h137q48 0 71 15.5t35 43.5l20 49h-5q-28 0 -53 15.5t-44 56.5l-217 478h126zM292 672l70 188h106l-78 -188h-98z" />
    <glyph glyph-name="thorn" unicode="&#xfe;" horiz-adv-x="727" 
d="M90 -150v900h110v-150h225q119 0 183 -67t64 -192v-82q0 -125 -64 -192t-183 -67h-225v-150h-110zM415 500h-215v-400h215q78 0 110 32t32 113v111q0 80 -32 112t-110 32z" />
    <glyph glyph-name="ydieresis" unicode="&#xff;" horiz-adv-x="672" 
d="M329 152q4 -7 9 -11t10 -4t10 4t8 11l180 448h121l-257 -613q-33 -78 -81.5 -107.5t-129.5 -29.5h-138v92h137q48 0 71 15.5t35 43.5l20 49h-5q-28 0 -53 15.5t-44 56.5l-217 478h126zM296 692h-110v106h110v-106zM486 692h-110v106h110v-106z" />
    <glyph glyph-name="Amacron" unicode="&#x100;" horiz-adv-x="860" 
d="M725 0l-86 202h-420l-86 -202h-123l283 640q24 54 51.5 88.5t85.5 34.5q57 0 85.5 -33t48.5 -79l286 -651h-125zM399 626l-135 -318h330l-135 317q-7 18 -14 24.5t-16 6.5t-15.5 -5.5t-14.5 -24.5zM550 832h-240v78h240v-78z" />
    <glyph glyph-name="amacron" unicode="&#x101;" horiz-adv-x="683" 
d="M603 383v-383h-370q-86 0 -134.5 35t-48.5 108q0 49 35.5 86.5t98.5 84.5l253 191h-380v95h319q114 0 170.5 -59t56.5 -158zM228 100h265v327l-269 -204q-28 -21 -44 -35.5t-16 -40.5q0 -25 19 -36t45 -11zM460 682h-240v78h240v-78z" />
    <glyph glyph-name="Abreve" unicode="&#x102;" horiz-adv-x="860" 
d="M725 0l-86 202h-420l-86 -202h-123l283 640q24 54 51.5 88.5t85.5 34.5q57 0 85.5 -33t48.5 -79l286 -651h-125zM399 626l-135 -318h330l-135 317q-7 18 -14 24.5t-16 6.5t-15.5 -5.5t-14.5 -24.5zM273 980h77v-40q0 -22 11.5 -33.5t34.5 -11.5h70q24 0 34.5 11t10.5 34
v40h76v-46q0 -43 -29 -75t-78 -32h-99q-51 0 -79.5 32t-28.5 75v46z" />
    <glyph glyph-name="abreve" unicode="&#x103;" horiz-adv-x="683" 
d="M603 383v-383h-370q-86 0 -134.5 35t-48.5 108q0 49 35.5 86.5t98.5 84.5l253 191h-380v95h319q114 0 170.5 -59t56.5 -158zM228 100h265v327l-269 -204q-28 -21 -44 -35.5t-16 -40.5q0 -25 19 -36t45 -11zM182 830h77v-40q0 -22 11.5 -33.5t34.5 -11.5h70q24 0 34.5 11
t10.5 34v40h76v-46q0 -43 -29 -75t-78 -32h-99q-51 0 -79.5 32t-28.5 75v46z" />
    <glyph glyph-name="Aogonek" unicode="&#x104;" horiz-adv-x="860" 
d="M725 0l-86 202h-420l-86 -202h-123l283 640q24 54 51.5 88.5t85.5 34.5q57 0 85.5 -33t48.5 -79l286 -651h-125zM399 626l-135 -318h330l-135 317q-7 18 -14 24.5t-16 6.5t-15.5 -5.5t-14.5 -24.5zM758 0h92l-48 -58q-10 -13 -16.5 -21t-6.5 -18t8 -17t24 -7h39v-69h-65
q-55 0 -79.5 21t-24.5 52q0 19 9.5 39t34.5 45z" />
    <glyph glyph-name="aogonek" unicode="&#x105;" horiz-adv-x="683" 
d="M603 383v-383h-370q-86 0 -134.5 35t-48.5 108q0 49 35.5 86.5t98.5 84.5l253 191h-380v95h319q114 0 170.5 -59t56.5 -158zM228 100h265v327l-269 -204q-28 -21 -44 -35.5t-16 -40.5q0 -25 19 -36t45 -11zM511 0h92l-48 -58q-10 -13 -16.5 -21t-6.5 -18t8 -17t24 -7h39
v-69h-65q-55 0 -79.5 21t-24.5 52q0 19 9.5 39t34.5 45z" />
    <glyph glyph-name="Cacute" unicode="&#x106;" horiz-adv-x="756" 
d="M716 100v-100h-331q-88 0 -151 23t-102.5 66t-58 103.5t-18.5 135.5v94q0 75 18.5 135.5t58 103.5t102.5 66t151 23h326v-100h-341q-104 0 -147 -49.5t-43 -150.5v-150q0 -101 43 -150.5t147 -49.5h346zM416 822l70 188h106l-78 -188h-98z" />
    <glyph glyph-name="cacute" unicode="&#x107;" horiz-adv-x="642" 
d="M328 505q-79 0 -113.5 -30.5t-34.5 -110.5v-127q0 -81 34.5 -111.5t113.5 -30.5h259v-95h-264q-115 0 -186.5 63t-71.5 188v98q0 125 71.5 188t186.5 63h264v-95h-259zM335 672l70 188h106l-78 -188h-98z" />
    <glyph glyph-name="Cdotaccent" unicode="&#x10a;" horiz-adv-x="756" 
d="M716 100v-100h-331q-88 0 -151 23t-102.5 66t-58 103.5t-18.5 135.5v94q0 75 18.5 135.5t58 103.5t102.5 66t151 23h326v-100h-341q-104 0 -147 -49.5t-43 -150.5v-150q0 -101 43 -150.5t147 -49.5h346zM515 822h-110v98h110v-98z" />
    <glyph glyph-name="cdotaccent" unicode="&#x10b;" horiz-adv-x="642" 
d="M328 505q-79 0 -113.5 -30.5t-34.5 -110.5v-127q0 -81 34.5 -111.5t113.5 -30.5h259v-95h-264q-115 0 -186.5 63t-71.5 188v98q0 125 71.5 188t186.5 63h264v-95h-259zM434 672h-110v98h110v-98z" />
    <glyph glyph-name="Ccaron" unicode="&#x10c;" horiz-adv-x="756" 
d="M716 100v-100h-331q-88 0 -151 23t-102.5 66t-58 103.5t-18.5 135.5v94q0 75 18.5 135.5t58 103.5t102.5 66t151 23h326v-100h-341q-104 0 -147 -49.5t-43 -150.5v-150q0 -101 43 -150.5t147 -49.5h346zM526 844q-12 -16 -26 -27t-39 -11t-40 11t-26 27l-109 156h103
l72 -109l71 109h103z" />
    <glyph glyph-name="ccaron" unicode="&#x10d;" horiz-adv-x="642" 
d="M328 505q-79 0 -113.5 -30.5t-34.5 -110.5v-127q0 -81 34.5 -111.5t113.5 -30.5h259v-95h-264q-115 0 -186.5 63t-71.5 188v98q0 125 71.5 188t186.5 63h264v-95h-259zM445 694q-12 -16 -26 -27t-39 -11t-40 11t-26 27l-109 156h103l72 -109l71 109h103z" />
    <glyph glyph-name="Dcaron" unicode="&#x10e;" horiz-adv-x="815" 
d="M430 750q168 0 259 -83t91 -232v-120q0 -149 -89.5 -232t-265.5 -83h-335v750h340zM445 650h-240v-550h235q104 0 159.5 43.5t55.5 144.5v175q0 101 -54.5 144t-155.5 43zM474 844q-12 -16 -26 -27t-39 -11t-40 11t-26 27l-109 156h103l72 -109l71 109h103z" />
    <glyph glyph-name="dcaron" unicode="&#x10f;" horiz-adv-x="820" 
d="M647 750v-750h-335q-120 0 -183.5 67t-63.5 192v82q0 125 63.5 192t183.5 67h225v150h110zM322 95h215v410h-215q-78 0 -110 -34.5t-32 -114.5v-111q0 -81 32 -115.5t110 -34.5zM683 520l32 230h95l-32 -230h-95z" />
    <glyph glyph-name="Dcroat" unicode="&#x110;" horiz-adv-x="815" 
d="M15 334v95h75v321h340q168 0 259 -83t91 -232v-120q0 -149 -89.5 -232t-265.5 -83h-335v334h-75zM445 650h-240v-221h245v-95h-245v-234h235q104 0 159.5 43.5t55.5 144.5v175q0 101 -54.5 144t-155.5 43z" />
    <glyph glyph-name="dcroat" unicode="&#x111;" horiz-adv-x="737" 
d="M372 645v55h165v50h110v-50h65v-55h-65v-645h-335q-120 0 -183.5 67t-63.5 192v82q0 125 63.5 192t183.5 67h225v45h-165zM322 95h215v410h-215q-78 0 -110 -34.5t-32 -114.5v-111q0 -81 32 -115.5t110 -34.5z" />
    <glyph glyph-name="Emacron" unicode="&#x112;" horiz-adv-x="758" 
d="M90 0v750h601v-100h-486v-219h486v-100h-486v-231h486v-100h-601zM524 832h-240v78h240v-78z" />
    <glyph glyph-name="emacron" unicode="&#x113;" horiz-adv-x="707" 
d="M652 262h-472v-49q0 -60 37.5 -89t114.5 -29h301v-95h-286q-62 0 -114 13.5t-89 42.5t-58 74t-21 108v105q0 132 69.5 199t201.5 67h55q131 0 196 -59t65 -177v-111zM405 514h-84q-76 0 -108.5 -34t-32.5 -122v-5h357v35q0 67 -27 96.5t-105 29.5zM489 682h-240v78h240
v-78z" />
    <glyph glyph-name="Ebreve" unicode="&#x114;" horiz-adv-x="758" 
d="M90 0v750h601v-100h-486v-219h486v-100h-486v-231h486v-100h-601zM247 980h77v-40q0 -22 11.5 -33.5t34.5 -11.5h70q24 0 34.5 11t10.5 34v40h76v-46q0 -43 -29 -75t-78 -32h-99q-51 0 -79.5 32t-28.5 75v46z" />
    <glyph glyph-name="ebreve" unicode="&#x115;" horiz-adv-x="707" 
d="M652 262h-472v-49q0 -60 37.5 -89t114.5 -29h301v-95h-286q-62 0 -114 13.5t-89 42.5t-58 74t-21 108v105q0 132 69.5 199t201.5 67h55q131 0 196 -59t65 -177v-111zM405 514h-84q-76 0 -108.5 -34t-32.5 -122v-5h357v35q0 67 -27 96.5t-105 29.5zM212 830h77v-40
q0 -22 11.5 -33.5t34.5 -11.5h70q24 0 34.5 11t10.5 34v40h76v-46q0 -43 -29 -75t-78 -32h-99q-51 0 -79.5 32t-28.5 75v46z" />
    <glyph glyph-name="Edotaccent" unicode="&#x116;" horiz-adv-x="758" 
d="M90 0v750h601v-100h-486v-219h486v-100h-486v-231h486v-100h-601zM459 822h-110v98h110v-98z" />
    <glyph glyph-name="edotaccent" unicode="&#x117;" horiz-adv-x="707" 
d="M652 262h-472v-49q0 -60 37.5 -89t114.5 -29h301v-95h-286q-62 0 -114 13.5t-89 42.5t-58 74t-21 108v105q0 132 69.5 199t201.5 67h55q131 0 196 -59t65 -177v-111zM405 514h-84q-76 0 -108.5 -34t-32.5 -122v-5h357v35q0 67 -27 96.5t-105 29.5zM424 672h-110v98h110
v-98z" />
    <glyph glyph-name="Eogonek" unicode="&#x118;" horiz-adv-x="758" 
d="M90 0v750h601v-100h-486v-219h486v-100h-486v-231h486v-100h-601zM599 0h92l-48 -58q-10 -13 -16.5 -21t-6.5 -18t8 -17t24 -7h39v-69h-65q-55 0 -79.5 21t-24.5 52q0 19 9.5 39t34.5 45z" />
    <glyph glyph-name="eogonek" unicode="&#x119;" horiz-adv-x="707" 
d="M652 262h-472v-49q0 -60 37.5 -89t114.5 -29h301v-95h-286q-62 0 -114 13.5t-89 42.5t-58 74t-21 108v105q0 132 69.5 199t201.5 67h55q131 0 196 -59t65 -177v-111zM405 514h-84q-76 0 -108.5 -34t-32.5 -122v-5h357v35q0 67 -27 96.5t-105 29.5zM541 0h92l-48 -58
q-10 -13 -16.5 -21t-6.5 -18t8 -17t24 -7h39v-69h-65q-55 0 -79.5 21t-24.5 52q0 19 9.5 39t34.5 45z" />
    <glyph glyph-name="Ecaron" unicode="&#x11a;" horiz-adv-x="758" 
d="M90 0v750h601v-100h-486v-219h486v-100h-486v-231h486v-100h-601zM470 844q-12 -16 -26 -27t-39 -11t-40 11t-26 27l-109 156h103l72 -109l71 109h103z" />
    <glyph glyph-name="ecaron" unicode="&#x11b;" horiz-adv-x="707" 
d="M652 262h-472v-49q0 -60 37.5 -89t114.5 -29h301v-95h-286q-62 0 -114 13.5t-89 42.5t-58 74t-21 108v105q0 132 69.5 199t201.5 67h55q131 0 196 -59t65 -177v-111zM405 514h-84q-76 0 -108.5 -34t-32.5 -122v-5h357v35q0 67 -27 96.5t-105 29.5zM435 694
q-12 -16 -26 -27t-39 -11t-40 11t-26 27l-109 156h103l72 -109l71 109h103z" />
    <glyph glyph-name="Gbreve" unicode="&#x11e;" horiz-adv-x="830" 
d="M744 750v-100h-374q-104 0 -147 -49.5t-43 -150.5v-162q0 -101 42 -151t143 -50h110q107 0 146 23.5t39 88.5v122h-232v100h347v-204q0 -71 -18 -116t-55.5 -70t-97.5 -34.5t-144 -9.5h-80q-84 0 -145.5 23t-101.5 66t-59 103.5t-19 135.5v107q0 75 18.5 135.5t58 103.5
t102.5 66t151 23h359zM288 980h77v-40q0 -22 11.5 -33.5t34.5 -11.5h70q24 0 34.5 11t10.5 34v40h76v-46q0 -43 -29 -75t-78 -32h-99q-51 0 -79.5 32t-28.5 75v46z" />
    <glyph glyph-name="gbreve" unicode="&#x11f;" horiz-adv-x="707" 
d="M371 -150h-274v95h292q76 0 102 20t26 67v18h-215q-120 0 -183.5 64t-63.5 185v52q0 121 63.5 185t183.5 64h325v-541q0 -111 -63.5 -160t-192.5 -49zM312 150h205v350h-205q-78 0 -110 -30t-32 -105v-81q0 -75 32 -104.5t110 -29.5zM212 830h77v-40q0 -22 11.5 -33.5
t34.5 -11.5h70q24 0 34.5 11t10.5 34v40h76v-46q0 -43 -29 -75t-78 -32h-99q-51 0 -79.5 32t-28.5 75v46z" />
    <glyph glyph-name="Gdotaccent" unicode="&#x120;" horiz-adv-x="830" 
d="M744 750v-100h-374q-104 0 -147 -49.5t-43 -150.5v-162q0 -101 42 -151t143 -50h110q107 0 146 23.5t39 88.5v122h-232v100h347v-204q0 -71 -18 -116t-55.5 -70t-97.5 -34.5t-144 -9.5h-80q-84 0 -145.5 23t-101.5 66t-59 103.5t-19 135.5v107q0 75 18.5 135.5t58 103.5
t102.5 66t151 23h359zM500 822h-110v98h110v-98z" />
    <glyph glyph-name="gdotaccent" unicode="&#x121;" horiz-adv-x="707" 
d="M371 -150h-274v95h292q76 0 102 20t26 67v18h-215q-120 0 -183.5 64t-63.5 185v52q0 121 63.5 185t183.5 64h325v-541q0 -111 -63.5 -160t-192.5 -49zM312 150h205v350h-205q-78 0 -110 -30t-32 -105v-81q0 -75 32 -104.5t110 -29.5zM424 672h-110v98h110v-98z" />
    <glyph glyph-name="Gcommaaccent" unicode="&#x122;" horiz-adv-x="800" 
d="M744 750v-100h-374q-104 0 -147 -49.5t-43 -150.5v-162q0 -101 42 -151t143 -50h110q107 0 146 23.5t39 88.5v122h-232v100h347v-204q0 -71 -18 -116t-55.5 -70t-97.5 -34.5t-144 -9.5h-80q-84 0 -145.5 23t-101.5 66t-59 103.5t-19 135.5v107q0 75 18.5 135.5t58 103.5
t102.5 66t151 23h359zM369 -188q16 48 21 70t5 53v25h92v-25q0 -31 -5 -53t-24 -70h-89z" />
    <glyph glyph-name="gcommaaccent" unicode="&#x123;" horiz-adv-x="707" 
d="M371 -150h-274v95h292q76 0 102 20t26 67v18h-215q-120 0 -183.5 64t-63.5 185v52q0 121 63.5 185t183.5 64h325v-541q0 -111 -63.5 -160t-192.5 -49zM312 150h205v350h-205q-78 0 -110 -30t-32 -105v-81q0 -75 32 -104.5t110 -29.5z" />
    <glyph glyph-name="Hbar" unicode="&#x126;" horiz-adv-x="845" 
d="M70 0v555h-55v85h55v110h115v-110h475v110h115v-110h55v-85h-55v-555h-115v330h-475v-330h-115zM185 435h475v120h-475v-120z" />
    <glyph glyph-name="hbar" unicode="&#x127;" horiz-adv-x="735" 
d="M80 0v645h-65v55h65v50h110v-50h165v-55h-165v-45h228q114 0 165.5 -55t51.5 -160v-385h-110v397q0 59 -23 81t-76 22h-236v-500h-110z" />
    <glyph glyph-name="Itilde" unicode="&#x128;" horiz-adv-x="315" 
d="M100 0v750h115v-750h-115zM212 920q10 -10 16 -15t15 -5q8 0 13 6t5 19v81h87v-76q0 -53 -26 -83.5t-74 -30.5q-34 0 -58 14t-52 43l-34 35q-10 10 -16 15t-14 5t-13.5 -6t-5.5 -19v-81h-87v78q0 54 27 83t73 29q34 0 58 -14t52 -43z" />
    <glyph glyph-name="itilde" unicode="&#x129;" horiz-adv-x="290" 
d="M90 0v600h110v-600h-110zM200 770q10 -10 16 -15t15 -5q8 0 13 6t5 19v81h87v-76q0 -53 -26 -83.5t-74 -30.5q-34 0 -58 14t-52 43l-34 35q-10 10 -16 15t-14 5t-13.5 -6t-5.5 -19v-81h-87v78q0 54 27 83t73 29q34 0 58 -14t52 -43z" />
    <glyph glyph-name="Imacron" unicode="&#x12a;" horiz-adv-x="315" 
d="M100 0v750h115v-750h-115zM277 832h-240v78h240v-78z" />
    <glyph glyph-name="imacron" unicode="&#x12b;" horiz-adv-x="290" 
d="M90 0v600h110v-600h-110zM265 682h-240v78h240v-78z" />
    <glyph glyph-name="Ibreve" unicode="&#x12c;" horiz-adv-x="315" 
d="M100 0v750h115v-750h-115zM0 980h77v-40q0 -22 11.5 -33.5t34.5 -11.5h70q24 0 34.5 11t10.5 34v40h76v-46q0 -43 -29 -75t-78 -32h-99q-51 0 -79.5 32t-28.5 75v46z" />
    <glyph glyph-name="ibreve" unicode="&#x12d;" horiz-adv-x="290" 
d="M90 0v600h110v-600h-110zM-13 830h77v-40q0 -22 11.5 -33.5t34.5 -11.5h70q24 0 34.5 11t10.5 34v40h76v-46q0 -43 -29 -75t-78 -32h-99q-51 0 -79.5 32t-28.5 75v46z" />
    <glyph glyph-name="Iogonek" unicode="&#x12e;" horiz-adv-x="315" 
d="M100 0v750h115v-750h-115zM108 0h92l-48 -58q-10 -13 -16.5 -21t-6.5 -18t8 -17t24 -7h39v-69h-65q-55 0 -79.5 21t-24.5 52q0 19 9.5 39t34.5 45z" />
    <glyph glyph-name="iogonek" unicode="&#x12f;" horiz-adv-x="290" 
d="M200 652h-110v98h110v-98zM90 0v600h110v-600h-110zM108 0h92l-48 -58q-10 -13 -16.5 -21t-6.5 -18t8 -17t24 -7h39v-69h-65q-55 0 -79.5 21t-24.5 52q0 19 9.5 39t34.5 45z" />
    <glyph glyph-name="Idotaccent" unicode="&#x130;" horiz-adv-x="315" 
d="M100 0v750h115v-750h-115zM212 822h-110v98h110v-98z" />
    <glyph glyph-name="dotlessi" unicode="&#x131;" horiz-adv-x="290" 
d="M90 0v600h110v-600h-110z" />
    <glyph glyph-name="Kcommaaccent" unicode="&#x136;" horiz-adv-x="785" 
d="M90 0v750h115v-319h54q49 0 72.5 10t51.5 42l238 267h141l-329 -367l342 -383h-148l-244 269q-29 31 -52 41.5t-72 10.5h-54v-321h-115zM317 -188q16 48 21 70t5 53v25h92v-25q0 -31 -5 -53t-24 -70h-89z" />
    <glyph glyph-name="kcommaaccent" unicode="&#x137;" horiz-adv-x="711" 
d="M70 0v750h110v-398h64q34 0 51.5 7.5t40.5 32.5l195 208h132l-278 -295l286 -305h-140l-195 214q-23 25 -40.5 32.5t-51.5 7.5h-64v-254h-110zM279 -188q16 48 21 70t5 53v25h92v-25q0 -31 -5 -53t-24 -70h-89z" />
    <glyph glyph-name="kra" unicode="&#x138;" horiz-adv-x="701" 
d="M80 0v600h110v-248h64q34 0 51.5 7.5t40.5 32.5l195 208h132l-278 -295l286 -305h-140l-195 214q-23 25 -40.5 32.5t-51.5 7.5h-64v-254h-110z" />
    <glyph glyph-name="Lacute" unicode="&#x139;" horiz-adv-x="671" 
d="M90 0v750h115v-650h446v-100h-561zM106 822l70 188h106l-78 -188h-98z" />
    <glyph glyph-name="lacute" unicode="&#x13a;" horiz-adv-x="290" 
d="M90 750h110v-750h-110v750zM101 822l70 188h106l-78 -188h-98z" />
    <glyph glyph-name="Lcommaaccent" unicode="&#x13b;" horiz-adv-x="671" 
d="M90 0v750h115v-650h446v-100h-561zM305 -188q16 48 21 70t5 53v25h92v-25q0 -31 -5 -53t-24 -70h-89z" />
    <glyph glyph-name="lcommaaccent" unicode="&#x13c;" horiz-adv-x="290" 
d="M90 750h110v-750h-110v750zM73 -188q16 48 21 70t5 53v25h92v-25q0 -31 -5 -53t-24 -70h-89z" />
    <glyph glyph-name="Lcaron" unicode="&#x13d;" horiz-adv-x="671" 
d="M90 0v750h115v-650h446v-100h-561zM371 520l32 230h95l-32 -230h-95z" />
    <glyph glyph-name="lcaron" unicode="&#x13e;" horiz-adv-x="378" 
d="M90 750h110v-750h-110v750zM251 520l32 230h95l-32 -230h-95z" />
    <glyph glyph-name="Ldot" unicode="&#x13f;" horiz-adv-x="671" 
d="M90 0v750h115v-650h446v-100h-561zM401 358v125h125v-125h-125z" />
    <glyph glyph-name="ldot" unicode="&#x140;" horiz-adv-x="380" 
d="M90 750h110v-750h-110v750zM370 326h-110v98h110v-98z" />
    <glyph glyph-name="Lslash" unicode="&#x141;" horiz-adv-x="671" 
d="M90 0v263l-105 -55v85l105 55v402h115v-342l260 135v-85l-260 -135v-223h446v-100h-561z" />
    <glyph glyph-name="lslash" unicode="&#x142;" horiz-adv-x="310" 
d="M25 248v75l75 52v375h110v-299l75 52v-75l-75 -52v-376h-110v300z" />
    <glyph glyph-name="Nacute" unicode="&#x143;" horiz-adv-x="970" 
d="M90 0v610q0 64 32 108.5t106 44.5q52 0 86 -30t69 -87l320 -517q9 -14 18 -23t18 -9q12 0 19 8.5t7 24.5v620h115v-617q0 -66 -33.5 -106t-98.5 -40q-55 0 -88.5 29t-63.5 77l-327 525q-10 16 -17 25.5t-19 9.5q-15 0 -21.5 -10t-6.5 -27v-616h-115zM441 822l70 188h106
l-78 -188h-98z" />
    <glyph glyph-name="nacute" unicode="&#x144;" horiz-adv-x="715" 
d="M80 0v600h338q113 0 165 -55t52 -160v-385h-110v397q0 59 -23 81t-76 22h-236v-500h-110zM314 672l70 188h106l-78 -188h-98z" />
    <glyph glyph-name="Ncommaaccent" unicode="&#x145;" horiz-adv-x="970" 
d="M90 0v610q0 64 32 108.5t106 44.5q52 0 86 -30t69 -87l320 -517q9 -14 18 -23t18 -9q12 0 19 8.5t7 24.5v620h115v-617q0 -66 -33.5 -106t-98.5 -40q-55 0 -88.5 29t-63.5 77l-327 525q-10 16 -17 25.5t-19 9.5q-15 0 -21.5 -10t-6.5 -27v-616h-115zM414 -188
q16 48 21 70t5 53v25h92v-25q0 -31 -5 -53t-24 -70h-89z" />
    <glyph glyph-name="ncommaaccent" unicode="&#x146;" horiz-adv-x="715" 
d="M80 0v600h338q113 0 165 -55t52 -160v-385h-110v397q0 59 -23 81t-76 22h-236v-500h-110zM287 -188q16 48 21 70t5 53v25h92v-25q0 -31 -5 -53t-24 -70h-89z" />
    <glyph glyph-name="Ncaron" unicode="&#x147;" horiz-adv-x="970" 
d="M90 0v610q0 64 32 108.5t106 44.5q52 0 86 -30t69 -87l320 -517q9 -14 18 -23t18 -9q12 0 19 8.5t7 24.5v620h115v-617q0 -66 -33.5 -106t-98.5 -40q-55 0 -88.5 29t-63.5 77l-327 525q-10 16 -17 25.5t-19 9.5q-15 0 -21.5 -10t-6.5 -27v-616h-115zM551 844
q-12 -16 -26 -27t-39 -11t-40 11t-26 27l-109 156h103l72 -109l71 109h103z" />
    <glyph glyph-name="ncaron" unicode="&#x148;" horiz-adv-x="715" 
d="M80 0v600h338q113 0 165 -55t52 -160v-385h-110v397q0 59 -23 81t-76 22h-236v-500h-110zM424 694q-12 -16 -26 -27t-39 -11t-40 11t-26 27l-109 156h103l72 -109l71 109h103z" />
    <glyph glyph-name="Eng" unicode="&#x14a;" horiz-adv-x="970" 
d="M395 -150v107h230q43 0 72.5 14t45.5 39l-474 608q-11 15 -17.5 25t-18.5 10q-15 0 -21.5 -10t-6.5 -27v-616h-115v610q0 64 32 108.5t106 44.5q26 0 45.5 -8t36.5 -22.5t34 -36.5t39 -50l382 -493v597h115v-635q0 -119 -67 -192t-213 -73h-205z" />
    <glyph glyph-name="eng" unicode="&#x14b;" horiz-adv-x="715" 
d="M80 0v600h338q113 0 165 -55t52 -160v-385q0 -78 -45.5 -114t-130.5 -36h-57v95h70q28 0 40.5 13t12.5 44v395q0 59 -23 81t-76 22h-236v-500h-110z" />
    <glyph glyph-name="Omacron" unicode="&#x14c;" horiz-adv-x="870" 
d="M815 315q0 -74 -19.5 -134.5t-59.5 -103t-102.5 -66t-148.5 -23.5h-100q-86 0 -149 23.5t-103 66t-59 103t-19 134.5v120q0 75 19 135.5t59 103.5t103 66t149 23h100q86 0 148.5 -23t102.5 -66t59.5 -103.5t19.5 -135.5v-120zM180 288q0 -100 44 -150t146 -50h130
q103 0 146.5 50t43.5 150v175q0 101 -43.5 150.5t-146.5 49.5h-130q-102 0 -146 -49.5t-44 -150.5v-175zM555 832h-240v78h240v-78z" />
    <glyph glyph-name="omacron" unicode="&#x14d;" horiz-adv-x="747" 
d="M682 349v-98q0 -125 -69 -194.5t-202 -69.5h-75q-140 0 -205.5 69.5t-65.5 194.5v98q0 125 65.5 194.5t205.5 69.5h75q133 0 202 -69.5t69 -194.5zM567 364q0 80 -30.5 117t-111.5 37h-104q-76 0 -108.5 -37t-32.5 -117v-128q0 -80 32.5 -117t108.5 -37h104
q81 0 111.5 37t30.5 117v128zM494 682h-240v78h240v-78z" />
    <glyph glyph-name="Obreve" unicode="&#x14e;" horiz-adv-x="870" 
d="M815 315q0 -74 -19.5 -134.5t-59.5 -103t-102.5 -66t-148.5 -23.5h-100q-86 0 -149 23.5t-103 66t-59 103t-19 134.5v120q0 75 19 135.5t59 103.5t103 66t149 23h100q86 0 148.5 -23t102.5 -66t59.5 -103.5t19.5 -135.5v-120zM180 288q0 -100 44 -150t146 -50h130
q103 0 146.5 50t43.5 150v175q0 101 -43.5 150.5t-146.5 49.5h-130q-102 0 -146 -49.5t-44 -150.5v-175zM278 980h77v-40q0 -22 11.5 -33.5t34.5 -11.5h70q24 0 34.5 11t10.5 34v40h76v-46q0 -43 -29 -75t-78 -32h-99q-51 0 -79.5 32t-28.5 75v46z" />
    <glyph glyph-name="obreve" unicode="&#x14f;" horiz-adv-x="747" 
d="M682 349v-98q0 -125 -69 -194.5t-202 -69.5h-75q-140 0 -205.5 69.5t-65.5 194.5v98q0 125 65.5 194.5t205.5 69.5h75q133 0 202 -69.5t69 -194.5zM567 364q0 80 -30.5 117t-111.5 37h-104q-76 0 -108.5 -37t-32.5 -117v-128q0 -80 32.5 -117t108.5 -37h104
q81 0 111.5 37t30.5 117v128zM217 830h77v-40q0 -22 11.5 -33.5t34.5 -11.5h70q24 0 34.5 11t10.5 34v40h76v-46q0 -43 -29 -75t-78 -32h-99q-51 0 -79.5 32t-28.5 75v46z" />
    <glyph glyph-name="Ohungarumlaut" unicode="&#x150;" horiz-adv-x="870" 
d="M815 315q0 -74 -19.5 -134.5t-59.5 -103t-102.5 -66t-148.5 -23.5h-100q-86 0 -149 23.5t-103 66t-59 103t-19 134.5v120q0 75 19 135.5t59 103.5t103 66t149 23h100q86 0 148.5 -23t102.5 -66t59.5 -103.5t19.5 -135.5v-120zM180 288q0 -100 44 -150t146 -50h130
q103 0 146.5 50t43.5 150v175q0 101 -43.5 150.5t-146.5 49.5h-130q-102 0 -146 -49.5t-44 -150.5v-175zM315 822l70 188h106l-78 -188h-98zM477 822l70 188h106l-78 -188h-98z" />
    <glyph glyph-name="ohungarumlaut" unicode="&#x151;" horiz-adv-x="747" 
d="M682 349v-98q0 -125 -69 -194.5t-202 -69.5h-75q-140 0 -205.5 69.5t-65.5 194.5v98q0 125 65.5 194.5t205.5 69.5h75q133 0 202 -69.5t69 -194.5zM567 364q0 80 -30.5 117t-111.5 37h-104q-76 0 -108.5 -37t-32.5 -117v-128q0 -80 32.5 -117t108.5 -37h104
q81 0 111.5 37t30.5 117v128zM254 672l70 188h106l-78 -188h-98zM416 672l70 188h106l-78 -188h-98z" />
    <glyph glyph-name="OE" unicode="&#x152;" horiz-adv-x="1258" 
d="M55 422q0 75 18.5 135.5t58 103.5t102.5 66t151 23h806v-100h-466v-219h466v-100h-466v-231h466v-100h-811q-84 0 -145.5 23t-101.5 66t-59 103.5t-19 135.5v94zM365 100h245v550h-240q-104 0 -147 -49.5t-43 -150.5v-149q0 -101 42 -151t143 -50z" />
    <glyph glyph-name="oe" unicode="&#x153;" horiz-adv-x="1198" 
d="M682 349v-98q0 -125 -69 -194.5t-202 -69.5h-75q-140 0 -205.5 69.5t-65.5 194.5v98q0 125 65.5 194.5t205.5 69.5h75q133 0 202 -69.5t69 -194.5zM567 364q0 80 -30.5 117t-111.5 37h-104q-76 0 -108.5 -37t-32.5 -117v-128q0 -80 32.5 -117t108.5 -37h104
q81 0 111.5 37t30.5 117v128zM1153 262h-472v-49q0 -60 37.5 -89t114.5 -29h301v-95h-286q-62 0 -114 13.5t-89 42.5t-58 74t-21 108v105q0 132 69.5 199t201.5 67h55q131 0 196 -59t65 -177v-111zM906 514h-84q-76 0 -108.5 -34t-32.5 -122v-5h357v35q0 67 -27 96.5
t-105 29.5z" />
    <glyph glyph-name="Racute" unicode="&#x154;" horiz-adv-x="803" 
d="M740 0h-140l-296 321q-15 16 -20.5 36t-0.5 37q5 16 21.5 27.5t41.5 11.5h173q65 0 90.5 20t25.5 74v31q0 54 -25.5 73t-90.5 19h-314v-650h-115v750h404q55 0 102.5 -9t82.5 -31t54.5 -59.5t19.5 -94.5v-27q0 -114 -69.5 -154t-194.5 -40h-49zM358 822l70 188h106
l-78 -188h-98z" />
    <glyph glyph-name="racute" unicode="&#x155;" horiz-adv-x="477" 
d="M80 415q0 91 57.5 138t145.5 47h174v-95h-179q-47 0 -67.5 -17.5t-20.5 -63.5v-424h-110v415zM250 672l70 188h106l-78 -188h-98z" />
    <glyph glyph-name="Rcommaaccent" unicode="&#x156;" horiz-adv-x="803" 
d="M740 0h-140l-296 321q-15 16 -20.5 36t-0.5 37q5 16 21.5 27.5t41.5 11.5h173q65 0 90.5 20t25.5 74v31q0 54 -25.5 73t-90.5 19h-314v-650h-115v750h404q55 0 102.5 -9t82.5 -31t54.5 -59.5t19.5 -94.5v-27q0 -114 -69.5 -154t-194.5 -40h-49zM330 -188q16 48 21 70
t5 53v25h92v-25q0 -31 -5 -53t-24 -70h-89z" />
    <glyph glyph-name="rcommaaccent" unicode="&#x157;" horiz-adv-x="477" 
d="M80 415q0 91 57.5 138t145.5 47h174v-95h-179q-47 0 -67.5 -17.5t-20.5 -63.5v-424h-110v415zM67 -188q16 48 21 70t5 53v25h92v-25q0 -31 -5 -53t-24 -70h-89z" />
    <glyph glyph-name="Rcaron" unicode="&#x158;" horiz-adv-x="803" 
d="M740 0h-140l-296 321q-15 16 -20.5 36t-0.5 37q5 16 21.5 27.5t41.5 11.5h173q65 0 90.5 20t25.5 74v31q0 54 -25.5 73t-90.5 19h-314v-650h-115v750h404q55 0 102.5 -9t82.5 -31t54.5 -59.5t19.5 -94.5v-27q0 -114 -69.5 -154t-194.5 -40h-49zM467 844q-12 -16 -26 -27
t-39 -11t-40 11t-26 27l-109 156h103l72 -109l71 109h103z" />
    <glyph glyph-name="rcaron" unicode="&#x159;" horiz-adv-x="477" 
d="M80 415q0 91 57.5 138t145.5 47h174v-95h-179q-47 0 -67.5 -17.5t-20.5 -63.5v-424h-110v415zM359 694q-12 -16 -26 -27t-39 -11t-40 11t-26 27l-109 156h103l72 -109l71 109h103z" />
    <glyph glyph-name="Sacute" unicode="&#x15a;" horiz-adv-x="705" 
d="M440 308l-190 52q-98 27 -151.5 72t-53.5 129t63.5 136.5t193.5 52.5h350v-100h-363q-72 0 -99.5 -25t-27.5 -59q0 -39 25.5 -61t93.5 -41l190 -54q99 -28 152.5 -74.5t53.5 -129.5q0 -93 -62.5 -149.5t-190.5 -56.5h-359v100h370q66 0 96.5 26t30.5 70q0 46 -25.5 69.5
t-96.5 42.5zM339 822l70 188h106l-78 -188h-98z" />
    <glyph glyph-name="sacute" unicode="&#x15b;" horiz-adv-x="627" 
d="M371 239l-147 31q-84 18 -131.5 56.5t-47.5 108.5q0 74 55 119.5t165 45.5h302v-95h-322q-51 0 -69 -19t-18 -45q0 -28 19 -44.5t69 -26.5l145 -30q93 -19 144.5 -55.5t51.5 -111.5q0 -78 -57 -125.5t-186 -47.5h-289v95h315q63 0 85 19.5t22 50.5q0 30 -23 45.5
t-83 28.5zM280 672l70 188h106l-78 -188h-98z" />
    <glyph glyph-name="Scedilla" unicode="&#x15e;" horiz-adv-x="705" 
d="M440 308l-190 52q-98 27 -151.5 72t-53.5 129t63.5 136.5t193.5 52.5h350v-100h-363q-72 0 -99.5 -25t-27.5 -59q0 -39 25.5 -61t93.5 -41l190 -54q99 -28 152.5 -74.5t53.5 -129.5q0 -93 -62.5 -149.5t-190.5 -56.5h-359v100h370q66 0 96.5 26t30.5 70q0 46 -25.5 69.5
t-96.5 42.5zM402 0l-70 -188h-106l78 188h98z" />
    <glyph glyph-name="scedilla" unicode="&#x15f;" horiz-adv-x="627" 
d="M371 239l-147 31q-84 18 -131.5 56.5t-47.5 108.5q0 74 55 119.5t165 45.5h302v-95h-322q-51 0 -69 -19t-18 -45q0 -28 19 -44.5t69 -26.5l145 -30q93 -19 144.5 -55.5t51.5 -111.5q0 -78 -57 -125.5t-186 -47.5h-289v95h315q63 0 85 19.5t22 50.5q0 30 -23 45.5
t-83 28.5zM343 0l-70 -188h-106l78 188h98z" />
    <glyph glyph-name="Scaron" unicode="&#x160;" horiz-adv-x="705" 
d="M440 308l-190 52q-98 27 -151.5 72t-53.5 129t63.5 136.5t193.5 52.5h350v-100h-363q-72 0 -99.5 -25t-27.5 -59q0 -39 25.5 -61t93.5 -41l190 -54q99 -28 152.5 -74.5t53.5 -129.5q0 -93 -62.5 -149.5t-190.5 -56.5h-359v100h370q66 0 96.5 26t30.5 70q0 46 -25.5 69.5
t-96.5 42.5zM449 844q-12 -16 -26 -27t-39 -11t-40 11t-26 27l-109 156h103l72 -109l71 109h103z" />
    <glyph glyph-name="scaron" unicode="&#x161;" horiz-adv-x="627" 
d="M371 239l-147 31q-84 18 -131.5 56.5t-47.5 108.5q0 74 55 119.5t165 45.5h302v-95h-322q-51 0 -69 -19t-18 -45q0 -28 19 -44.5t69 -26.5l145 -30q93 -19 144.5 -55.5t51.5 -111.5q0 -78 -57 -125.5t-186 -47.5h-289v95h315q63 0 85 19.5t22 50.5q0 30 -23 45.5
t-83 28.5zM389 694q-12 -16 -26 -27t-39 -11t-40 11t-26 27l-109 156h103l72 -109l71 109h103z" />
    <glyph glyph-name="Tcedilla" unicode="&#x162;" horiz-adv-x="745" 
d="M315 0v650h-300v100h715v-100h-300v-650h-115zM423 0l-70 -188h-106l78 188h98z" />
    <glyph glyph-name="tcedilla" unicode="&#x163;" horiz-adv-x="490" 
d="M15 505v95h100v117h107v-117h223v-95h-223v-343q0 -38 16 -52.5t52 -14.5h155v-95h-154q-84 0 -131.5 42t-47.5 126v337h-97zM364 0l-70 -188h-106l78 188h98z" />
    <glyph glyph-name="Tcaron" unicode="&#x164;" horiz-adv-x="745" 
d="M315 0v650h-300v100h715v-100h-300v-650h-115zM439 844q-12 -16 -26 -27t-39 -11t-40 11t-26 27l-109 156h103l72 -109l71 109h103z" />
    <glyph glyph-name="tcaron" unicode="&#x165;" horiz-adv-x="490" 
d="M273 649l42 170h95l-42 -170h-95zM15 505v95h100v117h107v-117h223v-95h-223v-343q0 -38 16 -52.5t52 -14.5h155v-95h-154q-84 0 -131.5 42t-47.5 126v337h-97z" />
    <glyph glyph-name="Tbar" unicode="&#x166;" horiz-adv-x="705" 
d="M315 0v325h-170v85h170v240h-300v100h715v-100h-300v-240h170v-85h-170v-325h-115z" />
    <glyph glyph-name="tbar" unicode="&#x167;" horiz-adv-x="490" 
d="M15 285v55h97v165h-97v95h100v117h107v-117h223v-95h-223v-165h133v-55h-133v-123q0 -38 16 -52.5t52 -14.5h155v-95h-154q-84 0 -131.5 42t-47.5 126v117h-97z" />
    <glyph glyph-name="Utilde" unicode="&#x168;" horiz-adv-x="880" 
d="M370 -13q-146 0 -213 59t-67 187v517h115v-525q0 -70 35.5 -104t110.5 -34h180q71 0 107.5 34t36.5 104v525h115v-517q0 -128 -68 -187t-222 -59h-130zM495 920q10 -10 16 -15t15 -5q8 0 13 6t5 19v81h87v-76q0 -53 -26 -83.5t-74 -30.5q-34 0 -58 14t-52 43l-34 35
q-10 10 -16 15t-14 5t-13.5 -6t-5.5 -19v-81h-87v78q0 54 27 83t73 29q34 0 58 -14t52 -43z" />
    <glyph glyph-name="utilde" unicode="&#x169;" horiz-adv-x="715" 
d="M635 600v-600h-338q-113 0 -165 55t-52 160v385h110v-397q0 -59 23 -81t76 -22h236v500h110zM403 770q10 -10 16 -15t15 -5q8 0 13 6t5 19v81h87v-76q0 -53 -26 -83.5t-74 -30.5q-34 0 -58 14t-52 43l-34 35q-10 10 -16 15t-14 5t-13.5 -6t-5.5 -19v-81h-87v78
q0 54 27 83t73 29q34 0 58 -14t52 -43z" />
    <glyph glyph-name="Umacron" unicode="&#x16a;" horiz-adv-x="880" 
d="M370 -13q-146 0 -213 59t-67 187v517h115v-525q0 -70 35.5 -104t110.5 -34h180q71 0 107.5 34t36.5 104v525h115v-517q0 -128 -68 -187t-222 -59h-130zM560 832h-240v78h240v-78z" />
    <glyph glyph-name="umacron" unicode="&#x16b;" horiz-adv-x="715" 
d="M635 600v-600h-338q-113 0 -165 55t-52 160v385h110v-397q0 -59 23 -81t76 -22h236v500h110zM468 682h-240v78h240v-78z" />
    <glyph glyph-name="Ubreve" unicode="&#x16c;" horiz-adv-x="880" 
d="M370 -13q-146 0 -213 59t-67 187v517h115v-525q0 -70 35.5 -104t110.5 -34h180q71 0 107.5 34t36.5 104v525h115v-517q0 -128 -68 -187t-222 -59h-130zM283 980h77v-40q0 -22 11.5 -33.5t34.5 -11.5h70q24 0 34.5 11t10.5 34v40h76v-46q0 -43 -29 -75t-78 -32h-99
q-51 0 -79.5 32t-28.5 75v46z" />
    <glyph glyph-name="ubreve" unicode="&#x16d;" horiz-adv-x="715" 
d="M635 600v-600h-338q-113 0 -165 55t-52 160v385h110v-397q0 -59 23 -81t76 -22h236v500h110zM190 830h77v-40q0 -22 11.5 -33.5t34.5 -11.5h70q24 0 34.5 11t10.5 34v40h76v-46q0 -43 -29 -75t-78 -32h-99q-51 0 -79.5 32t-28.5 75v46z" />
    <glyph glyph-name="Uring" unicode="&#x16e;" horiz-adv-x="880" 
d="M370 -13q-146 0 -213 59t-67 187v517h115v-525q0 -70 35.5 -104t110.5 -34h180q71 0 107.5 34t36.5 104v525h115v-517q0 -128 -68 -187t-222 -59h-130zM333 904v24q0 39 25.5 63t62.5 24h39q37 0 62.5 -24t25.5 -63v-24q0 -39 -25.5 -63t-62.5 -24h-39q-37 0 -62.5 24
t-25.5 63zM393 926v-20q0 -17 10 -27.5t25 -10.5h25q15 0 25.5 10.5t10.5 27.5v20q0 17 -10.5 27.5t-25.5 10.5h-25q-15 0 -25 -10.5t-10 -27.5z" />
    <glyph glyph-name="uring" unicode="&#x16f;" horiz-adv-x="715" 
d="M635 600v-600h-338q-113 0 -165 55t-52 160v385h110v-397q0 -59 23 -81t76 -22h236v500h110zM240 754v24q0 39 25.5 63t62.5 24h39q37 0 62.5 -24t25.5 -63v-24q0 -39 -25.5 -63t-62.5 -24h-39q-37 0 -62.5 24t-25.5 63zM300 776v-20q0 -17 10 -27.5t25 -10.5h25
q15 0 25.5 10.5t10.5 27.5v20q0 17 -10.5 27.5t-25.5 10.5h-25q-15 0 -25 -10.5t-10 -27.5z" />
    <glyph glyph-name="Uhungarumlaut" unicode="&#x170;" horiz-adv-x="880" 
d="M370 -13q-146 0 -213 59t-67 187v517h115v-525q0 -70 35.5 -104t110.5 -34h180q71 0 107.5 34t36.5 104v525h115v-517q0 -128 -68 -187t-222 -59h-130zM320 822l70 188h106l-78 -188h-98zM482 822l70 188h106l-78 -188h-98z" />
    <glyph glyph-name="uhungarumlaut" unicode="&#x171;" horiz-adv-x="715" 
d="M635 600v-600h-338q-113 0 -165 55t-52 160v385h110v-397q0 -59 23 -81t76 -22h236v500h110zM228 672l70 188h106l-78 -188h-98zM390 672l70 188h106l-78 -188h-98z" />
    <glyph glyph-name="Uogonek" unicode="&#x172;" horiz-adv-x="880" 
d="M370 -13q-146 0 -213 59t-67 187v517h115v-525q0 -70 35.5 -104t110.5 -34h180q71 0 107.5 34t36.5 104v525h115v-517q0 -128 -68 -187t-222 -59h-130zM448 0h92l-48 -58q-10 -13 -16.5 -21t-6.5 -18t8 -17t24 -7h39v-69h-65q-55 0 -79.5 21t-24.5 52q0 19 9.5 39
t34.5 45z" />
    <glyph glyph-name="uogonek" unicode="&#x173;" horiz-adv-x="715" 
d="M635 600v-600h-338q-113 0 -165 55t-52 160v385h110v-397q0 -59 23 -81t76 -22h236v500h110zM533 0h92l-48 -58q-10 -13 -16.5 -21t-6.5 -18t8 -17t24 -7h39v-69h-65q-55 0 -79.5 21t-24.5 52q0 19 9.5 39t34.5 45z" />
    <glyph glyph-name="Wcircumflex" unicode="&#x174;" horiz-adv-x="1232" 
d="M155 750l172 -622q4 -14 9 -20.5t14 -6.5t13 5t8 21l115 493q15 64 42 103.5t89 39.5q64 0 91 -41.5t41 -103.5l113 -489q4 -17 8.5 -22.5t14.5 -5.5q8 0 12.5 6.5t8.5 20.5l172 622h119l-177 -630q-18 -63 -47 -98t-89 -35q-66 0 -95 37t-42 97l-112 498
q-3 13 -6.5 20.5t-11.5 7.5q-9 0 -12 -7t-6 -20l-114 -499q-13 -60 -41.5 -97t-93.5 -37q-61 0 -90.5 34.5t-47.5 98.5l-177 630h120zM687 822l-71 109l-72 -109h-103l109 156q11 16 26 27t40 11t39 -11t26 -27l109 -156h-103z" />
    <glyph glyph-name="wcircumflex" unicode="&#x175;" horiz-adv-x="1010" 
d="M506 613q49 0 79.5 -31t44.5 -91l88 -382q2 -8 6 -14t12 -6t11.5 5t5.5 15l115 491h117l-134 -510q-12 -46 -39.5 -74.5t-72.5 -28.5q-57 0 -82.5 28.5t-37.5 79.5l-94 398q-3 11 -7.5 17t-11.5 6q-10 0 -14.5 -6.5t-6.5 -16.5l-94 -398q-12 -51 -38 -79.5t-80 -28.5
q-47 0 -74 27t-40 76l-134 510h120l112 -490q2 -9 6 -15t12 -6q7 0 11 6t6 15l89 381q14 60 42.5 91t82.5 31zM577 672l-71 109l-72 -109h-103l109 156q11 16 26 27t40 11t39 -11t26 -27l109 -156h-103z" />
    <glyph glyph-name="Ycircumflex" unicode="&#x176;" horiz-adv-x="780" 
d="M333 0v268l-323 482h137l225 -354q6 -10 18.5 -10t18.5 10l231 354h130l-322 -481v-269h-115zM461 822l-71 109l-72 -109h-103l109 156q11 16 26 27t40 11t39 -11t26 -27l109 -156h-103z" />
    <glyph glyph-name="ycircumflex" unicode="&#x177;" horiz-adv-x="672" 
d="M329 152q4 -7 9 -11t10 -4t10 4t8 11l180 448h121l-257 -613q-33 -78 -81.5 -107.5t-129.5 -29.5h-138v92h137q48 0 71 15.5t35 43.5l20 49h-5q-28 0 -53 15.5t-44 56.5l-217 478h126zM407 672l-71 109l-72 -109h-103l109 156q11 16 26 27t40 11t39 -11t26 -27l109 -156
h-103z" />
    <glyph glyph-name="Ydieresis" unicode="&#x178;" horiz-adv-x="780" 
d="M333 0v268l-323 482h137l225 -354q6 -10 18.5 -10t18.5 10l231 354h130l-322 -481v-269h-115zM350 842h-110v106h110v-106zM540 842h-110v106h110v-106z" />
    <glyph glyph-name="Zacute" unicode="&#x179;" horiz-adv-x="705" 
d="M657 0h-457q-85 0 -122.5 36t-37.5 91q0 46 32 84t91 83l343 262q21 16 30 27.5t9 29.5q0 19 -13.5 28t-39.5 9h-434v100h434q92 0 132.5 -36t40.5 -99q0 -46 -23 -78t-72 -68l-367 -274q-23 -17 -33 -29t-10 -29q0 -19 12.5 -28t31.5 -9h453v-100zM309 822l70 188h106
l-78 -188h-98z" />
    <glyph glyph-name="zacute" unicode="&#x17a;" horiz-adv-x="648" 
d="M594 0h-420q-67 0 -99.5 28t-32.5 70q0 34 17 60t60 58l329 245q7 5 10.5 10.5t3.5 13.5q0 10 -6.5 15t-19.5 5h-374v95h373q67 0 107 -22.5t40 -78.5q0 -31 -21.5 -60.5t-70.5 -66.5l-313 -236q-7 -6 -11 -11t-4 -12q0 -10 7 -14t18 -4h407v-95zM280 672l70 188h106
l-78 -188h-98z" />
    <glyph glyph-name="Zdotaccent" unicode="&#x17b;" horiz-adv-x="705" 
d="M657 0h-457q-85 0 -122.5 36t-37.5 91q0 46 32 84t91 83l343 262q21 16 30 27.5t9 29.5q0 19 -13.5 28t-39.5 9h-434v100h434q92 0 132.5 -36t40.5 -99q0 -46 -23 -78t-72 -68l-367 -274q-23 -17 -33 -29t-10 -29q0 -19 12.5 -28t31.5 -9h453v-100zM408 822h-110v98h110
v-98z" />
    <glyph glyph-name="zdotaccent" unicode="&#x17c;" horiz-adv-x="648" 
d="M594 0h-420q-67 0 -99.5 28t-32.5 70q0 34 17 60t60 58l329 245q7 5 10.5 10.5t3.5 13.5q0 10 -6.5 15t-19.5 5h-374v95h373q67 0 107 -22.5t40 -78.5q0 -31 -21.5 -60.5t-70.5 -66.5l-313 -236q-7 -6 -11 -11t-4 -12q0 -10 7 -14t18 -4h407v-95zM379 672h-110v98h110
v-98z" />
    <glyph glyph-name="Zcaron" unicode="&#x17d;" horiz-adv-x="705" 
d="M657 0h-457q-85 0 -122.5 36t-37.5 91q0 46 32 84t91 83l343 262q21 16 30 27.5t9 29.5q0 19 -13.5 28t-39.5 9h-434v100h434q92 0 132.5 -36t40.5 -99q0 -46 -23 -78t-72 -68l-367 -274q-23 -17 -33 -29t-10 -29q0 -19 12.5 -28t31.5 -9h453v-100zM418 844
q-12 -16 -26 -27t-39 -11t-40 11t-26 27l-109 156h103l72 -109l71 109h103z" />
    <glyph glyph-name="zcaron" unicode="&#x17e;" horiz-adv-x="648" 
d="M594 0h-420q-67 0 -99.5 28t-32.5 70q0 34 17 60t60 58l329 245q7 5 10.5 10.5t3.5 13.5q0 10 -6.5 15t-19.5 5h-374v95h373q67 0 107 -22.5t40 -78.5q0 -31 -21.5 -60.5t-70.5 -66.5l-313 -236q-7 -6 -11 -11t-4 -12q0 -10 7 -14t18 -4h407v-95zM389 694
q-12 -16 -26 -27t-39 -11t-40 11t-26 27l-109 156h103l72 -109l71 109h103z" />
    <glyph glyph-name="Schwa" unicode="&#x18f;" horiz-adv-x="797" 
d="M55 427h562v109q0 60 -37.5 89.5t-114.5 29.5h-391v95h386q62 0 114 -14t89 -42.5t58 -74t21 -108.5v-265q0 -122 -64.5 -184t-196.5 -62h-155q-131 0 -201 59t-70 177v191zM322 95h164q76 0 103.5 33.5t27.5 102.5v105h-437v-115q0 -67 32 -96.5t110 -29.5z" />
    <glyph glyph-name="Scommaaccent" unicode="&#x218;" horiz-adv-x="705" 
d="M440 308l-190 52q-98 27 -151.5 72t-53.5 129t63.5 136.5t193.5 52.5h350v-100h-363q-72 0 -99.5 -25t-27.5 -59q0 -39 25.5 -61t93.5 -41l190 -54q99 -28 152.5 -74.5t53.5 -129.5q0 -93 -62.5 -149.5t-190.5 -56.5h-359v100h370q66 0 96.5 26t30.5 70q0 46 -25.5 69.5
t-96.5 42.5zM281 -188q16 48 21 70t5 53v25h92v-25q0 -31 -5 -53t-24 -70h-89z" />
    <glyph glyph-name="scommaaccent" unicode="&#x219;" horiz-adv-x="627" 
d="M371 239l-147 31q-84 18 -131.5 56.5t-47.5 108.5q0 74 55 119.5t165 45.5h302v-95h-322q-51 0 -69 -19t-18 -45q0 -28 19 -44.5t69 -26.5l145 -30q93 -19 144.5 -55.5t51.5 -111.5q0 -78 -57 -125.5t-186 -47.5h-289v95h315q63 0 85 19.5t22 50.5q0 30 -23 45.5
t-83 28.5zM222 -188q16 48 21 70t5 53v25h92v-25q0 -31 -5 -53t-24 -70h-89z" />
    <glyph glyph-name="Tcommaaccent" unicode="&#x21a;" horiz-adv-x="745" 
d="M315 0v650h-300v100h715v-100h-300v-650h-115zM302 -188q16 48 21 70t5 53v25h92v-25q0 -31 -5 -53t-24 -70h-89z" />
    <glyph glyph-name="tcommaaccent" unicode="&#x21b;" horiz-adv-x="490" 
d="M15 505v95h100v117h107v-117h223v-95h-223v-343q0 -38 16 -52.5t52 -14.5h155v-95h-154q-84 0 -131.5 42t-47.5 126v337h-97zM243 -188q16 48 21 70t5 53v25h92v-25q0 -31 -5 -53t-24 -70h-89z" />
    <glyph glyph-name="ipa:schwa" unicode="&#x259;" horiz-adv-x="707" 
d="M55 338h472v49q0 60 -37.5 89t-114.5 29h-301v95h286q62 0 114 -13.5t89 -42.5t58 -74t21 -108v-105q0 -132 -69.5 -199t-201.5 -67h-55q-131 0 -196 59t-65 177v111zM302 86h84q76 0 108.5 34t32.5 122v5h-357v-35q0 -67 27 -96.5t105 -29.5z" />
    <glyph glyph-name="circumflex" unicode="&#x2c6;" horiz-adv-x="707" 
d="M425 672l-71 109l-72 -109h-103l109 156q11 16 26 27t40 11t39 -11t26 -27l109 -156h-103z" />
    <glyph glyph-name="caron" unicode="&#x2c7;" horiz-adv-x="707" 
d="M419 694q-12 -16 -26 -27t-39 -11t-40 11t-26 27l-109 156h103l72 -109l71 109h103z" />
    <glyph glyph-name="breve" unicode="&#x2d8;" horiz-adv-x="727" 
d="M206 830h77v-40q0 -22 11.5 -33.5t34.5 -11.5h70q24 0 34.5 11t10.5 34v40h76v-46q0 -43 -29 -75t-78 -32h-99q-51 0 -79.5 32t-28.5 75v46z" />
    <glyph glyph-name="dotaccent" unicode="&#x2d9;" horiz-adv-x="510" 
d="M310 672h-110v98h110v-98z" />
    <glyph glyph-name="ring" unicode="&#x2da;" horiz-adv-x="727" 
d="M256 754v24q0 39 25.5 63t62.5 24h39q37 0 62.5 -24t25.5 -63v-24q0 -39 -25.5 -63t-62.5 -24h-39q-37 0 -62.5 24t-25.5 63zM316 776v-20q0 -17 10 -27.5t25 -10.5h25q15 0 25.5 10.5t10.5 27.5v20q0 17 -10.5 27.5t-25.5 10.5h-25q-15 0 -25 -10.5t-10 -27.5z" />
    <glyph glyph-name="ogonek" unicode="&#x2db;" horiz-adv-x="326" 
d="M134 0h92l-48 -58q-10 -13 -16.5 -21t-6.5 -18t8 -17t24 -7h39v-69h-65q-55 0 -79.5 21t-24.5 52q0 19 9.5 39t34.5 45z" />
    <glyph glyph-name="tilde" unicode="&#x2dc;" horiz-adv-x="860" 
d="M485 770q10 -10 16 -15t15 -5q8 0 13 6t5 19v81h87v-76q0 -53 -26 -83.5t-74 -30.5q-34 0 -58 14t-52 43l-34 35q-10 10 -16 15t-14 5t-13.5 -6t-5.5 -19v-81h-87v78q0 54 27 83t73 29q34 0 58 -14t52 -43z" />
    <glyph glyph-name="hungarumlaut" unicode="&#x2dd;" horiz-adv-x="510" 
d="M135 672l70 188h106l-78 -188h-98zM297 672l70 188h106l-78 -188h-98z" />
    <glyph glyph-name="thinspace" unicode="&#x2009;" horiz-adv-x="130" 
 />
    <glyph glyph-name="endash" unicode="&#x2013;" horiz-adv-x="486" 
d="M50 252v100h386v-100h-386z" />
    <glyph glyph-name="emdash" unicode="&#x2014;" horiz-adv-x="686" 
d="M50 252v100h586v-100h-586z" />
    <glyph glyph-name="quoteleft" unicode="&#x2018;" horiz-adv-x="256" 
d="M213 751q-14 -37 -22.5 -60.5t-13 -42.5t-5.5 -40.5t-1 -55.5v-81h-110v80q0 35 1.5 57.5t6.5 42t15.5 42t28.5 58.5h100z" />
    <glyph glyph-name="quoteright" unicode="&#x2019;" horiz-adv-x="256" 
d="M41 470q14 37 22.5 60.5t13 42.5t5.5 40.5t1 55.5v81h110v-80q0 -35 -1.5 -57.5t-6.5 -42t-15.5 -42t-28.5 -58.5h-100z" />
    <glyph glyph-name="quotesinglbase" unicode="&#x201a;" horiz-adv-x="256" 
d="M41 -140q14 37 22.5 60.5t13 42.5t5.5 40.5t1 55.5v81h110v-80q0 -35 -1.5 -57.5t-6.5 -42t-15.5 -42t-28.5 -58.5h-100z" />
    <glyph glyph-name="quotedblleft" unicode="&#x201c;" horiz-adv-x="403" 
d="M214 750q-14 -37 -22.5 -60.5t-13 -42.5t-5.5 -40.5t-1 -55.5v-81h-110v80q0 35 1.5 57.5t6.5 42t15.5 42t28.5 58.5h100zM373 750q-14 -37 -22.5 -60.5t-13 -42.5t-5.5 -40.5t-1 -55.5v-81h-110v80q0 35 1.5 57.5t6.5 42t15.5 42t28.5 58.5h100z" />
    <glyph glyph-name="quotedblright" unicode="&#x201d;" horiz-adv-x="403" 
d="M189 470q14 37 22.5 60.5t13 42.5t5.5 40.5t1 55.5v81h110v-80q0 -35 -1.5 -57.5t-6.5 -42t-15.5 -42t-28.5 -58.5h-100zM30 470q14 37 22.5 60.5t13 42.5t5.5 40.5t1 55.5v81h110v-80q0 -35 -1.5 -57.5t-6.5 -42t-15.5 -42t-28.5 -58.5h-100z" />
    <glyph glyph-name="quotedblbase" unicode="&#x201e;" horiz-adv-x="403" 
d="M189 -140q14 37 22.5 60.5t13 42.5t5.5 40.5t1 55.5v81h110v-80q0 -35 -1.5 -57.5t-6.5 -42t-15.5 -42t-28.5 -58.5h-100zM30 -140q14 37 22.5 60.5t13 42.5t5.5 40.5t1 55.5v81h110v-80q0 -35 -1.5 -57.5t-6.5 -42t-15.5 -42t-28.5 -58.5h-100z" />
    <glyph glyph-name="dagger" unicode="&#x2020;" horiz-adv-x="586" 
d="M50 470v100h178v180h110v-180h198v-100h-198v-470h-110v470h-178z" />
    <glyph glyph-name="daggerdbl" unicode="&#x2021;" horiz-adv-x="586" 
d="M50 180v100h178v190h-178v100h178v180h110v-180h198v-100h-198v-190h198v-100h-198v-180h-110v180h-178z" />
    <glyph glyph-name="bullet" unicode="&#x2022;" horiz-adv-x="466" 
d="M100 282v36q0 53 28.5 84.5t82.5 31.5h44q54 0 82.5 -31.5t28.5 -84.5v-36q0 -53 -28.5 -85t-82.5 -32h-44q-54 0 -82.5 32t-28.5 85z" />
    <glyph glyph-name="ellipsis" unicode="&#x2026;" horiz-adv-x="665" 
d="M470 0v125h125v-125h-125zM70 0v125h125v-125h-125zM270 0v125h125v-125h-125z" />
    <glyph glyph-name="perthousand" unicode="&#x2030;" horiz-adv-x="1298" 
d="M40 554v57q0 69 44.5 110.5t111.5 41.5h70q63 0 109.5 -41.5t46.5 -110.5v-57q0 -69 -46.5 -110.5t-109.5 -41.5h-70q-67 0 -111.5 41.5t-44.5 110.5zM562 419h-113l195 331h114zM144 603v-45q0 -32 15 -52t47 -20h49q35 0 49 20t14 52v45q0 34 -14 55t-49 21h-49
q-32 0 -47 -21t-15 -55zM876 140v57q0 69 44.5 110.5t111.5 41.5h70q63 0 109.5 -41.5t46.5 -110.5v-57q0 -69 -46.5 -110.5t-109.5 -41.5h-70q-67 0 -111.5 41.5t-44.5 110.5zM436 140v57q0 69 44.5 110.5t111.5 41.5h70q63 0 109.5 -41.5t46.5 -110.5v-57
q0 -69 -46.5 -110.5t-109.5 -41.5h-70q-67 0 -111.5 41.5t-44.5 110.5zM299 331h113l-195 -331h-114zM980 189v-45q0 -32 15 -52t47 -20h49q35 0 49 20t14 52v45q0 34 -14 55t-49 21h-49q-32 0 -47 -21t-15 -55zM540 189v-45q0 -32 15 -52t47 -20h49q35 0 49 20t14 52v45
q0 34 -14 55t-49 21h-49q-32 0 -47 -21t-15 -55z" />
    <glyph glyph-name="guilsinglleft" unicode="&#x2039;" horiz-adv-x="461" 
d="M371 258v-123l-254 168q-25 16 -36 34t-11 34v9q0 16 11 34t36 34l254 168v-123l-191 -117z" />
    <glyph glyph-name="guilsinglright" unicode="&#x203a;" horiz-adv-x="461" 
d="M344 303l-254 -168v123l191 118l-191 117v123l254 -168q25 -16 36 -34t11 -34v-9q0 -16 -11 -34t-36 -34z" />
    <glyph glyph-name="Euro" unicode="&#x20ac;" horiz-adv-x="856" 
d="M50 245v100h105v70h-105v100h113q20 109 97.5 172t224.5 63h326v-100h-341q-86 0 -130 -33.5t-55 -101.5h422v-100h-427v-70h427v-100h-424q10 -73 54 -109t133 -36h346v-100h-331q-150 0 -227.5 66t-96.5 179h-111z" />
    <glyph glyph-name="manat" unicode="&#x20bc;" horiz-adv-x="928" 
d="M629 500h-110v-400h-110v400h-110q-53 0 -76 -22t-23 -81v-397h-110v385q0 105 52 160t165 55h102v150h110v-150h102q113 0 165 -55t52 -160v-385h-110v397q0 59 -23 81t-76 22z" />
    <glyph glyph-name="ruble" unicode="&#x20bd;" horiz-adv-x="856" 
d="M15 225h145v80h-145v100h145v345h382q54 0 103.5 -9.5t87.5 -33t60.5 -64t22.5 -101.5v-29q0 -61 -22.5 -101.5t-60.5 -64t-87.5 -33t-103.5 -9.5h-267v-80h285v-100h-285v-125h-115v125h-145v100zM275 650v-245h285q77 0 106.5 26t29.5 80v33q0 54 -29.5 80t-106.5 26
h-285z" />
    <glyph glyph-name="numero" unicode="&#x2116;" horiz-adv-x="1523" 
d="M90 0v610q0 64 32 108.5t106 44.5q52 0 86 -30t69 -87l320 -517q9 -14 18 -23t18 -9q12 0 19 8.5t7 24.5v620h115v-617q0 -66 -33.5 -106t-98.5 -40q-55 0 -88.5 29t-63.5 77l-327 525q-10 16 -17 25.5t-19 9.5q-15 0 -21.5 -10t-6.5 -27v-616h-115zM1473 518v-25
q0 -113 -62 -175t-182 -62h-22q-125 0 -184.5 62t-59.5 175v25q0 113 59.5 175.5t184.5 62.5h22q120 0 182 -62.5t62 -175.5zM1364 531q0 69 -26.5 101.5t-95.5 32.5h-47q-66 0 -94 -32.5t-28 -101.5v-49q0 -71 28 -103t94 -32h47q69 0 95.5 32t26.5 103v49zM1010 92v96h416
v-96h-416z" />
    <glyph glyph-name="trademark" unicode="&#x2122;" horiz-adv-x="721" 
d="M499 520q4 0 6.5 3t3.5 8l28 172q5 33 26 46.5t49 13.5q35 0 54.5 -18t19.5 -51v-232h-66v221q0 8 -1.5 12.5t-8.5 4.5q-6 0 -8.5 -4.5t-3.5 -11.5l-30 -166q-7 -36 -26 -48.5t-44 -12.5q-23 0 -42.5 12.5t-26.5 48.5l-30 166q-1 7 -3.5 11.5t-8.5 4.5q-5 0 -7.5 -4.5
t-2.5 -12.5v-221h-66v232q0 33 20 51t54 18q29 0 49.5 -13.5t25.5 -46.5l28 -172q1 -6 4 -8.5t7 -2.5zM103 462v236h-93v57h251v-57h-93v-236h-65z" />
    <glyph glyph-name="onethird" unicode="&#x2153;" horiz-adv-x="840" 
d="M574 419h-108l155 331h109zM100 419v70h82v171q0 7 -3.5 11t-9.5 4h-69v75h89q37 0 61 -24t24 -59v-178h81v-70h-255zM539 202l74 56h-150v74h277v-60l-110 -80q63 0 86.5 -22t23.5 -50v-32q0 -43 -32.5 -65t-95.5 -22h-142v74h153q12 0 18 4.5t6 19.5v10q0 14 -6.5 18
t-16.5 4h-78q-18 0 -27 9.5t-9 23.5q0 13 8 21t21 17zM281 331h108l-155 -331h-109z" />
    <glyph glyph-name="arrowleft" unicode="&#x2190;" horiz-adv-x="734" 
d="M694 425v-100h-528l349 -326h-148l-260 245q-41 39 -59 67.5t-18 62.5t19 64t59 68l259 244h148l-348 -325h527z" />
    <glyph glyph-name="arrowup" unicode="&#x2191;" horiz-adv-x="871" 
d="M493 0h-115v616l-338 -336v144l265 260q40 40 68 58.5t62 18.5t63 -19.5t69 -58.5l264 -259v-144l-338 337v-617z" />
    <glyph glyph-name="arrowright" unicode="&#x2192;" horiz-adv-x="734" 
d="M219 -1l348 325h-527v100h528l-349 326h148l260 -245q41 -39 59 -67.5t18 -62.5t-19 -64t-59 -68l-259 -244h-148z" />
    <glyph glyph-name="arrowdown" unicode="&#x2193;" horiz-adv-x="871" 
d="M493 750v-617l338 337v-144l-264 -259q-40 -39 -69 -58.5t-63 -19.5t-62 18.5t-68 58.5l-265 260v144l338 -336v616h115z" />
    <glyph glyph-name="arrowNW" unicode="&#x2196;" horiz-adv-x="828" 
d="M768 129l-80 -79l-483 484v-484h-105v488q0 54 7 86.5t30 55.5q23 24 56.5 30.5t87.5 6.5h487v-105h-484z" />
    <glyph glyph-name="arrowNE" unicode="&#x2197;" horiz-adv-x="828" 
d="M60 129l484 483h-484v105h487q54 0 87.5 -6.5t56.5 -30.5q23 -23 30 -55.5t7 -86.5v-488h-105v484l-483 -484z" />
    <glyph glyph-name="arrowSE" unicode="&#x2198;" horiz-adv-x="828" 
d="M60 138h484l-484 483l80 79l483 -484v484h105v-488q0 -54 -7 -86.5t-30 -55.5q-23 -24 -56.5 -30.5t-87.5 -6.5h-487v105z" />
    <glyph glyph-name="arrowSW" unicode="&#x2199;" horiz-adv-x="828" 
d="M768 138v-105h-487q-54 0 -87.5 6.5t-56.5 30.5q-23 23 -30 55.5t-7 86.5v488h105v-484l483 484l80 -79l-484 -483h484z" />
    <glyph glyph-name="minus" unicode="&#x2212;" horiz-adv-x="486" 
d="M50 325v100h386v-100h-386z" />
    <glyph glyph-name="squareblack" unicode="&#x25a0;" horiz-adv-x="670" 
d="M579 132h-487v487h487v-487z" />
    <glyph glyph-name="triangleupblack" unicode="&#x25b2;" horiz-adv-x="691" 
d="M86 186l259 449l260 -449h-519z" />
    <glyph glyph-name="trianglerightblack" unicode="&#x25b6;" horiz-adv-x="610" 
d="M86 635l449 -259l-449 -260v519z" />
    <glyph glyph-name="triangledownblack" unicode="&#x25bc;" horiz-adv-x="691" 
d="M86 584h519l-260 -449z" />
    <glyph glyph-name="triangleleftblack" unicode="&#x25c0;" horiz-adv-x="610" 
d="M524 635v-519l-449 260z" />
    <glyph glyph-name="circleblack" unicode="&#x25cf;" horiz-adv-x="723" 
d="M361 114q-56 0 -105.5 19.5t-86 54t-58 82.5t-21.5 104t21.5 104.5t58 83.5t86 55t105.5 20t105.5 -20t86.5 -55t58.5 -83.5t21.5 -104.5t-21.5 -104t-58.5 -82.5t-86.5 -54t-105.5 -19.5z" />
    <glyph glyph-name="commaaccent" unicode="&#xf6c3;" horiz-adv-x="637" 
d="M247 -188q16 48 21 70t5 53v25h92v-25q0 -31 -5 -53t-24 -70h-89z" />
    <glyph glyph-name="twothird" horiz-adv-x="840" 
d="M574 419h-108l155 331h109zM373 491v-72h-273v54q0 44 21 71t79 58l63 32q10 5 14.5 10.5t4.5 12.5q0 12 -8.5 16t-21.5 4h-145v73h153q60 0 88.5 -22t28.5 -59q0 -43 -25.5 -64.5t-73.5 -47.5l-55 -30q-15 -8 -19 -14t-4 -14v-8h173zM539 202l74 56h-150v74h277v-60
l-110 -80q63 0 86.5 -22t23.5 -50v-32q0 -43 -32.5 -65t-95.5 -22h-142v74h153q12 0 18 4.5t6 19.5v10q0 14 -6.5 18t-16.5 4h-78q-18 0 -27 9.5t-9 23.5q0 13 8 21t21 17zM281 331h108l-155 -331h-109z" />
    <glyph glyph-name="threequarter" horiz-adv-x="840" 
d="M574 419h-108l155 331h109zM176 620l74 56h-150v74h277v-60l-110 -80q63 0 86.5 -22t23.5 -50v-32q0 -43 -32.5 -65t-95.5 -22h-142v74h153q12 0 18 4.5t6 19.5v10q0 14 -6.5 18t-16.5 4h-78q-18 0 -27 9.5t-9 23.5q0 13 8 21t21 17zM479 49q-42 0 -62 17t-20 43
q0 17 8.5 34.5t28.5 42.5l76 96q19 24 42 38.5t50 14.5h13q31 0 52.5 -19.5t21.5 -61.5v-135h51v-70h-51v-49h-90v49h-120zM281 331h108l-155 -331h-109zM507 119h92v127q0 4 -2 5.5t-5 1.5q-2 0 -4 -1t-4 -3l-85 -113q-2 -2 -3 -4.5t-1 -4.5q0 -3 2.5 -5.5t9.5 -2.5z" />
    <glyph glyph-name="caron.alt" horiz-adv-x="256" 
d="M41 520l32 230h95l-32 -230h-95z" />
    <glyph glyph-name="zero.tnum" 
d="M770 315q0 -74 -19.5 -134.5t-59.5 -103t-102.5 -66t-148.5 -23.5h-30q-86 0 -149 23.5t-103 66t-59 103t-19 134.5v120q0 75 19 135.5t59 103.5t103 66t149 23h30q86 0 148.5 -23t102.5 -66t59.5 -103.5t19.5 -135.5v-120zM205 288q0 -100 44 -150t146 -50h60
q103 0 146.5 50t43.5 150v175q0 101 -43.5 150.5t-146.5 49.5h-60q-102 0 -146 -49.5t-44 -150.5v-175z" />
    <glyph glyph-name="one.tnum" 
d="M115 0v100h277v517q0 16 -7.5 24.5t-22.5 8.5h-234v100h252q67 0 97 -33t30 -99v-518h250v-100h-642z" />
    <glyph glyph-name="two.tnum" 
d="M733 100v-100h-617v123q0 63 30.5 111t99.5 88l296 168q40 22 59.5 42t19.5 51q0 27 -18 47t-64 20h-414v100h418q103 0 150.5 -46.5t47.5 -118.5q0 -73 -38 -111.5t-97 -70.5l-306 -168q-32 -17 -50.5 -40t-18.5 -51v-44h502z" />
    <glyph glyph-name="three.tnum" 
d="M252 435l280 215h-411v100h606v-80l-316 -244h88q116 0 173.5 -43.5t57.5 -122.5v-83q0 -104 -68.5 -140.5t-199.5 -36.5h-331v100h364q70 0 96.5 21t26.5 62v53q0 41 -26.5 67.5t-98.5 26.5h-208q-25 0 -42 10.5t-21 25.5q-5 18 2 35.5t28 33.5z" />
    <glyph glyph-name="four.tnum" 
d="M190 148q-67 0 -96 30.5t-29 74.5q0 27 11.5 52t36.5 53l259 297q51 59 89 83.5t83 24.5h7q59 0 91 -36t32 -113v-364h118v-102h-118v-148h-115v148h-369zM215 250h344v378q0 16 -5.5 24t-20.5 8q-12 0 -21.5 -7.5t-19.5 -19.5l-292 -330q-8 -9 -11.5 -15t-3.5 -15
q0 -11 7 -17t23 -6z" />
    <glyph glyph-name="five.tnum" 
d="M498 449q112 0 170.5 -43.5t58.5 -159.5v-50q0 -110 -71.5 -153t-199.5 -43h-314v100h342q68 0 98 23t30 67v69q0 42 -30 66t-98 24h-342v401h585v-100h-470v-201h241z" />
    <glyph glyph-name="six.tnum" 
d="M520 439q112 0 170.5 -43.5t58.5 -159.5v-53q0 -110 -71.5 -153t-199.5 -43h-63q-169 0 -241.5 68.5t-72.5 221.5v145q0 75 18.5 135.5t58 103.5t102.5 66t151 23h295v-100h-310q-110 0 -155 -49.5t-45 -150.5v-11h304zM400 87h97q81 0 111.5 23t30.5 67v72
q0 42 -22.5 66t-90.5 24h-310v-89q0 -97 42 -130t142 -33z" />
    <glyph glyph-name="seven.tnum" 
d="M353 0h-132l378 598q6 9 9 16.5t3 15.5q0 10 -7 15t-20 5h-478v100h497q64 0 93.5 -27t29.5 -76q0 -24 -10.5 -52.5t-28.5 -57.5z" />
    <glyph glyph-name="eight.tnum" 
d="M119 566q0 47 13 82t45.5 57.5t87.5 33.5t137 11h35q82 0 137 -11t87.5 -33.5t45.5 -57.5t13 -82v-27q0 -60 -27 -100.5t-93 -59.5q74 -19 107.5 -57.5t33.5 -94.5v-39q0 -90 -63.5 -139t-220.5 -49h-75q-157 0 -220.5 49t-63.5 139v36q0 59 33.5 98t106.5 57
q-66 20 -92.5 60t-26.5 100v27zM605 556q0 49 -34 71.5t-100 22.5h-103q-66 0 -100 -22.5t-34 -71.5v-37q0 -49 31.5 -70t101.5 -21h105q70 0 101.5 21t31.5 70v37zM626 234q0 44 -36 71t-118 27h-105q-90 0 -122 -27t-32 -71v-37q0 -22 6.5 -40t24 -30.5t48.5 -19.5t80 -7
h95q90 0 124.5 27t34.5 70v37z" />
    <glyph glyph-name="nine.tnum" 
d="M332 311q-112 0 -170.5 43.5t-58.5 159.5v53q0 110 71.5 153t199.5 43h63q169 0 241.5 -68.5t72.5 -221.5v-145q0 -75 -18.5 -135.5t-58 -103.5t-102.5 -66t-151 -23h-295v100h310q110 0 155 49.5t45 150.5v11h-304zM326 411h310v89q0 97 -42 130t-142 33h-97
q-81 0 -111.5 -23t-30.5 -67v-72q0 -42 22.5 -66t90.5 -24z" />
    <glyph glyph-name="space.tnum" horiz-adv-x="425" 
 />
    <glyph glyph-name="Euro.tnum" 
d="M47 245v100h105v70h-105v100h113q20 109 97.5 172t224.5 63h326v-100h-341q-86 0 -130 -33.5t-55 -101.5h422v-100h-427v-70h427v-100h-424q10 -73 54 -109t133 -36h346v-100h-331q-150 0 -227.5 66t-96.5 179h-111z" />
    <glyph glyph-name="dollar.tnum" 
d="M388 -100v100h-259v100h259v240l-74 20q-98 27 -151.5 72t-53.5 129t63.5 136.5t193.5 52.5h22v100h100v-100h228v-100h-228v-227l47 -13q99 -28 152.5 -74.5t53.5 -129.5q0 -93 -62.5 -149.5t-190.5 -56.5v-100h-100zM345 464l43 -12v198h-35q-72 0 -99.5 -25t-27.5 -59
q0 -39 25.5 -61t93.5 -41zM504 308l-16 4v-212h11q66 0 96.5 26t30.5 70q0 46 -25.5 69.5t-96.5 42.5z" />
    <glyph glyph-name="cent.tnum" 
d="M433 -150v150h-41q-115 0 -186.5 63t-71.5 188v98q0 125 71.5 188t186.5 63h41v150h100v-150h183v-95h-183v-410h183v-95h-183v-150h-100zM397 505q-79 0 -113.5 -30.5t-34.5 -110.5v-127q0 -81 34.5 -111.5t113.5 -30.5h36v410h-36z" />
    <glyph glyph-name="sterling.tnum" 
d="M77 0v100h145v225h-145v100h145q0 74 19 134.5t58.5 102.5t102 65t150.5 23h211v-100h-226q-104 0 -147 -49.5t-43 -150.5v-25h416v-100h-416v-225h416v-100h-686z" />
    <glyph glyph-name="yen.tnum" 
d="M97 95v100h271v70h-271v100h206l-258 385h137l225 -354q6 -10 18.5 -10t18.5 10l231 354h130l-258 -385h207v-100h-271v-70h271v-100h-271v-95h-115v95h-271z" />
    <glyph glyph-name="ruble.tnum" 
d="M12 225h145v80h-145v100h145v345h382q54 0 103.5 -9.5t87.5 -33t60.5 -64t22.5 -101.5v-29q0 -61 -22.5 -101.5t-60.5 -64t-87.5 -33t-103.5 -9.5h-267v-80h285v-100h-285v-125h-115v125h-145v100zM272 650v-245h285q77 0 106.5 26t29.5 80v33q0 54 -29.5 80t-106.5 26
h-285z" />
    <glyph glyph-name="manat.tnum" 
d="M590 500h-110v-400h-110v400h-110q-53 0 -76 -22t-23 -81v-397h-110v385q0 105 52 160t165 55h102v150h110v-150h102q113 0 165 -55t52 -160v-385h-110v397q0 59 -23 81t-76 22z" />
    <glyph glyph-name="percent.tnum" 
d="M36 554v57q0 69 44.5 110.5t111.5 41.5h70q63 0 109.5 -41.5t46.5 -110.5v-57q0 -69 -46.5 -110.5t-109.5 -41.5h-70q-67 0 -111.5 41.5t-44.5 110.5zM558 419h-113l195 331h114zM140 603v-45q0 -32 15 -52t47 -20h49q35 0 49 20t14 52v45q0 34 -14 55t-49 21h-49
q-32 0 -47 -21t-15 -55zM432 140v57q0 69 44.5 110.5t111.5 41.5h70q63 0 109.5 -41.5t46.5 -110.5v-57q0 -69 -46.5 -110.5t-109.5 -41.5h-70q-67 0 -111.5 41.5t-44.5 110.5zM295 331h113l-195 -331h-114zM536 189v-45q0 -32 15 -52t47 -20h49q35 0 49 20t14 52v45
q0 34 -14 55t-49 21h-49q-32 0 -47 -21t-15 -55z" />
    <glyph glyph-name="plus.tnum" 
d="M202 325v100h173v173h100v-173h173v-100h-173v-173h-100v173h-173z" />
    <glyph glyph-name="minus.tnum" 
d="M232 325v100h386v-100h-386z" />
    <glyph glyph-name="plusminus.tnum" 
d="M202 410v100h173v143h100v-143h173v-100h-173v-143h-100v143h-173zM232 100v100h386v-100h-386z" />
    <glyph glyph-name="multiply.tnum" 
d="M211 519l70 70l144 -144l144 144l70 -70l-144 -144l144 -144l-70 -70l-144 144l-144 -144l-70 70l144 144z" />
    <glyph glyph-name="divide.tnum" 
d="M363 515v125h125v-125h-125zM222 325v100h406v-100h-406zM363 110v125h125v-125h-125z" />
    <glyph glyph-name="equal.tnum" 
d="M222 425v100h406v-100h-406zM222 225v100h406v-100h-406z" />
    <glyph glyph-name="less.tnum" 
d="M575 258v-123l-254 168q-25 16 -36 34t-11 34v9q0 16 11 34t36 34l254 168v-123l-191 -117z" />
    <glyph glyph-name="greater.tnum" 
d="M528 303l-254 -168v123l191 118l-191 117v123l254 -168q25 -16 36 -34t11 -34v-9q0 -16 -11 -34t-36 -34z" />
    <glyph glyph-name="period.tnum" horiz-adv-x="425" 
d="M150 0v125h125v-125h-125z" />
    <glyph glyph-name="comma.tnum" horiz-adv-x="425" 
d="M120 -130q13 41 20.5 66t11 42t4.5 30.5t1 31.5v115h112v-115q0 -18 -1 -32t-5 -31t-12.5 -42t-22.5 -65h-108z" />
    <glyph glyph-name="colon.tnum" horiz-adv-x="425" 
d="M150 0v125h125v-125h-125zM150 475v125h125v-125h-125z" />
    <glyph glyph-name="semicolon.tnum" horiz-adv-x="425" 
d="M150 475v125h125v-125h-125zM120 -130q13 41 20.5 66t11 42t4.5 30.5t1 31.5v115h112v-115q0 -18 -1 -32t-5 -31t-12.5 -42t-22.5 -65h-108z" />
    <glyph glyph-name="numbersign.tnum" 
d="M728 303v-93h-172l-55 -210h-105l55 210h-140l-55 -210h-105l55 210h-148v93h172l45 173h-154v94h178l52 200h105l-52 -200h140l52 200h105l-52 -200h142v-94h-166l-45 -173h148zM335 303h140l45 173h-140z" />
    <glyph glyph-name="slash.tnum" horiz-adv-x="424" 
d="M257 750h110l-200 -860h-110z" />
    <glyph glyph-name="c.long" horiz-adv-x="607" 
d="M318 505q-79 0 -113.5 -30.5t-34.5 -110.5v-127q0 -81 34.5 -111.5t113.5 -30.5h259v-95h-264q-115 0 -186.5 63t-71.5 188v98q0 125 71.5 188t186.5 63h394v-95h-389z" />
    <glyph glyph-name="f.long" horiz-adv-x="385" 
d="M112 0v505h-97v95h97v9q0 84 44.5 122.5t128.5 38.5h160v-87h-159q-36 0 -52 -14.5t-16 -52.5v-16h237v-95h-233v-505h-110z" />
    <glyph glyph-name="k.alt1" horiz-adv-x="684" 
d="M80 0v750h110v-582l350 432h134l-407 -499h401v-101h-588z" />
    <glyph glyph-name="r.long" horiz-adv-x="365" 
d="M80 415q0 91 57.5 138t145.5 47h154v-95h-159q-47 0 -67.5 -17.5t-20.5 -63.5v-424h-110v415z" />
    <glyph glyph-name="s.long1" horiz-adv-x="617" 
d="M371 239l-147 31q-84 18 -131.5 56.5t-47.5 108.5q0 74 51.5 119.5t168.5 45.5h422v-95h-442q-51 0 -69 -19t-18 -45q0 -28 19 -44.5t69 -26.5l145 -30q93 -19 144.5 -55.5t51.5 -111.5q0 -78 -55 -125.5t-188 -47.5h-279v95h305q63 0 85 19.5t22 50.5q0 30 -23 45.5
t-83 28.5z" />
    <glyph glyph-name="s.long2" horiz-adv-x="602" 
d="M346 239l-147 31q-84 18 -131.5 56.5t-47.5 108.5q0 74 51.5 119.5t168.5 45.5h292v-95h-312q-51 0 -69 -19t-18 -45q0 -28 19 -44.5t69 -26.5l145 -30q93 -19 144.5 -55.5t51.5 -111.5q0 -78 -55 -125.5t-188 -47.5h-449v95h475q63 0 85 19.5t22 50.5q0 30 -23 45.5
t-83 28.5z" />
    <glyph glyph-name="t.long" horiz-adv-x="470" 
d="M15 505v95h100v117h107v-117h353v-95h-353v-343q0 -38 16 -52.5t52 -14.5h155v-95h-160q-84 0 -128.5 38.5t-44.5 122.5v344h-97z" />
    <glyph glyph-name="w.alt1" horiz-adv-x="1070" 
d="M590 600v-500h290v500h110v-600h-694q-112 0 -164 57t-52 146v397h110v-402q0 -56 23 -77t76 -21h191v500h110z" />
    <glyph glyph-name="x.alt1" horiz-adv-x="819" 
d="M204 505h-149v95h154q63 0 114.5 -19t85.5 -58q34 39 86 58t115 19h154v-95h-149q-79 0 -113.5 -30.5t-34.5 -110.5v-127q0 -81 34.5 -111.5t113.5 -30.5h149v-95h-154q-63 0 -114.5 19t-85.5 58q-34 -39 -86 -58t-115 -19h-154v95h149q79 0 113.5 30.5t34.5 111.5v127
q0 80 -34.5 110.5t-113.5 30.5z" />
    <glyph glyph-name="x.long" horiz-adv-x="799" 
d="M204 505h-149v95h154q63 0 114.5 -19t85.5 -58q34 39 86 58t115 19h304v-95h-299q-79 0 -113.5 -30.5t-34.5 -110.5v-127q0 -81 34.5 -111.5t113.5 -30.5h149v-95h-154q-63 0 -114.5 19t-85.5 58q-34 -39 -86 -58t-115 -19h-154v95h149q79 0 113.5 30.5t34.5 111.5v127
q0 80 -34.5 110.5t-113.5 30.5z" />
    <glyph glyph-name="y.alt1" horiz-adv-x="681" 
d="M158 600l333 -456v5v451h110v-413q0 -52 -17.5 -88t-46 -58t-65.5 -31.5t-76 -9.5h-360v95h356l-372 505h138z" />
    <glyph glyph-name="A.alt1" horiz-adv-x="820" 
d="M10 0l312 583q43 81 95.5 124t147.5 43h165v-750h-115v201h-372l-104 -201h-129zM422 545l-126 -242h319v347h-47q-57 0 -86 -23.5t-60 -81.5z" />
    <glyph glyph-name="A.alt2" horiz-adv-x="820" 
d="M810 0h-129l-104 201h-372v-201h-115v750h165q95 0 147.5 -43t95.5 -124zM205 650v-347h319l-126 242q-31 58 -60 81.5t-86 23.5h-47z" />
    <glyph glyph-name="A.alt3" horiz-adv-x="787" 
d="M697 553v-553h-455q-95 0 -149 41.5t-54 131.5q0 63 43 111.5t114 104.5l328 261h-463v100h429q104 0 155.5 -53.5t51.5 -143.5zM237 100h350v469l-334 -265q-52 -42 -76 -66t-24 -61q0 -40 25 -58.5t59 -18.5z" />
    <glyph glyph-name="C.long" horiz-adv-x="721" 
d="M656 100v-100h-271q-88 0 -151 23t-102.5 66t-58 103.5t-18.5 135.5v94q0 75 18.5 135.5t58 103.5t102.5 66t151 23h406v-100h-421q-104 0 -147 -49.5t-43 -150.5v-150q0 -101 43 -150.5t147 -49.5h286z" />
    <glyph glyph-name="D.alt1" horiz-adv-x="815" 
d="M90 537h115v-437h235q104 0 159.5 43.5t55.5 144.5v175q0 101 -54.5 144t-155.5 43h-595v100h580q168 0 259 -83t91 -232v-120q0 -149 -89.5 -232t-265.5 -83h-335v537z" />
    <glyph glyph-name="D.alt2" horiz-adv-x="815" 
d="M90 537h115v-437h235q104 0 159.5 43.5t55.5 144.5v175q0 101 -54.5 144t-155.5 43h-355v100h340q168 0 259 -83t91 -232v-120q0 -149 -89.5 -232t-265.5 -83h-335v537z" />
    <glyph glyph-name="E.alt1" horiz-adv-x="768" 
d="M701 100v-100h-316q-88 0 -151 23t-102.5 66t-58 103.5t-18.5 135.5v94q0 75 18.5 135.5t58 103.5t102.5 66t151 23h316v-100h-331q-104 0 -147 -49.5t-43 -150.5v-19h521v-100h-521v-31q0 -101 43 -150.5t147 -49.5h331z" />
    <glyph glyph-name="E.open" horiz-adv-x="748" 
d="M90 650v100h591v-100h-591zM90 100v231q0 44 28 72t72 28h491v-100h-476v-231h476v-100h-491q-44 0 -72 28t-28 72z" />
    <glyph glyph-name="F.alt1" horiz-adv-x="738" 
d="M180 0h-125v422q0 75 18.5 135.5t58 103.5t102.5 66t151 23h316v-100h-331q-104 0 -147 -49.5t-43 -150.5v-23h521v-100h-521v-327z" />
    <glyph glyph-name="F.open" horiz-adv-x="708" 
d="M90 650v100h571v-100h-571zM90 0v331q0 44 28 72t72 28h471v-100h-456v-331h-115z" />
    <glyph glyph-name="G.alt1" horiz-adv-x="825" 
d="M603 349q24 23 49.5 29.5t47 -0.5t35.5 -25.5t14 -44.5v-308h-105v243l-136 -137q-54 -55 -106 -87t-120 -32q-101 0 -164 63t-63 205v177q0 72 18 131.5t56 100.5t99.5 63.5t146.5 22.5h365v-100h-365q-107 0 -151 -49.5t-44 -150.5v-211q0 -64 24.5 -103t84.5 -39
q37 0 70.5 22t71.5 60z" />
    <glyph glyph-name="H.connect" horiz-adv-x="885" 
d="M90 0v750h115v-315h475v233q0 36 23 59t59 23h33v-750h-115v330h-475v-330h-115z" />
    <glyph glyph-name="K.alt1" horiz-adv-x="798" 
d="M90 750h115v-588l435 588h134l-486 -649h490v-101h-688v750z" />
    <glyph glyph-name="L.alt1" horiz-adv-x="636" 
d="M596 0h-261q-150 0 -215 71t-65 197v482h115v-500q0 -75 31.5 -112.5t108.5 -37.5h286v-100z" />
    <glyph glyph-name="M.alt1" horiz-adv-x="1036" 
d="M518 97q11 0 13 8.5t5 20.5l120 503q16 66 50.5 100t98.5 34q71 0 106 -42t35 -112v-609h-115v616q0 21 -7.5 31.5t-21.5 10.5q-15 0 -22.5 -13t-10.5 -26l-121 -507q-12 -51 -40 -88t-90 -37t-90 37t-40 88l-121 507q-3 13 -10.5 26t-22.5 13q-14 0 -21.5 -10.5
t-7.5 -31.5v-616h-115v609q0 70 35 112t106 42q64 0 98.5 -34t50.5 -100l120 -503q3 -12 5 -20.5t13 -8.5z" />
    <glyph glyph-name="M.alt2" horiz-adv-x="1224" 
d="M10 0l364 663q22 40 46.5 63.5t73.5 23.5h121v-603l285 519q22 40 45.5 62t72.5 22h116v-750h-115v650h-14l-346 -650h-154v650h-15l-345 -650h-135z" />
    <glyph glyph-name="M.alt3" horiz-adv-x="1165" 
d="M525 0v650h-320v-650h-115v750h745q69 0 115.5 -14.5t74 -43t39 -71.5t11.5 -99v-522h-115v535q0 58 -25.5 86.5t-88.5 28.5h-206v-650h-115z" />
    <glyph glyph-name="N.alt1" horiz-adv-x="845" 
d="M90 0v750h478q101 0 144 -55t43 -160v-535h-115v547q0 59 -23 81t-76 22h-336v-650h-115z" />
    <glyph glyph-name="N.connect" horiz-adv-x="970" 
d="M90 0v610q0 64 32 108.5t106 44.5q52 0 86 -30t69 -87l320 -517q9 -14 18 -23t18 -9q12 0 19 8.5t7 24.5v538q0 36 23 59t59 23h33v-617q0 -66 -33.5 -106t-98.5 -40q-55 0 -88.5 29t-63.5 77l-327 525q-10 16 -17 25.5t-19 9.5q-15 0 -21.5 -10t-6.5 -27v-616h-115z" />
    <glyph glyph-name="P.alt1" horiz-adv-x="716" 
d="M-120 650v100h522q54 0 103.5 -9.5t87.5 -33t60.5 -64t22.5 -101.5v-44q0 -61 -22.5 -101.5t-60.5 -64t-87.5 -33t-103.5 -9.5h-197v-290h-115v253q0 69 44 103t114 34h172q77 0 106.5 26t29.5 80v48q0 54 -29.5 80t-106.5 26h-540z" />
    <glyph glyph-name="P.alt2" horiz-adv-x="716" 
d="M90 650v100h312q54 0 103.5 -9.5t87.5 -33t60.5 -64t22.5 -101.5v-44q0 -61 -22.5 -101.5t-60.5 -64t-87.5 -33t-103.5 -9.5h-197v-290h-115v253q0 69 44 103t114 34h172q77 0 106.5 26t29.5 80v48q0 54 -29.5 80t-106.5 26h-330z" />
    <glyph glyph-name="R.alt1" horiz-adv-x="563" 
d="M-120 650v100h364q149 0 209 -47.5t60 -146.5v-27q0 -102 -63.5 -148t-205.5 -46h-41l325 -335h-152l-312 321q-16 16 -21 36t0 37q5 16 20.5 27.5t40.5 11.5h181q66 0 91 20t25 74v31q0 54 -25 73t-91 19h-405z" />
    <glyph glyph-name="R.alt2" horiz-adv-x="803" 
d="M228 0h-115v374q0 27 19 43t44 16h343q65 0 90.5 20t25.5 74v31q0 54 -25.5 73t-90.5 19h-609v100h584q55 0 102.5 -9t82.5 -31t54.5 -59.5t19.5 -94.5v-27q0 -114 -69.5 -154t-194.5 -40h-62l325 -335h-151l-327 335h-46v-335z" />
    <glyph glyph-name="R.alt3" horiz-adv-x="803" 
d="M228 0h-115v374q0 27 19 43t44 16h343q65 0 90.5 20t25.5 74v31q0 54 -25.5 73t-90.5 19h-406v100h381q55 0 102.5 -9t82.5 -31t54.5 -59.5t19.5 -94.5v-27q0 -114 -69.5 -154t-194.5 -40h-62l325 -335h-151l-327 335h-46v-335z" />
    <glyph glyph-name="S.alt1" horiz-adv-x="808" 
d="M373 162q-43 -90 -111 -126t-153 -36h-89v100h78q61 0 98.5 19t68.5 83l182 386q43 90 111 126t153 36h77v-100h-66q-61 0 -99 -19.5t-68 -82.5z" />
    <glyph glyph-name="S.long1" horiz-adv-x="592" 
d="M440 308l-190 52q-98 27 -151.5 68.5t-53.5 132.5q0 84 63.5 136.5t193.5 52.5h320v-100h-333q-72 0 -99.5 -24t-27.5 -58q0 -39 25.5 -62t93.5 -42l190 -54q50 -14 88.5 -30t64.5 -38.5t39.5 -54.5t13.5 -77q0 -93 -62.5 -151.5t-190.5 -58.5h-359v100h380q66 0 91.5 31
t25.5 69q0 40 -25.5 64.5t-96.5 43.5z" />
    <glyph glyph-name="S.long2" horiz-adv-x="702" 
d="M420 308l-190 52q-98 27 -151.5 68.5t-53.5 132.5q0 84 63.5 136.5t193.5 52.5h340v-100h-353q-72 0 -99.5 -24t-27.5 -58q0 -39 25.5 -62t93.5 -42l190 -54q50 -14 88.5 -30t64.5 -38.5t39.5 -54.5t13.5 -77q0 -93 -62.5 -151.5t-190.5 -58.5h-499v100h520q66 0 91.5 31
t25.5 69q0 40 -25.5 64.5t-96.5 43.5z" />
    <glyph glyph-name="U.alt1" horiz-adv-x="845" 
d="M755 750v-750h-478q-101 0 -144 55t-43 160v535h115v-547q0 -59 23 -81t76 -22h336v650h115z" />
    <glyph glyph-name="U.connect" horiz-adv-x="880" 
d="M675 668q0 36 23 59t59 23h33v-517q0 -128 -68 -187t-222 -59h-130q-146 0 -213 59t-67 187v517h115v-525q0 -70 35.5 -104t110.5 -34h180q71 0 107.5 34t36.5 104v443z" />
    <glyph glyph-name="V.alt1" horiz-adv-x="820" 
d="M790 750l-312 -583q-43 -81 -95.5 -124t-147.5 -43h-145v750h115v-650h27q55 0 83.5 23.5t58.5 81.5l281 545h135z" />
    <glyph glyph-name="W.alt1" horiz-adv-x="1224" 
d="M1214 750l-364 -663q-22 -40 -46.5 -63.5t-73.5 -23.5h-121v603l-285 -519q-22 -40 -45.5 -62t-72.5 -22h-116v750h115v-650h14l346 650h154v-650h15l345 650h135z" />
    <glyph glyph-name="W.alt2" horiz-adv-x="1165" 
d="M640 750v-650h320v650h115v-750h-745q-69 0 -115.5 14.5t-74 43t-39 71.5t-11.5 99v522h115v-535q0 -58 25.5 -86.5t88.5 -28.5h206v650h115z" />
    <glyph glyph-name="X.alt1" horiz-adv-x="900" 
d="M666 0q-90 0 -142.5 45.5t-75.5 123.5q-23 -78 -75.5 -123.5t-142.5 -45.5h-185v100h195q39 0 66.5 21t45.5 52.5t26 70.5t8 74v110q0 37 -8 76.5t-26 72t-45.5 53t-66.5 20.5h-195v100h185q90 0 142.5 -46t75.5 -122q23 76 75.5 122t142.5 46h189v-100h-199
q-38 0 -66 -20.5t-45.5 -53t-26 -72t-8.5 -76.5v-110q0 -35 8.5 -74t26 -70.5t45.5 -52.5t66 -21h199v-100h-189z" />
    <glyph glyph-name="Y.alt1" horiz-adv-x="858" 
d="M38 0v100h337l-355 650h134l292 -553l272 553h130l-318 -625q-38 -75 -87 -100t-130 -25h-275z" />
    <glyph glyph-name="Y.alt2" horiz-adv-x="801" 
d="M50 0v100h426q13 0 24.5 1.5t21.5 3.5l-470 645h148l394 -559q1 7 1.5 14t0.5 15v530h115v-482q0 -60 -13 -109.5t-43.5 -84.5t-80.5 -54.5t-123 -19.5h-401z" />
    <glyph glyph-name="Y.alt3" horiz-adv-x="771" 
d="M50 0v100h396q64 0 92 29.5t28 90.5v40h-266q-140 0 -195 71.5t-55 186.5v232h115v-270q0 -61 28 -90.5t92 -29.5h281v390h115v-492q0 -115 -57 -186.5t-203 -71.5h-371z" />
    <glyph glyph-name="ccedilla.long" horiz-adv-x="587" 
d="M328 505q-79 0 -113.5 -30.5t-34.5 -110.5v-127q0 -81 34.5 -111.5t113.5 -30.5h259v-95h-264q-115 0 -186.5 63t-71.5 188v98q0 125 71.5 188t186.5 63h394v-95h-389zM429 0l-70 -188h-106l78 188h98z" />
    <glyph glyph-name="cacute.long" horiz-adv-x="577" 
d="M318 505q-79 0 -113.5 -30.5t-34.5 -110.5v-127q0 -81 34.5 -111.5t113.5 -30.5h259v-95h-264q-115 0 -186.5 63t-71.5 188v98q0 125 71.5 188t186.5 63h394v-95h-389zM325 672l70 188h106l-78 -188h-98z" />
    <glyph glyph-name="cdotaccent.long" horiz-adv-x="587" 
d="M328 505q-79 0 -113.5 -30.5t-34.5 -110.5v-127q0 -81 34.5 -111.5t113.5 -30.5h259v-95h-264q-115 0 -186.5 63t-71.5 188v98q0 125 71.5 188t186.5 63h394v-95h-389zM434 672h-110v98h110v-98z" />
    <glyph glyph-name="ccaron.long" horiz-adv-x="577" 
d="M318 505q-79 0 -113.5 -30.5t-34.5 -110.5v-127q0 -81 34.5 -111.5t113.5 -30.5h259v-95h-264q-115 0 -186.5 63t-71.5 188v98q0 125 71.5 188t186.5 63h394v-95h-389zM435 694q-12 -16 -26 -27t-39 -11t-40 11t-26 27l-109 156h103l72 -109l71 109h103z" />
    <glyph glyph-name="kcommaaccent.alt1" horiz-adv-x="704" 
d="M80 0v750h110v-582l350 432h134l-407 -499h401v-101h-588zM351 -188q16 48 21 70t5 53v25h92v-25q0 -31 -5 -53t-24 -70h-89z" />
    <glyph glyph-name="racute.long" horiz-adv-x="375" 
d="M80 415q0 91 57.5 138t145.5 47h154v-95h-159q-47 0 -67.5 -17.5t-20.5 -63.5v-424h-110v415zM244 672l70 188h106l-78 -188h-98z" />
    <glyph glyph-name="rcommaaccent.long" horiz-adv-x="375" 
d="M80 415q0 91 57.5 138t145.5 47h154v-95h-159q-47 0 -67.5 -17.5t-20.5 -63.5v-424h-110v415zM76 -188q16 48 21 70t5 53v25h92v-25q0 -31 -5 -53t-24 -70h-89z" />
    <glyph glyph-name="rcaron.long" horiz-adv-x="375" 
d="M80 415q0 91 57.5 138t145.5 47h154v-95h-159q-47 0 -67.5 -17.5t-20.5 -63.5v-424h-110v415zM353 694q-12 -16 -26 -27t-39 -11t-40 11t-26 27l-109 156h103l72 -109l71 109h103z" />
    <glyph glyph-name="sacute.long1" horiz-adv-x="617" 
d="M371 239l-147 31q-84 18 -131.5 56.5t-47.5 108.5q0 74 51.5 119.5t168.5 45.5h422v-95h-442q-51 0 -69 -19t-18 -45q0 -28 19 -44.5t69 -26.5l145 -30q93 -19 144.5 -55.5t51.5 -111.5q0 -78 -55 -125.5t-188 -47.5h-279v95h305q63 0 85 19.5t22 50.5q0 30 -23 45.5
t-83 28.5zM280 672l70 188h106l-78 -188h-98z" />
    <glyph glyph-name="scedilla.long1" horiz-adv-x="617" 
d="M371 239l-147 31q-84 18 -131.5 56.5t-47.5 108.5q0 74 51.5 119.5t168.5 45.5h422v-95h-442q-51 0 -69 -19t-18 -45q0 -28 19 -44.5t69 -26.5l145 -30q93 -19 144.5 -55.5t51.5 -111.5q0 -78 -55 -125.5t-188 -47.5h-279v95h305q63 0 85 19.5t22 50.5q0 30 -23 45.5
t-83 28.5zM343 0l-70 -188h-106l78 188h98z" />
    <glyph glyph-name="scommaaccent.long1" horiz-adv-x="617" 
d="M371 239l-147 31q-84 18 -131.5 56.5t-47.5 108.5q0 74 51.5 119.5t168.5 45.5h422v-95h-442q-51 0 -69 -19t-18 -45q0 -28 19 -44.5t69 -26.5l145 -30q93 -19 144.5 -55.5t51.5 -111.5q0 -78 -55 -125.5t-188 -47.5h-279v95h305q63 0 85 19.5t22 50.5q0 30 -23 45.5
t-83 28.5zM222 -188q16 48 21 70t5 53v25h92v-25q0 -31 -5 -53t-24 -70h-89z" />
    <glyph glyph-name="scaron.long1" horiz-adv-x="617" 
d="M371 239l-147 31q-84 18 -131.5 56.5t-47.5 108.5q0 74 51.5 119.5t168.5 45.5h422v-95h-442q-51 0 -69 -19t-18 -45q0 -28 19 -44.5t69 -26.5l145 -30q93 -19 144.5 -55.5t51.5 -111.5q0 -78 -55 -125.5t-188 -47.5h-279v95h305q63 0 85 19.5t22 50.5q0 30 -23 45.5
t-83 28.5zM389 694q-12 -16 -26 -27t-39 -11t-40 11t-26 27l-109 156h103l72 -109l71 109h103z" />
    <glyph glyph-name="sacute.long2" horiz-adv-x="602" 
d="M346 239l-147 31q-84 18 -131.5 56.5t-47.5 108.5q0 74 51.5 119.5t168.5 45.5h292v-95h-312q-51 0 -69 -19t-18 -45q0 -28 19 -44.5t69 -26.5l145 -30q93 -19 144.5 -55.5t51.5 -111.5q0 -78 -55 -125.5t-188 -47.5h-449v95h475q63 0 85 19.5t22 50.5q0 30 -23 45.5
t-83 28.5zM257 672l70 188h106l-78 -188h-98z" />
    <glyph glyph-name="scedilla.long2" horiz-adv-x="602" 
d="M346 239l-147 31q-84 18 -131.5 56.5t-47.5 108.5q0 74 51.5 119.5t168.5 45.5h292v-95h-312q-51 0 -69 -19t-18 -45q0 -28 19 -44.5t69 -26.5l145 -30q93 -19 144.5 -55.5t51.5 -111.5q0 -78 -55 -125.5t-188 -47.5h-449v95h475q63 0 85 19.5t22 50.5q0 30 -23 45.5
t-83 28.5zM310 0l-70 -188h-106l78 188h98z" />
    <glyph glyph-name="scommaaccent.long2" horiz-adv-x="602" 
d="M346 239l-147 31q-84 18 -131.5 56.5t-47.5 108.5q0 74 51.5 119.5t168.5 45.5h292v-95h-312q-51 0 -69 -19t-18 -45q0 -28 19 -44.5t69 -26.5l145 -30q93 -19 144.5 -55.5t51.5 -111.5q0 -78 -55 -125.5t-188 -47.5h-449v95h475q63 0 85 19.5t22 50.5q0 30 -23 45.5
t-83 28.5zM189 -188q16 48 21 70t5 53v25h92v-25q0 -31 -5 -53t-24 -70h-89z" />
    <glyph glyph-name="scaron.long2" horiz-adv-x="602" 
d="M346 239l-147 31q-84 18 -131.5 56.5t-47.5 108.5q0 74 51.5 119.5t168.5 45.5h292v-95h-312q-51 0 -69 -19t-18 -45q0 -28 19 -44.5t69 -26.5l145 -30q93 -19 144.5 -55.5t51.5 -111.5q0 -78 -55 -125.5t-188 -47.5h-449v95h475q63 0 85 19.5t22 50.5q0 30 -23 45.5
t-83 28.5zM366 694q-12 -16 -26 -27t-39 -11t-40 11t-26 27l-109 156h103l72 -109l71 109h103z" />
    <glyph glyph-name="tcedilla.long" horiz-adv-x="470" 
d="M15 505v95h100v117h107v-117h353v-95h-353v-343q0 -38 16 -52.5t52 -14.5h155v-95h-160q-84 0 -128.5 38.5t-44.5 122.5v344h-97zM364 0l-70 -188h-106l78 188h98z" />
    <glyph glyph-name="tcommaaccent.long" horiz-adv-x="470" 
d="M15 505v95h100v117h107v-117h353v-95h-353v-343q0 -38 16 -52.5t52 -14.5h155v-95h-160q-84 0 -128.5 38.5t-44.5 122.5v344h-97zM243 -188q16 48 21 70t5 53v25h92v-25q0 -31 -5 -53t-24 -70h-89z" />
    <glyph glyph-name="tcaron.long" horiz-adv-x="470" 
d="M273 649l42 170h95l-42 -170h-95zM15 505v95h100v117h107v-117h353v-95h-353v-343q0 -38 16 -52.5t52 -14.5h155v-95h-160q-84 0 -128.5 38.5t-44.5 122.5v344h-97z" />
    <glyph glyph-name="tbar.long" horiz-adv-x="470" 
d="M15 285v55h97v165h-97v95h100v117h107v-117h353v-95h-353v-165h133v-55h-133v-123q0 -38 16 -52.5t52 -14.5h155v-95h-160q-84 0 -128.5 38.5t-44.5 122.5v124h-97z" />
    <glyph glyph-name="wcircumflex.alt1" horiz-adv-x="1070" 
d="M590 600v-500h290v500h110v-600h-694q-112 0 -164 57t-52 146v397h110v-402q0 -56 23 -77t76 -21h191v500h110zM596 672l-71 109l-72 -109h-103l109 156q11 16 26 27t40 11t39 -11t26 -27l109 -156h-103z" />
    <glyph glyph-name="yacute.alt1" horiz-adv-x="691" 
d="M158 600l333 -456v5v451h110v-413q0 -52 -17.5 -88t-46 -58t-65.5 -31.5t-76 -9.5h-360v95h356l-372 505h138zM302 672l70 188h106l-78 -188h-98z" />
    <glyph glyph-name="ydieresis.alt1" horiz-adv-x="691" 
d="M158 600l333 -456v5v451h110v-413q0 -52 -17.5 -88t-46 -58t-65.5 -31.5t-76 -9.5h-360v95h356l-372 505h138zM306 692h-110v106h110v-106zM496 692h-110v106h110v-106z" />
    <glyph glyph-name="ycircumflex.alt1" horiz-adv-x="691" 
d="M158 600l333 -456v5v451h110v-413q0 -52 -17.5 -88t-46 -58t-65.5 -31.5t-76 -9.5h-360v95h356l-372 505h138zM416 672l-71 109l-72 -109h-103l109 156q11 16 26 27t40 11t39 -11t26 -27l109 -156h-103z" />
    <glyph glyph-name="Agrave.alt1" horiz-adv-x="820" 
d="M10 0l312 583q43 81 95.5 124t147.5 43h165v-750h-115v201h-372l-104 -201h-129zM422 545l-126 -242h319v347h-47q-57 0 -86 -23.5t-60 -81.5zM638 822h-98l-78 188h106z" />
    <glyph glyph-name="Aacute.alt1" horiz-adv-x="820" 
d="M10 0l312 583q43 81 95.5 124t147.5 43h165v-750h-115v201h-372l-104 -201h-129zM422 545l-126 -242h319v347h-47q-57 0 -86 -23.5t-60 -81.5zM536 822l70 188h106l-78 -188h-98z" />
    <glyph glyph-name="Acircumflex.alt1" horiz-adv-x="820" 
d="M10 0l312 583q43 81 95.5 124t147.5 43h165v-750h-115v201h-372l-104 -201h-129zM422 545l-126 -242h319v347h-47q-57 0 -86 -23.5t-60 -81.5zM651 822l-71 109l-72 -109h-103l109 156q11 16 26 27t40 11t39 -11t26 -27l109 -156h-103z" />
    <glyph glyph-name="Atilde.alt1" horiz-adv-x="820" 
d="M10 0l312 583q43 81 95.5 124t147.5 43h165v-750h-115v201h-372l-104 -201h-129zM422 545l-126 -242h319v347h-47q-57 0 -86 -23.5t-60 -81.5zM594 920q10 -10 16 -15t15 -5q8 0 13 6t5 19v81h87v-76q0 -53 -26 -83.5t-74 -30.5q-34 0 -58 14t-52 43l-34 35
q-10 10 -16 15t-14 5t-13.5 -6t-5.5 -19v-81h-87v78q0 54 27 83t73 29q34 0 58 -14t52 -43z" />
    <glyph glyph-name="Adieresis.alt1" horiz-adv-x="820" 
d="M10 0l312 583q43 81 95.5 124t147.5 43h165v-750h-115v201h-372l-104 -201h-129zM422 545l-126 -242h319v347h-47q-57 0 -86 -23.5t-60 -81.5zM540 842h-110v106h110v-106zM730 842h-110v106h110v-106z" />
    <glyph glyph-name="Aring.alt1" horiz-adv-x="820" 
d="M10 0l312 583q43 81 95.5 124t147.5 43h165v-750h-115v201h-372l-104 -201h-129zM422 545l-126 -242h319v347h-47q-57 0 -86 -23.5t-60 -81.5zM473 904v24q0 39 25.5 63t62.5 24h39q37 0 62.5 -24t25.5 -63v-24q0 -39 -25.5 -63t-62.5 -24h-39q-37 0 -62.5 24t-25.5 63z
M533 926v-20q0 -17 10 -27.5t25 -10.5h25q15 0 25.5 10.5t10.5 27.5v20q0 17 -10.5 27.5t-25.5 10.5h-25q-15 0 -25 -10.5t-10 -27.5z" />
    <glyph glyph-name="Amacron.alt1" horiz-adv-x="820" 
d="M10 0l312 583q43 81 95.5 124t147.5 43h165v-750h-115v201h-372l-104 -201h-129zM422 545l-126 -242h319v347h-47q-57 0 -86 -23.5t-60 -81.5zM730 832h-240v78h240v-78z" />
    <glyph glyph-name="Abreve.alt1" horiz-adv-x="820" 
d="M10 0l312 583q43 81 95.5 124t147.5 43h165v-750h-115v201h-372l-104 -201h-129zM422 545l-126 -242h319v347h-47q-57 0 -86 -23.5t-60 -81.5zM416 980h77v-40q0 -22 11.5 -33.5t34.5 -11.5h70q24 0 34.5 11t10.5 34v40h76v-46q0 -43 -29 -75t-78 -32h-99q-51 0 -79.5 32
t-28.5 75v46z" />
    <glyph glyph-name="Aogonek.alt1" horiz-adv-x="820" 
d="M10 0l312 583q43 81 95.5 124t147.5 43h165v-750h-115v201h-372l-104 -201h-129zM422 545l-126 -242h319v347h-47q-57 0 -86 -23.5t-60 -81.5zM638 0h92l-48 -58q-10 -13 -16.5 -21t-6.5 -18t8 -17t24 -7h39v-69h-65q-55 0 -79.5 21t-24.5 52q0 19 9.5 39t34.5 45z" />
    <glyph glyph-name="Agrave.alt2" horiz-adv-x="820" 
d="M810 0h-129l-104 201h-372v-201h-115v750h165q95 0 147.5 -43t95.5 -124zM205 650v-347h319l-126 242q-31 58 -60 81.5t-86 23.5h-47zM287 822h-98l-78 188h106z" />
    <glyph glyph-name="Aacute.alt2" horiz-adv-x="820" 
d="M810 0h-129l-104 201h-372v-201h-115v750h165q95 0 147.5 -43t95.5 -124zM205 650v-347h319l-126 242q-31 58 -60 81.5t-86 23.5h-47zM186 822l70 188h106l-78 -188h-98z" />
    <glyph glyph-name="Acircumflex.alt2" horiz-adv-x="820" 
d="M810 0h-129l-104 201h-372v-201h-115v750h165q95 0 147.5 -43t95.5 -124zM205 650v-347h319l-126 242q-31 58 -60 81.5t-86 23.5h-47zM301 822l-71 109l-72 -109h-103l109 156q11 16 26 27t40 11t39 -11t26 -27l109 -156h-103z" />
    <glyph glyph-name="Atilde.alt2" horiz-adv-x="820" 
d="M810 0h-129l-104 201h-372v-201h-115v750h165q95 0 147.5 -43t95.5 -124zM205 650v-347h319l-126 242q-31 58 -60 81.5t-86 23.5h-47zM334 920q10 -10 16 -15t15 -5q8 0 13 6t5 19v81h87v-76q0 -53 -26 -83.5t-74 -30.5q-34 0 -58 14t-52 43l-34 35q-10 10 -16 15t-14 5
t-13.5 -6t-5.5 -19v-81h-87v78q0 54 27 83t73 29q34 0 58 -14t52 -43z" />
    <glyph glyph-name="Adieresis.alt2" horiz-adv-x="820" 
d="M810 0h-129l-104 201h-372v-201h-115v750h165q95 0 147.5 -43t95.5 -124zM205 650v-347h319l-126 242q-31 58 -60 81.5t-86 23.5h-47zM200 842h-110v106h110v-106zM390 842h-110v106h110v-106z" />
    <glyph glyph-name="Aring.alt2" horiz-adv-x="820" 
d="M810 0h-129l-104 201h-372v-201h-115v750h165q95 0 147.5 -43t95.5 -124zM205 650v-347h319l-126 242q-31 58 -60 81.5t-86 23.5h-47zM122 904v24q0 39 25.5 63t62.5 24h39q37 0 62.5 -24t25.5 -63v-24q0 -39 -25.5 -63t-62.5 -24h-39q-37 0 -62.5 24t-25.5 63zM182 926
v-20q0 -17 10 -27.5t25 -10.5h25q15 0 25.5 10.5t10.5 27.5v20q0 17 -10.5 27.5t-25.5 10.5h-25q-15 0 -25 -10.5t-10 -27.5z" />
    <glyph glyph-name="Amacron.alt2" horiz-adv-x="820" 
d="M810 0h-129l-104 201h-372v-201h-115v750h165q95 0 147.5 -43t95.5 -124zM205 650v-347h319l-126 242q-31 58 -60 81.5t-86 23.5h-47zM330 832h-240v78h240v-78z" />
    <glyph glyph-name="Abreve.alt2" horiz-adv-x="820" 
d="M810 0h-129l-104 201h-372v-201h-115v750h165q95 0 147.5 -43t95.5 -124zM205 650v-347h319l-126 242q-31 58 -60 81.5t-86 23.5h-47zM90 980h77v-40q0 -22 11.5 -33.5t34.5 -11.5h70q24 0 34.5 11t10.5 34v40h76v-46q0 -43 -29 -75t-78 -32h-99q-51 0 -79.5 32t-28.5 75
v46z" />
    <glyph glyph-name="Aogonek.alt2" horiz-adv-x="820" 
d="M810 0h-129l-104 201h-372v-201h-115v750h165q95 0 147.5 -43t95.5 -124zM205 650v-347h319l-126 242q-31 58 -60 81.5t-86 23.5h-47zM718 0h92l-48 -58q-10 -13 -16.5 -21t-6.5 -18t8 -17t24 -7h39v-69h-65q-55 0 -79.5 21t-24.5 52q0 19 9.5 39t34.5 45z" />
    <glyph glyph-name="Agrave.alt3" horiz-adv-x="787" 
d="M697 553v-553h-455q-95 0 -149 41.5t-54 131.5q0 63 43 111.5t114 104.5l328 261h-463v100h429q104 0 155.5 -53.5t51.5 -143.5zM237 100h350v469l-334 -265q-52 -42 -76 -66t-24 -61q0 -40 25 -58.5t59 -18.5zM442 822h-98l-78 188h106z" />
    <glyph glyph-name="Aacute.alt3" horiz-adv-x="787" 
d="M697 553v-553h-455q-95 0 -149 41.5t-54 131.5q0 63 43 111.5t114 104.5l328 261h-463v100h429q104 0 155.5 -53.5t51.5 -143.5zM237 100h350v469l-334 -265q-52 -42 -76 -66t-24 -61q0 -40 25 -58.5t59 -18.5zM340 822l70 188h106l-78 -188h-98z" />
    <glyph glyph-name="Acircumflex.alt3" horiz-adv-x="787" 
d="M697 553v-553h-455q-95 0 -149 41.5t-54 131.5q0 63 43 111.5t114 104.5l328 261h-463v100h429q104 0 155.5 -53.5t51.5 -143.5zM237 100h350v469l-334 -265q-52 -42 -76 -66t-24 -61q0 -40 25 -58.5t59 -18.5zM455 822l-71 109l-72 -109h-103l109 156q11 16 26 27t40 11
t39 -11t26 -27l109 -156h-103z" />
    <glyph glyph-name="Atilde.alt3" horiz-adv-x="787" 
d="M697 553v-553h-455q-95 0 -149 41.5t-54 131.5q0 63 43 111.5t114 104.5l328 261h-463v100h429q104 0 155.5 -53.5t51.5 -143.5zM237 100h350v469l-334 -265q-52 -42 -76 -66t-24 -61q0 -40 25 -58.5t59 -18.5zM439 920q10 -10 16 -15t15 -5q8 0 13 6t5 19v81h87v-76
q0 -53 -26 -83.5t-74 -30.5q-34 0 -58 14t-52 43l-34 35q-10 10 -16 15t-14 5t-13.5 -6t-5.5 -19v-81h-87v78q0 54 27 83t73 29q34 0 58 -14t52 -43z" />
    <glyph glyph-name="Adieresis.alt3" horiz-adv-x="787" 
d="M697 553v-553h-455q-95 0 -149 41.5t-54 131.5q0 63 43 111.5t114 104.5l328 261h-463v100h429q104 0 155.5 -53.5t51.5 -143.5zM237 100h350v469l-334 -265q-52 -42 -76 -66t-24 -61q0 -40 25 -58.5t59 -18.5zM344 842h-110v106h110v-106zM534 842h-110v106h110v-106z
" />
    <glyph glyph-name="Aring.alt3" horiz-adv-x="787" 
d="M697 553v-553h-455q-95 0 -149 41.5t-54 131.5q0 63 43 111.5t114 104.5l328 261h-463v100h429q104 0 155.5 -53.5t51.5 -143.5zM237 100h350v469l-334 -265q-52 -42 -76 -66t-24 -61q0 -40 25 -58.5t59 -18.5zM277 904v24q0 39 25.5 63t62.5 24h39q37 0 62.5 -24
t25.5 -63v-24q0 -39 -25.5 -63t-62.5 -24h-39q-37 0 -62.5 24t-25.5 63zM337 926v-20q0 -17 10 -27.5t25 -10.5h25q15 0 25.5 10.5t10.5 27.5v20q0 17 -10.5 27.5t-25.5 10.5h-25q-15 0 -25 -10.5t-10 -27.5z" />
    <glyph glyph-name="Amacron.alt3" horiz-adv-x="787" 
d="M697 553v-553h-455q-95 0 -149 41.5t-54 131.5q0 63 43 111.5t114 104.5l328 261h-463v100h429q104 0 155.5 -53.5t51.5 -143.5zM237 100h350v469l-334 -265q-52 -42 -76 -66t-24 -61q0 -40 25 -58.5t59 -18.5zM504 832h-240v78h240v-78z" />
    <glyph glyph-name="Abreve.alt3" horiz-adv-x="787" 
d="M697 553v-553h-455q-95 0 -149 41.5t-54 131.5q0 63 43 111.5t114 104.5l328 261h-463v100h429q104 0 155.5 -53.5t51.5 -143.5zM237 100h350v469l-334 -265q-52 -42 -76 -66t-24 -61q0 -40 25 -58.5t59 -18.5zM227 980h77v-40q0 -22 11.5 -33.5t34.5 -11.5h70
q24 0 34.5 11t10.5 34v40h76v-46q0 -43 -29 -75t-78 -32h-99q-51 0 -79.5 32t-28.5 75v46z" />
    <glyph glyph-name="Aogonek.alt3" horiz-adv-x="787" 
d="M697 553v-553h-455q-95 0 -149 41.5t-54 131.5q0 63 43 111.5t114 104.5l328 261h-463v100h429q104 0 155.5 -53.5t51.5 -143.5zM237 100h350v469l-334 -265q-52 -42 -76 -66t-24 -61q0 -40 25 -58.5t59 -18.5zM605 0h92l-48 -58q-10 -13 -16.5 -21t-6.5 -18t8 -17t24 -7
h39v-69h-65q-55 0 -79.5 21t-24.5 52q0 19 9.5 39t34.5 45z" />
    <glyph glyph-name="Ccedilla.long" horiz-adv-x="651" 
d="M656 100v-100h-271q-88 0 -151 23t-102.5 66t-58 103.5t-18.5 135.5v94q0 75 18.5 135.5t58 103.5t102.5 66t151 23h406v-100h-421q-104 0 -147 -49.5t-43 -150.5v-150q0 -101 43 -150.5t147 -49.5h286zM446 0l-70 -188h-106l78 188h98z" />
    <glyph glyph-name="Cacute.long" horiz-adv-x="651" 
d="M656 100v-100h-271q-88 0 -151 23t-102.5 66t-58 103.5t-18.5 135.5v94q0 75 18.5 135.5t58 103.5t102.5 66t151 23h406v-100h-421q-104 0 -147 -49.5t-43 -150.5v-150q0 -101 43 -150.5t147 -49.5h286zM342 822l70 188h106l-78 -188h-98z" />
    <glyph glyph-name="Cdotaccent.long" horiz-adv-x="651" 
d="M656 100v-100h-271q-88 0 -151 23t-102.5 66t-58 103.5t-18.5 135.5v94q0 75 18.5 135.5t58 103.5t102.5 66t151 23h406v-100h-421q-104 0 -147 -49.5t-43 -150.5v-150q0 -101 43 -150.5t147 -49.5h286zM441 822h-110v98h110v-98z" />
    <glyph glyph-name="Ccaron.long" horiz-adv-x="651" 
d="M656 100v-100h-271q-88 0 -151 23t-102.5 66t-58 103.5t-18.5 135.5v94q0 75 18.5 135.5t58 103.5t102.5 66t151 23h406v-100h-421q-104 0 -147 -49.5t-43 -150.5v-150q0 -101 43 -150.5t147 -49.5h286zM452 844q-12 -16 -26 -27t-39 -11t-40 11t-26 27l-109 156h103
l72 -109l71 109h103z" />
    <glyph glyph-name="Dcaron.alt1" horiz-adv-x="815" 
d="M90 537h115v-437h235q104 0 159.5 43.5t55.5 144.5v175q0 101 -54.5 144t-155.5 43h-595v100h580q168 0 259 -83t91 -232v-120q0 -149 -89.5 -232t-265.5 -83h-335v537zM434 844q-12 -16 -26 -27t-39 -11t-40 11t-26 27l-109 156h103l72 -109l71 109h103z" />
    <glyph glyph-name="Dcroat.alt1" horiz-adv-x="815" 
d="M15 299v95h75v143h115v-143h245v-95h-245v-199h235q104 0 159.5 43.5t55.5 144.5v175q0 101 -54.5 144t-155.5 43h-595v100h580q168 0 259 -83t91 -232v-120q0 -149 -89.5 -232t-265.5 -83h-335v299h-75z" />
    <glyph glyph-name="Dcaron.alt2" horiz-adv-x="815" 
d="M90 537h115v-437h235q104 0 159.5 43.5t55.5 144.5v175q0 101 -54.5 144t-155.5 43h-355v100h340q168 0 259 -83t91 -232v-120q0 -149 -89.5 -232t-265.5 -83h-335v537zM434 844q-12 -16 -26 -27t-39 -11t-40 11t-26 27l-109 156h103l72 -109l71 109h103z" />
    <glyph glyph-name="Dcroat.alt2" horiz-adv-x="815" 
d="M15 299v95h75v143h115v-143h245v-95h-245v-199h235q104 0 159.5 43.5t55.5 144.5v175q0 101 -54.5 144t-155.5 43h-355v100h340q168 0 259 -83t91 -232v-120q0 -149 -89.5 -232t-265.5 -83h-335v299h-75z" />
    <glyph glyph-name="Egrave.alt1" horiz-adv-x="768" 
d="M701 100v-100h-316q-88 0 -151 23t-102.5 66t-58 103.5t-18.5 135.5v94q0 75 18.5 135.5t58 103.5t102.5 66t151 23h316v-100h-331q-104 0 -147 -49.5t-43 -150.5v-19h521v-100h-521v-31q0 -101 43 -150.5t147 -49.5h331zM482 822h-98l-78 188h106z" />
    <glyph glyph-name="Eacute.alt1" horiz-adv-x="768" 
d="M701 100v-100h-316q-88 0 -151 23t-102.5 66t-58 103.5t-18.5 135.5v94q0 75 18.5 135.5t58 103.5t102.5 66t151 23h316v-100h-331q-104 0 -147 -49.5t-43 -150.5v-19h521v-100h-521v-31q0 -101 43 -150.5t147 -49.5h331zM380 822l70 188h106l-78 -188h-98z" />
    <glyph glyph-name="Ecircumflex.alt1" horiz-adv-x="768" 
d="M701 100v-100h-316q-88 0 -151 23t-102.5 66t-58 103.5t-18.5 135.5v94q0 75 18.5 135.5t58 103.5t102.5 66t151 23h316v-100h-331q-104 0 -147 -49.5t-43 -150.5v-19h521v-100h-521v-31q0 -101 43 -150.5t147 -49.5h331zM495 822l-71 109l-72 -109h-103l109 156
q11 16 26 27t40 11t39 -11t26 -27l109 -156h-103z" />
    <glyph glyph-name="Edieresis.alt1" horiz-adv-x="768" 
d="M701 100v-100h-316q-88 0 -151 23t-102.5 66t-58 103.5t-18.5 135.5v94q0 75 18.5 135.5t58 103.5t102.5 66t151 23h316v-100h-331q-104 0 -147 -49.5t-43 -150.5v-19h521v-100h-521v-31q0 -101 43 -150.5t147 -49.5h331zM384 842h-110v106h110v-106zM574 842h-110v106
h110v-106z" />
    <glyph glyph-name="Emacron.alt1" horiz-adv-x="768" 
d="M701 100v-100h-316q-88 0 -151 23t-102.5 66t-58 103.5t-18.5 135.5v94q0 75 18.5 135.5t58 103.5t102.5 66t151 23h316v-100h-331q-104 0 -147 -49.5t-43 -150.5v-19h521v-100h-521v-31q0 -101 43 -150.5t147 -49.5h331zM544 832h-240v78h240v-78z" />
    <glyph glyph-name="Ebreve.alt1" horiz-adv-x="768" 
d="M701 100v-100h-316q-88 0 -151 23t-102.5 66t-58 103.5t-18.5 135.5v94q0 75 18.5 135.5t58 103.5t102.5 66t151 23h316v-100h-331q-104 0 -147 -49.5t-43 -150.5v-19h521v-100h-521v-31q0 -101 43 -150.5t147 -49.5h331zM267 980h77v-40q0 -22 11.5 -33.5t34.5 -11.5h70
q24 0 34.5 11t10.5 34v40h76v-46q0 -43 -29 -75t-78 -32h-99q-51 0 -79.5 32t-28.5 75v46z" />
    <glyph glyph-name="Edotaccent.alt1" horiz-adv-x="768" 
d="M701 100v-100h-316q-88 0 -151 23t-102.5 66t-58 103.5t-18.5 135.5v94q0 75 18.5 135.5t58 103.5t102.5 66t151 23h316v-100h-331q-104 0 -147 -49.5t-43 -150.5v-19h521v-100h-521v-31q0 -101 43 -150.5t147 -49.5h331zM479 822h-110v98h110v-98z" />
    <glyph glyph-name="Eogonek.alt1" horiz-adv-x="768" 
d="M701 100v-100h-316q-88 0 -151 23t-102.5 66t-58 103.5t-18.5 135.5v94q0 75 18.5 135.5t58 103.5t102.5 66t151 23h316v-100h-331q-104 0 -147 -49.5t-43 -150.5v-19h521v-100h-521v-31q0 -101 43 -150.5t147 -49.5h331zM609 0h92l-48 -58q-10 -13 -16.5 -21t-6.5 -18
t8 -17t24 -7h39v-69h-65q-55 0 -79.5 21t-24.5 52q0 19 9.5 39t34.5 45z" />
    <glyph glyph-name="Ecaron.alt1" horiz-adv-x="768" 
d="M701 100v-100h-316q-88 0 -151 23t-102.5 66t-58 103.5t-18.5 135.5v94q0 75 18.5 135.5t58 103.5t102.5 66t151 23h316v-100h-331q-104 0 -147 -49.5t-43 -150.5v-19h521v-100h-521v-31q0 -101 43 -150.5t147 -49.5h331zM490 844q-12 -16 -26 -27t-39 -11t-40 11t-26 27
l-109 156h103l72 -109l71 109h103z" />
    <glyph glyph-name="Egrave.open" horiz-adv-x="748" 
d="M90 650v100h591v-100h-591zM90 100v231q0 44 28 72t72 28h491v-100h-476v-231h476v-100h-491q-44 0 -72 28t-28 72zM462 822h-98l-78 188h106z" />
    <glyph glyph-name="Eacute.open" horiz-adv-x="748" 
d="M90 650v100h591v-100h-591zM90 100v231q0 44 28 72t72 28h491v-100h-476v-231h476v-100h-491q-44 0 -72 28t-28 72zM360 822l70 188h106l-78 -188h-98z" />
    <glyph glyph-name="Ecircumflex.open" horiz-adv-x="748" 
d="M90 650v100h591v-100h-591zM90 100v231q0 44 28 72t72 28h491v-100h-476v-231h476v-100h-491q-44 0 -72 28t-28 72zM475 822l-71 109l-72 -109h-103l109 156q11 16 26 27t40 11t39 -11t26 -27l109 -156h-103z" />
    <glyph glyph-name="Edieresis.open" horiz-adv-x="748" 
d="M90 650v100h591v-100h-591zM90 100v231q0 44 28 72t72 28h491v-100h-476v-231h476v-100h-491q-44 0 -72 28t-28 72zM364 842h-110v106h110v-106zM554 842h-110v106h110v-106z" />
    <glyph glyph-name="Emacron.open" horiz-adv-x="748" 
d="M90 650v100h591v-100h-591zM90 100v231q0 44 28 72t72 28h491v-100h-476v-231h476v-100h-491q-44 0 -72 28t-28 72zM524 832h-240v78h240v-78z" />
    <glyph glyph-name="Ebreve.open" horiz-adv-x="748" 
d="M90 650v100h591v-100h-591zM90 100v231q0 44 28 72t72 28h491v-100h-476v-231h476v-100h-491q-44 0 -72 28t-28 72zM247 980h77v-40q0 -22 11.5 -33.5t34.5 -11.5h70q24 0 34.5 11t10.5 34v40h76v-46q0 -43 -29 -75t-78 -32h-99q-51 0 -79.5 32t-28.5 75v46z" />
    <glyph glyph-name="Edotaccent.open" horiz-adv-x="748" 
d="M90 650v100h591v-100h-591zM90 100v231q0 44 28 72t72 28h491v-100h-476v-231h476v-100h-491q-44 0 -72 28t-28 72zM459 822h-110v98h110v-98z" />
    <glyph glyph-name="Eogonek.open" horiz-adv-x="748" 
d="M90 650v100h591v-100h-591zM90 100v231q0 44 28 72t72 28h491v-100h-476v-231h476v-100h-491q-44 0 -72 28t-28 72zM589 0h92l-48 -58q-10 -13 -16.5 -21t-6.5 -18t8 -17t24 -7h39v-69h-65q-55 0 -79.5 21t-24.5 52q0 19 9.5 39t34.5 45z" />
    <glyph glyph-name="Ecaron.open" horiz-adv-x="748" 
d="M90 650v100h591v-100h-591zM90 100v231q0 44 28 72t72 28h491v-100h-476v-231h476v-100h-491q-44 0 -72 28t-28 72zM470 844q-12 -16 -26 -27t-39 -11t-40 11t-26 27l-109 156h103l72 -109l71 109h103z" />
    <glyph glyph-name="Gbreve.alt1" horiz-adv-x="825" 
d="M603 349q24 23 49.5 29.5t47 -0.5t35.5 -25.5t14 -44.5v-308h-105v243l-136 -137q-54 -55 -106 -87t-120 -32q-101 0 -164 63t-63 205v177q0 72 18 131.5t56 100.5t99.5 63.5t146.5 22.5h365v-100h-365q-107 0 -151 -49.5t-44 -150.5v-211q0 -64 24.5 -103t84.5 -39
q37 0 70.5 22t71.5 60zM286 980h77v-40q0 -22 11.5 -33.5t34.5 -11.5h70q24 0 34.5 11t10.5 34v40h76v-46q0 -43 -29 -75t-78 -32h-99q-51 0 -79.5 32t-28.5 75v46z" />
    <glyph glyph-name="Gdotaccent.alt1" horiz-adv-x="825" 
d="M603 349q24 23 49.5 29.5t47 -0.5t35.5 -25.5t14 -44.5v-308h-105v243l-136 -137q-54 -55 -106 -87t-120 -32q-101 0 -164 63t-63 205v177q0 72 18 131.5t56 100.5t99.5 63.5t146.5 22.5h365v-100h-365q-107 0 -151 -49.5t-44 -150.5v-211q0 -64 24.5 -103t84.5 -39
q37 0 70.5 22t71.5 60zM498 822h-110v98h110v-98z" />
    <glyph glyph-name="Gcommaaccent.alt1" horiz-adv-x="825" 
d="M603 349q24 23 49.5 29.5t47 -0.5t35.5 -25.5t14 -44.5v-308h-105v243l-136 -137q-54 -55 -106 -87t-120 -32q-101 0 -164 63t-63 205v177q0 72 18 131.5t56 100.5t99.5 63.5t146.5 22.5h365v-100h-365q-107 0 -151 -49.5t-44 -150.5v-211q0 -64 24.5 -103t84.5 -39
q37 0 70.5 22t71.5 60zM442 -188q16 48 21 70t5 53v25h92v-25q0 -31 -5 -53t-24 -70h-89z" />
    <glyph glyph-name="Hbar.connect" horiz-adv-x="845" 
d="M70 0v555h-55v85h55v110h115v-110h475v28q0 36 23 59t59 23h33v-110h55v-85h-55v-555h-115v330h-475v-330h-115zM185 435h475v120h-475v-120z" />
    <glyph glyph-name="Kcommaaccent.alt1" horiz-adv-x="798" 
d="M90 750h115v-588l435 588h134l-486 -649h490v-101h-688v750zM358 -188q16 48 21 70t5 53v25h92v-25q0 -31 -5 -53t-24 -70h-89z" />
    <glyph glyph-name="Lacute.alt1" horiz-adv-x="636" 
d="M596 0h-261q-150 0 -215 71t-65 197v482h115v-500q0 -75 31.5 -112.5t108.5 -37.5h286v-100zM69 822l70 188h106l-78 -188h-98z" />
    <glyph glyph-name="Lcommaaccent.alt1" horiz-adv-x="636" 
d="M596 0h-261q-150 0 -215 71t-65 197v482h115v-500q0 -75 31.5 -112.5t108.5 -37.5h286v-100zM260 -188q16 48 21 70t5 53v25h92v-25q0 -31 -5 -53t-24 -70h-89z" />
    <glyph glyph-name="Lcaron.alt1" horiz-adv-x="636" 
d="M596 0h-261q-150 0 -215 71t-65 197v482h115v-500q0 -75 31.5 -112.5t108.5 -37.5h286v-100zM274 520l32 230h95l-32 -230h-95z" />
    <glyph glyph-name="Ldot.alt1" horiz-adv-x="636" 
d="M596 0h-261q-150 0 -215 71t-65 197v482h115v-500q0 -75 31.5 -112.5t108.5 -37.5h286v-100zM350 367v125h125v-125h-125z" />
    <glyph glyph-name="Lslash.alt1" horiz-adv-x="691" 
d="M10 208v85l100 53v404h115v-342l235 125v-85l-235 -125v-73q0 -75 31.5 -112.5t108.5 -37.5h286v-100h-261q-148 0 -213.5 69t-66.5 192z" />
    <glyph glyph-name="Ntilde.alt1" horiz-adv-x="845" 
d="M90 0v750h478q101 0 144 -55t43 -160v-535h-115v547q0 59 -23 81t-76 22h-336v-650h-115zM458 920q10 -10 16 -15t15 -5q8 0 13 6t5 19v81h87v-76q0 -53 -26 -83.5t-74 -30.5q-34 0 -58 14t-52 43l-34 35q-10 10 -16 15t-14 5t-13.5 -6t-5.5 -19v-81h-87v78q0 54 27 83
t73 29q34 0 58 -14t52 -43z" />
    <glyph glyph-name="Nacute.alt1" horiz-adv-x="845" 
d="M90 0v750h478q101 0 144 -55t43 -160v-535h-115v547q0 59 -23 81t-76 22h-336v-650h-115zM359 822l70 188h106l-78 -188h-98z" />
    <glyph glyph-name="Ncommaaccent.alt1" horiz-adv-x="845" 
d="M90 0v750h478q101 0 144 -55t43 -160v-535h-115v547q0 59 -23 81t-76 22h-336v-650h-115zM351 -188q16 48 21 70t5 53v25h92v-25q0 -31 -5 -53t-24 -70h-89z" />
    <glyph glyph-name="Ncaron.alt1" horiz-adv-x="845" 
d="M90 0v750h478q101 0 144 -55t43 -160v-535h-115v547q0 59 -23 81t-76 22h-336v-650h-115zM469 844q-12 -16 -26 -27t-39 -11t-40 11t-26 27l-109 156h103l72 -109l71 109h103z" />
    <glyph glyph-name="Ntilde.connect" horiz-adv-x="970" 
d="M90 0v610q0 64 32 108.5t106 44.5q52 0 86 -30t69 -87l320 -517q9 -14 18 -23t18 -9q12 0 19 8.5t7 24.5v538q0 36 23 59t59 23h33v-617q0 -66 -33.5 -106t-98.5 -40q-55 0 -88.5 29t-63.5 77l-327 525q-10 16 -17 25.5t-19 9.5q-15 0 -21.5 -10t-6.5 -27v-616h-115z
M540 920q10 -10 16 -15t15 -5q8 0 13 6t5 19v81h87v-76q0 -53 -26 -83.5t-74 -30.5q-34 0 -58 14t-52 43l-34 35q-10 10 -16 15t-14 5t-13.5 -6t-5.5 -19v-81h-87v78q0 54 27 83t73 29q34 0 58 -14t52 -43z" />
    <glyph glyph-name="Nacute.connect" horiz-adv-x="970" 
d="M90 0v610q0 64 32 108.5t106 44.5q52 0 86 -30t69 -87l320 -517q9 -14 18 -23t18 -9q12 0 19 8.5t7 24.5v538q0 36 23 59t59 23h33v-617q0 -66 -33.5 -106t-98.5 -40q-55 0 -88.5 29t-63.5 77l-327 525q-10 16 -17 25.5t-19 9.5q-15 0 -21.5 -10t-6.5 -27v-616h-115z
M441 822l70 188h106l-78 -188h-98z" />
    <glyph glyph-name="Ncommaaccent.connect" horiz-adv-x="970" 
d="M90 0v610q0 64 32 108.5t106 44.5q52 0 86 -30t69 -87l320 -517q9 -14 18 -23t18 -9q12 0 19 8.5t7 24.5v538q0 36 23 59t59 23h33v-617q0 -66 -33.5 -106t-98.5 -40q-55 0 -88.5 29t-63.5 77l-327 525q-10 16 -17 25.5t-19 9.5q-15 0 -21.5 -10t-6.5 -27v-616h-115z
M414 -188q16 48 21 70t5 53v25h92v-25q0 -31 -5 -53t-24 -70h-89z" />
    <glyph glyph-name="Ncaron.connect" horiz-adv-x="970" 
d="M90 0v610q0 64 32 108.5t106 44.5q52 0 86 -30t69 -87l320 -517q9 -14 18 -23t18 -9q12 0 19 8.5t7 24.5v538q0 36 23 59t59 23h33v-617q0 -66 -33.5 -106t-98.5 -40q-55 0 -88.5 29t-63.5 77l-327 525q-10 16 -17 25.5t-19 9.5q-15 0 -21.5 -10t-6.5 -27v-616h-115z
M551 844q-12 -16 -26 -27t-39 -11t-40 11t-26 27l-109 156h103l72 -109l71 109h103z" />
    <glyph glyph-name="Racute.alt1" horiz-adv-x="563" 
d="M-120 650v100h364q149 0 209 -47.5t60 -146.5v-27q0 -102 -63.5 -148t-205.5 -46h-41l325 -335h-152l-312 321q-16 16 -21 36t0 37q5 16 20.5 27.5t40.5 11.5h181q66 0 91 20t25 74v31q0 54 -25 73t-91 19h-405zM163 822l70 188h106l-78 -188h-98z" />
    <glyph glyph-name="Rcommaaccent.alt1" horiz-adv-x="563" 
d="M-120 650v100h364q149 0 209 -47.5t60 -146.5v-27q0 -102 -63.5 -148t-205.5 -46h-41l325 -335h-152l-312 321q-16 16 -21 36t0 37q5 16 20.5 27.5t40.5 11.5h181q66 0 91 20t25 74v31q0 54 -25 73t-91 19h-405zM85 -188q16 48 21 70t5 53v25h92v-25q0 -31 -5 -53
t-24 -70h-89z" />
    <glyph glyph-name="Rcaron.alt1" horiz-adv-x="563" 
d="M-120 650v100h364q149 0 209 -47.5t60 -146.5v-27q0 -102 -63.5 -148t-205.5 -46h-41l325 -335h-152l-312 321q-16 16 -21 36t0 37q5 16 20.5 27.5t40.5 11.5h181q66 0 91 20t25 74v31q0 54 -25 73t-91 19h-405zM272 844q-12 -16 -26 -27t-39 -11t-40 11t-26 27l-109 156
h103l72 -109l71 109h103z" />
    <glyph glyph-name="Racute.alt2" horiz-adv-x="803" 
d="M228 0h-115v374q0 27 19 43t44 16h343q65 0 90.5 20t25.5 74v31q0 54 -25.5 73t-90.5 19h-609v100h584q55 0 102.5 -9t82.5 -31t54.5 -59.5t19.5 -94.5v-27q0 -114 -69.5 -154t-194.5 -40h-62l325 -335h-151l-327 335h-46v-335zM298 822l70 188h106l-78 -188h-98z" />
    <glyph glyph-name="Rcommaaccent.alt2" horiz-adv-x="803" 
d="M228 0h-115v374q0 27 19 43t44 16h343q65 0 90.5 20t25.5 74v31q0 54 -25.5 73t-90.5 19h-609v100h584q55 0 102.5 -9t82.5 -31t54.5 -59.5t19.5 -94.5v-27q0 -114 -69.5 -154t-194.5 -40h-62l325 -335h-151l-327 335h-46v-335zM330 -188q16 48 21 70t5 53v25h92v-25
q0 -31 -5 -53t-24 -70h-89z" />
    <glyph glyph-name="Rcaron.alt2" horiz-adv-x="803" 
d="M228 0h-115v374q0 27 19 43t44 16h343q65 0 90.5 20t25.5 74v31q0 54 -25.5 73t-90.5 19h-609v100h584q55 0 102.5 -9t82.5 -31t54.5 -59.5t19.5 -94.5v-27q0 -114 -69.5 -154t-194.5 -40h-62l325 -335h-151l-327 335h-46v-335zM407 844q-12 -16 -26 -27t-39 -11t-40 11
t-26 27l-109 156h103l72 -109l71 109h103z" />
    <glyph glyph-name="Racute.alt3" horiz-adv-x="803" 
d="M228 0h-115v374q0 27 19 43t44 16h343q65 0 90.5 20t25.5 74v31q0 54 -25.5 73t-90.5 19h-406v100h381q55 0 102.5 -9t82.5 -31t54.5 -59.5t19.5 -94.5v-27q0 -114 -69.5 -154t-194.5 -40h-62l325 -335h-151l-327 335h-46v-335zM358 822l70 188h106l-78 -188h-98z" />
    <glyph glyph-name="Rcommaaccent.alt3" horiz-adv-x="803" 
d="M228 0h-115v374q0 27 19 43t44 16h343q65 0 90.5 20t25.5 74v31q0 54 -25.5 73t-90.5 19h-406v100h381q55 0 102.5 -9t82.5 -31t54.5 -59.5t19.5 -94.5v-27q0 -114 -69.5 -154t-194.5 -40h-62l325 -335h-151l-327 335h-46v-335zM330 -188q16 48 21 70t5 53v25h92v-25
q0 -31 -5 -53t-24 -70h-89z" />
    <glyph glyph-name="Rcaron.alt3" horiz-adv-x="803" 
d="M228 0h-115v374q0 27 19 43t44 16h343q65 0 90.5 20t25.5 74v31q0 54 -25.5 73t-90.5 19h-406v100h381q55 0 102.5 -9t82.5 -31t54.5 -59.5t19.5 -94.5v-27q0 -114 -69.5 -154t-194.5 -40h-62l325 -335h-151l-327 335h-46v-335zM467 844q-12 -16 -26 -27t-39 -11t-40 11
t-26 27l-109 156h103l72 -109l71 109h103z" />
    <glyph glyph-name="Sacute.alt1" horiz-adv-x="808" 
d="M373 162q-43 -90 -111 -126t-153 -36h-89v100h78q61 0 98.5 19t68.5 83l182 386q43 90 111 126t153 36h77v-100h-66q-61 0 -99 -19.5t-68 -82.5zM612 822l70 188h106l-78 -188h-98z" />
    <glyph glyph-name="Scedilla.alt1" horiz-adv-x="808" 
d="M373 162q-43 -90 -111 -126t-153 -36h-89v100h78q61 0 98.5 19t68.5 83l182 386q43 90 111 126t153 36h77v-100h-66q-61 0 -99 -19.5t-68 -82.5zM208 20l-70 -188h-106l78 188h98z" />
    <glyph glyph-name="Scommaaccent.alt1" horiz-adv-x="808" 
d="M373 162q-43 -90 -111 -126t-153 -36h-89v100h78q61 0 98.5 19t68.5 83l182 386q43 90 111 126t153 36h77v-100h-66q-61 0 -99 -19.5t-68 -82.5zM57 -188q16 48 21 70t5 53v25h92v-25q0 -31 -5 -53t-24 -70h-89z" />
    <glyph glyph-name="Scaron.alt1" horiz-adv-x="808" 
d="M373 162q-43 -90 -111 -126t-153 -36h-89v100h78q61 0 98.5 19t68.5 83l182 386q43 90 111 126t153 36h77v-100h-66q-61 0 -99 -19.5t-68 -82.5zM729 844q-12 -16 -26 -27t-39 -11t-40 11t-26 27l-109 156h103l72 -109l71 109h103z" />
    <glyph glyph-name="Sacute.long1" horiz-adv-x="592" 
d="M440 308l-190 52q-98 27 -151.5 68.5t-53.5 132.5q0 84 63.5 136.5t193.5 52.5h320v-100h-333q-72 0 -99.5 -24t-27.5 -58q0 -39 25.5 -62t93.5 -42l190 -54q50 -14 88.5 -30t64.5 -38.5t39.5 -54.5t13.5 -77q0 -93 -62.5 -151.5t-190.5 -58.5h-359v100h380q66 0 91.5 31
t25.5 69q0 40 -25.5 64.5t-96.5 43.5zM312 822l70 188h106l-78 -188h-98z" />
    <glyph glyph-name="Scedilla.long1" horiz-adv-x="592" 
d="M440 308l-190 52q-98 27 -151.5 68.5t-53.5 132.5q0 84 63.5 136.5t193.5 52.5h320v-100h-333q-72 0 -99.5 -24t-27.5 -58q0 -39 25.5 -62t93.5 -42l190 -54q50 -14 88.5 -30t64.5 -38.5t39.5 -54.5t13.5 -77q0 -93 -62.5 -151.5t-190.5 -58.5h-359v100h380q66 0 91.5 31
t25.5 69q0 40 -25.5 64.5t-96.5 43.5zM406 0l-70 -188h-106l78 188h98z" />
    <glyph glyph-name="Scommaaccent.long1" horiz-adv-x="592" 
d="M440 308l-190 52q-98 27 -151.5 68.5t-53.5 132.5q0 84 63.5 136.5t193.5 52.5h320v-100h-333q-72 0 -99.5 -24t-27.5 -58q0 -39 25.5 -62t93.5 -42l190 -54q50 -14 88.5 -30t64.5 -38.5t39.5 -54.5t13.5 -77q0 -93 -62.5 -151.5t-190.5 -58.5h-359v100h380q66 0 91.5 31
t25.5 69q0 40 -25.5 64.5t-96.5 43.5zM285 -188q16 48 21 70t5 53v25h92v-25q0 -31 -5 -53t-24 -70h-89z" />
    <glyph glyph-name="Scaron.long1" horiz-adv-x="592" 
d="M440 308l-190 52q-98 27 -151.5 68.5t-53.5 132.5q0 84 63.5 136.5t193.5 52.5h320v-100h-333q-72 0 -99.5 -24t-27.5 -58q0 -39 25.5 -62t93.5 -42l190 -54q50 -14 88.5 -30t64.5 -38.5t39.5 -54.5t13.5 -77q0 -93 -62.5 -151.5t-190.5 -58.5h-359v100h380q66 0 91.5 31
t25.5 69q0 40 -25.5 64.5t-96.5 43.5zM422 844q-12 -16 -26 -27t-39 -11t-40 11t-26 27l-109 156h103l72 -109l71 109h103z" />
    <glyph glyph-name="Sacute.long2" horiz-adv-x="702" 
d="M420 308l-190 52q-98 27 -151.5 68.5t-53.5 132.5q0 84 63.5 136.5t193.5 52.5h340v-100h-353q-72 0 -99.5 -24t-27.5 -58q0 -39 25.5 -62t93.5 -42l190 -54q50 -14 88.5 -30t64.5 -38.5t39.5 -54.5t13.5 -77q0 -93 -62.5 -151.5t-190.5 -58.5h-499v100h520q66 0 91.5 31
t25.5 69q0 40 -25.5 64.5t-96.5 43.5zM307 822l70 188h106l-78 -188h-98z" />
    <glyph glyph-name="Scedilla.long2" horiz-adv-x="702" 
d="M420 308l-190 52q-98 27 -151.5 68.5t-53.5 132.5q0 84 63.5 136.5t193.5 52.5h340v-100h-353q-72 0 -99.5 -24t-27.5 -58q0 -39 25.5 -62t93.5 -42l190 -54q50 -14 88.5 -30t64.5 -38.5t39.5 -54.5t13.5 -77q0 -93 -62.5 -151.5t-190.5 -58.5h-499v100h520q66 0 91.5 31
t25.5 69q0 40 -25.5 64.5t-96.5 43.5zM401 0l-70 -188h-106l78 188h98z" />
    <glyph glyph-name="Scommaaccent.long2" horiz-adv-x="702" 
d="M420 308l-190 52q-98 27 -151.5 68.5t-53.5 132.5q0 84 63.5 136.5t193.5 52.5h340v-100h-353q-72 0 -99.5 -24t-27.5 -58q0 -39 25.5 -62t93.5 -42l190 -54q50 -14 88.5 -30t64.5 -38.5t39.5 -54.5t13.5 -77q0 -93 -62.5 -151.5t-190.5 -58.5h-499v100h520q66 0 91.5 31
t25.5 69q0 40 -25.5 64.5t-96.5 43.5zM280 -188q16 48 21 70t5 53v25h92v-25q0 -31 -5 -53t-24 -70h-89z" />
    <glyph glyph-name="Scaron.long2" horiz-adv-x="702" 
d="M420 308l-190 52q-98 27 -151.5 68.5t-53.5 132.5q0 84 63.5 136.5t193.5 52.5h340v-100h-353q-72 0 -99.5 -24t-27.5 -58q0 -39 25.5 -62t93.5 -42l190 -54q50 -14 88.5 -30t64.5 -38.5t39.5 -54.5t13.5 -77q0 -93 -62.5 -151.5t-190.5 -58.5h-499v100h520q66 0 91.5 31
t25.5 69q0 40 -25.5 64.5t-96.5 43.5zM416 844q-12 -16 -26 -27t-39 -11t-40 11t-26 27l-109 156h103l72 -109l71 109h103z" />
    <glyph glyph-name="Ugrave.alt1" horiz-adv-x="845" 
d="M755 750v-750h-478q-101 0 -144 55t-43 160v535h115v-547q0 -59 23 -81t76 -22h336v650h115zM481 822h-98l-78 188h106z" />
    <glyph glyph-name="Uacute.alt1" horiz-adv-x="845" 
d="M755 750v-750h-478q-101 0 -144 55t-43 160v535h115v-547q0 -59 23 -81t76 -22h336v650h115zM379 822l70 188h106l-78 -188h-98z" />
    <glyph glyph-name="Ucircumflex.alt1" horiz-adv-x="845" 
d="M755 750v-750h-478q-101 0 -144 55t-43 160v535h115v-547q0 -59 23 -81t76 -22h336v650h115zM494 822l-71 109l-72 -109h-103l109 156q11 16 26 27t40 11t39 -11t26 -27l109 -156h-103z" />
    <glyph glyph-name="Udieresis.alt1" horiz-adv-x="845" 
d="M755 750v-750h-478q-101 0 -144 55t-43 160v535h115v-547q0 -59 23 -81t76 -22h336v650h115zM383 842h-110v106h110v-106zM573 842h-110v106h110v-106z" />
    <glyph glyph-name="Utilde.alt1" horiz-adv-x="845" 
d="M755 750v-750h-478q-101 0 -144 55t-43 160v535h115v-547q0 -59 23 -81t76 -22h336v650h115zM478 920q10 -10 16 -15t15 -5q8 0 13 6t5 19v81h87v-76q0 -53 -26 -83.5t-74 -30.5q-34 0 -58 14t-52 43l-34 35q-10 10 -16 15t-14 5t-13.5 -6t-5.5 -19v-81h-87v78
q0 54 27 83t73 29q34 0 58 -14t52 -43z" />
    <glyph glyph-name="Umacron.alt1" horiz-adv-x="845" 
d="M755 750v-750h-478q-101 0 -144 55t-43 160v535h115v-547q0 -59 23 -81t76 -22h336v650h115zM543 832h-240v78h240v-78z" />
    <glyph glyph-name="Ubreve.alt1" horiz-adv-x="845" 
d="M755 750v-750h-478q-101 0 -144 55t-43 160v535h115v-547q0 -59 23 -81t76 -22h336v650h115zM266 980h77v-40q0 -22 11.5 -33.5t34.5 -11.5h70q24 0 34.5 11t10.5 34v40h76v-46q0 -43 -29 -75t-78 -32h-99q-51 0 -79.5 32t-28.5 75v46z" />
    <glyph glyph-name="Uring.alt1" horiz-adv-x="845" 
d="M755 750v-750h-478q-101 0 -144 55t-43 160v535h115v-547q0 -59 23 -81t76 -22h336v650h115zM316 904v24q0 39 25.5 63t62.5 24h39q37 0 62.5 -24t25.5 -63v-24q0 -39 -25.5 -63t-62.5 -24h-39q-37 0 -62.5 24t-25.5 63zM376 926v-20q0 -17 10 -27.5t25 -10.5h25
q15 0 25.5 10.5t10.5 27.5v20q0 17 -10.5 27.5t-25.5 10.5h-25q-15 0 -25 -10.5t-10 -27.5z" />
    <glyph glyph-name="Uhungarumlaut.alt1" horiz-adv-x="845" 
d="M755 750v-750h-478q-101 0 -144 55t-43 160v535h115v-547q0 -59 23 -81t76 -22h336v650h115zM303 822l70 188h106l-78 -188h-98zM465 822l70 188h106l-78 -188h-98z" />
    <glyph glyph-name="Uogonek.alt1" horiz-adv-x="845" 
d="M755 750v-750h-478q-101 0 -144 55t-43 160v535h115v-547q0 -59 23 -81t76 -22h336v650h115zM661 0h92l-48 -58q-10 -13 -16.5 -21t-6.5 -18t8 -17t24 -7h39v-69h-65q-55 0 -79.5 21t-24.5 52q0 19 9.5 39t34.5 45z" />
    <glyph glyph-name="Ugrave.connect" horiz-adv-x="880" 
d="M675 668q0 36 23 59t59 23h33v-517q0 -128 -68 -187t-222 -59h-130q-146 0 -213 59t-67 187v517h115v-525q0 -70 35.5 -104t110.5 -34h180q71 0 107.5 34t36.5 104v443zM498 822h-98l-78 188h106z" />
    <glyph glyph-name="Uacute.connect" horiz-adv-x="880" 
d="M675 668q0 36 23 59t59 23h33v-517q0 -128 -68 -187t-222 -59h-130q-146 0 -213 59t-67 187v517h115v-525q0 -70 35.5 -104t110.5 -34h180q71 0 107.5 34t36.5 104v443zM396 822l70 188h106l-78 -188h-98z" />
    <glyph glyph-name="Ucircumflex.connect" horiz-adv-x="880" 
d="M675 668q0 36 23 59t59 23h33v-517q0 -128 -68 -187t-222 -59h-130q-146 0 -213 59t-67 187v517h115v-525q0 -70 35.5 -104t110.5 -34h180q71 0 107.5 34t36.5 104v443zM511 822l-71 109l-72 -109h-103l109 156q11 16 26 27t40 11t39 -11t26 -27l109 -156h-103z" />
    <glyph glyph-name="Udieresis.connect" horiz-adv-x="880" 
d="M675 668q0 36 23 59t59 23h33v-517q0 -128 -68 -187t-222 -59h-130q-146 0 -213 59t-67 187v517h115v-525q0 -70 35.5 -104t110.5 -34h180q71 0 107.5 34t36.5 104v443zM400 842h-110v106h110v-106zM590 842h-110v106h110v-106z" />
    <glyph glyph-name="Utilde.connect" horiz-adv-x="880" 
d="M675 668q0 36 23 59t59 23h33v-517q0 -128 -68 -187t-222 -59h-130q-146 0 -213 59t-67 187v517h115v-525q0 -70 35.5 -104t110.5 -34h180q71 0 107.5 34t36.5 104v443zM495 920q10 -10 16 -15t15 -5q8 0 13 6t5 19v81h87v-76q0 -53 -26 -83.5t-74 -30.5q-34 0 -58 14
t-52 43l-34 35q-10 10 -16 15t-14 5t-13.5 -6t-5.5 -19v-81h-87v78q0 54 27 83t73 29q34 0 58 -14t52 -43z" />
    <glyph glyph-name="Umacron.connect" horiz-adv-x="880" 
d="M675 668q0 36 23 59t59 23h33v-517q0 -128 -68 -187t-222 -59h-130q-146 0 -213 59t-67 187v517h115v-525q0 -70 35.5 -104t110.5 -34h180q71 0 107.5 34t36.5 104v443zM560 832h-240v78h240v-78z" />
    <glyph glyph-name="Ubreve.connect" horiz-adv-x="880" 
d="M675 668q0 36 23 59t59 23h33v-517q0 -128 -68 -187t-222 -59h-130q-146 0 -213 59t-67 187v517h115v-525q0 -70 35.5 -104t110.5 -34h180q71 0 107.5 34t36.5 104v443zM283 980h77v-40q0 -22 11.5 -33.5t34.5 -11.5h70q24 0 34.5 11t10.5 34v40h76v-46q0 -43 -29 -75
t-78 -32h-99q-51 0 -79.5 32t-28.5 75v46z" />
    <glyph glyph-name="Uring.connect" horiz-adv-x="880" 
d="M675 668q0 36 23 59t59 23h33v-517q0 -128 -68 -187t-222 -59h-130q-146 0 -213 59t-67 187v517h115v-525q0 -70 35.5 -104t110.5 -34h180q71 0 107.5 34t36.5 104v443zM333 904v24q0 39 25.5 63t62.5 24h39q37 0 62.5 -24t25.5 -63v-24q0 -39 -25.5 -63t-62.5 -24h-39
q-37 0 -62.5 24t-25.5 63zM393 926v-20q0 -17 10 -27.5t25 -10.5h25q15 0 25.5 10.5t10.5 27.5v20q0 17 -10.5 27.5t-25.5 10.5h-25q-15 0 -25 -10.5t-10 -27.5z" />
    <glyph glyph-name="Uhungarumlaut.connect" horiz-adv-x="880" 
d="M675 668q0 36 23 59t59 23h33v-517q0 -128 -68 -187t-222 -59h-130q-146 0 -213 59t-67 187v517h115v-525q0 -70 35.5 -104t110.5 -34h180q71 0 107.5 34t36.5 104v443zM320 822l70 188h106l-78 -188h-98zM482 822l70 188h106l-78 -188h-98z" />
    <glyph glyph-name="Uogonek.connect" horiz-adv-x="880" 
d="M675 668q0 36 23 59t59 23h33v-517q0 -128 -68 -187t-222 -59h-130q-146 0 -213 59t-67 187v517h115v-525q0 -70 35.5 -104t110.5 -34h180q71 0 107.5 34t36.5 104v443zM448 0h92l-48 -58q-10 -13 -16.5 -21t-6.5 -18t8 -17t24 -7h39v-69h-65q-55 0 -79.5 21t-24.5 52
q0 19 9.5 39t34.5 45z" />
    <glyph glyph-name="Wcircumflex.alt1" horiz-adv-x="1224" 
d="M1214 750l-364 -663q-22 -40 -46.5 -63.5t-73.5 -23.5h-121v603l-285 -519q-22 -40 -45.5 -62t-72.5 -22h-116v750h115v-650h14l346 650h154v-650h15l345 650h135zM723 822l-71 109l-72 -109h-103l109 156q11 16 26 27t40 11t39 -11t26 -27l109 -156h-103z" />
    <glyph glyph-name="Wcircumflex.alt2" horiz-adv-x="1165" 
d="M640 750v-650h320v650h115v-750h-745q-69 0 -115.5 14.5t-74 43t-39 71.5t-11.5 99v522h115v-535q0 -58 25.5 -86.5t88.5 -28.5h206v650h115zM654 822l-71 109l-72 -109h-103l109 156q11 16 26 27t40 11t39 -11t26 -27l109 -156h-103z" />
    <glyph glyph-name="Yacute.alt1" horiz-adv-x="858" 
d="M38 0v100h337l-355 650h134l292 -553l272 553h130l-318 -625q-38 -75 -87 -100t-130 -25h-275zM405 822l70 188h106l-78 -188h-98z" />
    <glyph glyph-name="Ycircumflex.alt1" horiz-adv-x="858" 
d="M38 0v100h337l-355 650h134l292 -553l272 553h130l-318 -625q-38 -75 -87 -100t-130 -25h-275zM520 822l-71 109l-72 -109h-103l109 156q11 16 26 27t40 11t39 -11t26 -27l109 -156h-103z" />
    <glyph glyph-name="Ydieresis.alt1" horiz-adv-x="858" 
d="M38 0v100h337l-355 650h134l292 -553l272 553h130l-318 -625q-38 -75 -87 -100t-130 -25h-275zM409 842h-110v106h110v-106zM599 842h-110v106h110v-106z" />
    <glyph glyph-name="Yacute.alt2" horiz-adv-x="801" 
d="M50 0v100h426q13 0 24.5 1.5t21.5 3.5l-470 645h148l394 -559q1 7 1.5 14t0.5 15v530h115v-482q0 -60 -13 -109.5t-43.5 -84.5t-80.5 -54.5t-123 -19.5h-401zM385 822l70 188h106l-78 -188h-98z" />
    <glyph glyph-name="Ycircumflex.alt2" horiz-adv-x="801" 
d="M50 0v100h426q13 0 24.5 1.5t21.5 3.5l-470 645h148l394 -559q1 7 1.5 14t0.5 15v530h115v-482q0 -60 -13 -109.5t-43.5 -84.5t-80.5 -54.5t-123 -19.5h-401zM500 822l-71 109l-72 -109h-103l109 156q11 16 26 27t40 11t39 -11t26 -27l109 -156h-103z" />
    <glyph glyph-name="Ydieresis.alt2" horiz-adv-x="801" 
d="M50 0v100h426q13 0 24.5 1.5t21.5 3.5l-470 645h148l394 -559q1 7 1.5 14t0.5 15v530h115v-482q0 -60 -13 -109.5t-43.5 -84.5t-80.5 -54.5t-123 -19.5h-401zM389 842h-110v106h110v-106zM579 842h-110v106h110v-106z" />
    </font>
</defs>
</svg>
